<?xml version="1.0" encoding="utf-8"?>
<!-- Generator: Adobe Illustrator 23.0.0, SVG Export Plug-In . SVG Version: 6.00 Build 0)  -->
<svg version="1.1" id="Layer_1" xmlns="http://www.w3.org/2000/svg" xmlns:xlink="http://www.w3.org/1999/xlink" x="0px" y="0px"
	 viewBox="0 0 48 33.5" style="enable-background:new 0 0 48 33.5;" xml:space="preserve">
<style type="text/css">
	.st0{fill:#3994DC;}
</style>
<path class="st0" d="M24.6,33.5H1.5C0.7,33.5,0,32.8,0,32V1.5C0,0.7,0.7,0,1.5,0h23.1c0.8,0,1.5,0.7,1.5,1.5V32
	C26.2,32.8,25.5,33.5,24.6,33.5z M1.5,0.8c-0.4,0-0.8,0.3-0.8,0.8V32c0,0.4,0.3,0.8,0.8,0.8h23.1c0.4,0,0.8-0.3,0.8-0.8V1.5
	c0-0.4-0.3-0.8-0.8-0.8H1.5z"/>
<path class="st0" d="M22.9,30.9H3.2c-0.6,0-1-0.5-1-1V3.4c0-0.6,0.5-1,1-1h19.7c0.6,0,1,0.5,1,1v26.5C24,30.5,23.5,30.9,22.9,30.9z
	 M3.2,3.1c-0.2,0-0.3,0.1-0.3,0.3v26.5c0,0.2,0.1,0.3,0.3,0.3h19.7c0.2,0,0.3-0.1,0.3-0.3V3.4c0-0.2-0.1-0.3-0.3-0.3H3.2z"/>
<path class="st0" d="M39.5,33.5c-2.7,0-5.7-0.6-7.2-0.9c-0.8-0.2-1.3-0.8-1.3-1.6V6.5c0-0.7,0.5-1.4,1.2-1.6
	c1.3-0.4,3.9-1.1,7.3-1.1c3.4,0,6,0.7,7.3,1.1C47.5,5.1,48,5.8,48,6.5v24.4c0,0.8-0.5,1.5-1.3,1.6C45.2,32.9,42.3,33.5,39.5,33.5z
	 M39.5,4.6c-3.2,0-5.8,0.6-7.1,1c-0.4,0.1-0.6,0.5-0.6,0.9v24.4c0,0.4,0.3,0.8,0.7,0.9c1.5,0.3,4.3,0.9,7,0.9s5.5-0.6,7-0.9
	c0.4-0.1,0.7-0.5,0.7-0.9V6.5c0-0.4-0.3-0.8-0.6-0.9C45.3,5.2,42.8,4.6,39.5,4.6z"/>
<rect x="31.4" y="28.5" class="st0" width="16.2" height="0.8"/>
<rect x="31.4" y="8.1" class="st0" width="16.2" height="0.8"/>
<path class="st0" d="M40.8,31.3h-2.5c-0.2,0-0.4-0.2-0.4-0.4s0.2-0.4,0.4-0.4h2.5c0.2,0,0.4,0.2,0.4,0.4S41,31.3,40.8,31.3z"/>
<g>
	<g>
		<path class="st0" d="M11.9,22c-0.1,0-0.2-0.1-0.2-0.1c-0.2-0.1-0.3-0.3-0.3-0.5c0-0.5,0-0.9,0-1.4c0-0.2,0-0.2-0.2-0.2
			c-0.1,0-0.3,0-0.4,0c-0.3,0-0.5-0.2-0.6-0.5c0-0.2,0-0.5,0-0.7c0-1.2,0-2.3,0-3.5c0-0.1,0-0.1,0.1-0.1c1.8,0,3.7,0,5.5,0
			c0.1,0,0.1,0,0.1,0.1c0,1.4,0,2.7,0,4.1c0,0.3-0.2,0.5-0.4,0.6c-0.1,0-0.1,0-0.2,0c-0.2,0-0.3,0-0.5,0c-0.1,0-0.1,0-0.1,0.1
			c0,0.4,0,0.9,0,1.3c0,0.2,0,0.3-0.1,0.5c-0.1,0.1-0.2,0.2-0.3,0.2c0,0,0,0-0.1,0c-0.1,0-0.1,0-0.2,0c0,0,0,0-0.1,0
			c-0.1,0-0.2-0.1-0.3-0.2c-0.1-0.1-0.1-0.3-0.1-0.5c0-0.4,0-0.8,0-1.2c0-0.1,0-0.1,0-0.2c0,0-0.1,0-0.1,0c-0.2,0-0.5,0-0.7,0
			c-0.2,0-0.2,0-0.2,0.2c0,0.4,0,0.8,0,1.3c0,0.2-0.1,0.4-0.2,0.5c-0.1,0.1-0.2,0.1-0.3,0.2C12,22,11.9,22,11.9,22z"/>
		<path class="st0" d="M14.9,10.8c0,0,0,0.1,0,0.1c-0.1,0.2-0.3,0.5-0.4,0.7c-0.1,0.1-0.1,0.1,0,0.2c0.4,0.2,0.7,0.5,0.9,0.8
			c0.3,0.4,0.4,0.8,0.5,1.2c0,0,0,0,0,0.1c0,0.2,0,0.2-0.2,0.2c-1.8,0-3.6,0-5.4,0c-0.1,0-0.1,0-0.1-0.1c0-0.3,0.1-0.6,0.3-0.9
			c0.2-0.3,0.4-0.6,0.7-0.8c0.2-0.1,0.3-0.2,0.5-0.4c0-0.1-0.1-0.2-0.1-0.3c-0.1-0.2-0.2-0.4-0.3-0.5c0,0,0-0.1,0-0.1c0,0,0,0,0.1,0
			c0.1,0.2,0.3,0.5,0.4,0.7c0.1,0.2,0.1,0.2,0.3,0.1c0,0,0,0,0.1,0c0.5-0.2,0.9-0.2,1.4-0.1c0.3,0,0.5,0.1,0.8,0.2c0,0,0.1,0,0.1,0
			c0.1-0.1,0.1-0.2,0.2-0.3C14.7,11.1,14.8,11,14.9,10.8C14.9,10.8,14.9,10.8,14.9,10.8z"/>
		<g>
			<path class="st0" d="M8.1,16.9c0-0.4,0-0.8,0-1.2c0-0.2,0.1-0.4,0.3-0.6C8.6,14.9,9,15,9.2,15.3c0.1,0.1,0.1,0.3,0.1,0.4
				c0,0.8,0,1.7,0,2.5c0,0.2-0.1,0.4-0.3,0.6c-0.2,0.2-0.6,0.1-0.8-0.1c-0.1-0.1-0.2-0.3-0.2-0.5C8.1,17.8,8.1,17.4,8.1,16.9z"/>
			<path class="st0" d="M18.1,16.9c0,0.4,0,0.8,0,1.3c0,0.2-0.1,0.4-0.3,0.6c-0.2,0.2-0.6,0.1-0.8-0.1c-0.1-0.1-0.2-0.3-0.2-0.5
				c0-0.8,0-1.7,0-2.5c0-0.2,0.1-0.4,0.3-0.6c0.3-0.2,0.7-0.1,0.9,0.3c0,0.1,0.1,0.2,0.1,0.3C18.1,16.1,18.1,16.5,18.1,16.9z"/>
		</g>
	</g>
</g>
<g>
	<g>
		<path class="st0" d="M38.3,24.4c-0.1,0-0.2-0.1-0.2-0.1c-0.2-0.1-0.3-0.3-0.3-0.5c0-0.5,0-0.9,0-1.4c0-0.2,0-0.2-0.2-0.2
			c-0.1,0-0.3,0-0.4,0c-0.3,0-0.5-0.2-0.6-0.5c0-0.2,0-0.5,0-0.7c0-1.2,0-2.3,0-3.5c0-0.1,0-0.1,0.1-0.1c1.8,0,3.7,0,5.5,0
			c0.1,0,0.1,0,0.1,0.1c0,1.4,0,2.7,0,4.1c0,0.3-0.2,0.5-0.4,0.6c-0.1,0-0.1,0-0.2,0c-0.2,0-0.3,0-0.5,0c-0.1,0-0.1,0-0.1,0.1
			c0,0.4,0,0.9,0,1.3c0,0.2,0,0.3-0.1,0.5c-0.1,0.1-0.2,0.2-0.3,0.2c0,0,0,0-0.1,0c-0.1,0-0.1,0-0.2,0c0,0,0,0-0.1,0
			c-0.1,0-0.2-0.1-0.3-0.2C40,24,40,23.8,40,23.6c0-0.4,0-0.8,0-1.2c0-0.1,0-0.1,0-0.2c0,0-0.1,0-0.1,0c-0.2,0-0.5,0-0.7,0
			c-0.2,0-0.2,0-0.2,0.2c0,0.4,0,0.8,0,1.3c0,0.2-0.1,0.4-0.2,0.5c-0.1,0.1-0.2,0.1-0.3,0.2C38.4,24.4,38.4,24.4,38.3,24.4z"/>
		<path class="st0" d="M41.3,13.2c0,0,0,0.1,0,0.1c-0.1,0.2-0.3,0.5-0.4,0.7c-0.1,0.1-0.1,0.1,0,0.2c0.4,0.2,0.7,0.5,0.9,0.8
			c0.3,0.4,0.4,0.8,0.5,1.2c0,0,0,0,0,0.1c0,0.2,0,0.2-0.2,0.2c-1.8,0-3.6,0-5.4,0c-0.1,0-0.1,0-0.1-0.1c0-0.3,0.1-0.6,0.3-0.9
			c0.2-0.3,0.4-0.6,0.7-0.8c0.2-0.1,0.3-0.2,0.5-0.4c0-0.1-0.1-0.2-0.1-0.3c-0.1-0.2-0.2-0.4-0.3-0.5c0,0,0-0.1,0-0.1c0,0,0,0,0.1,0
			c0.1,0.2,0.3,0.5,0.4,0.7c0.1,0.2,0.1,0.2,0.3,0.1c0,0,0,0,0.1,0c0.5-0.2,0.9-0.2,1.4-0.1c0.3,0,0.5,0.1,0.8,0.2c0,0,0.1,0,0.1,0
			c0.1-0.1,0.1-0.2,0.2-0.3C41.1,13.5,41.2,13.3,41.3,13.2C41.3,13.2,41.3,13.2,41.3,13.2z"/>
		<g>
			<path class="st0" d="M34.5,19.3c0-0.4,0-0.8,0-1.2c0-0.2,0.1-0.4,0.3-0.6c0.3-0.2,0.7-0.1,0.8,0.2c0.1,0.1,0.1,0.3,0.1,0.4
				c0,0.8,0,1.7,0,2.5c0,0.2-0.1,0.4-0.3,0.6c-0.2,0.2-0.6,0.1-0.8-0.1c-0.1-0.1-0.2-0.3-0.2-0.5C34.5,20.1,34.5,19.7,34.5,19.3z"/>
			<path class="st0" d="M44.5,19.3c0,0.4,0,0.8,0,1.3c0,0.2-0.1,0.4-0.3,0.6c-0.2,0.2-0.6,0.1-0.8-0.1c-0.1-0.1-0.2-0.3-0.2-0.5
				c0-0.8,0-1.7,0-2.5c0-0.2,0.1-0.4,0.3-0.6c0.3-0.2,0.7-0.1,0.9,0.3c0,0.1,0.1,0.2,0.1,0.3C44.5,18.5,44.5,18.9,44.5,19.3z"/>
		</g>
	</g>
</g>
</svg>
