<?xml version="1.0" encoding="utf-8"?>
<!-- Generator: Adobe Illustrator 23.0.0, SVG Export Plug-In . SVG Version: 6.00 Build 0)  -->
<svg version="1.1" id="livetype" xmlns="http://www.w3.org/2000/svg" xmlns:xlink="http://www.w3.org/1999/xlink" x="0px" y="0px"
	 viewBox="0 0 155.2 40" style="enable-background:new 0 0 155.2 40;" xml:space="preserve">
<style type="text/css">
	.st0{fill:#A6A6A6;}
	.st1{fill:#FFFFFF;}
</style>
<g>
	<path d="M7.6,38.5c-3.4,0-6.1-2.8-6.1-6.1V7.6c0-3.4,2.8-6.1,6.1-6.1h139.9c3.4,0,6.1,2.8,6.1,6.1v24.7c0,3.4-2.8,6.1-6.1,6.1H7.6z
		"/>
	<path class="st0" d="M147.5,2c3.1,0,5.6,2.5,5.6,5.6v24.7c0,3.1-2.5,5.6-5.6,5.6H7.6C4.5,38,2,35.5,2,32.4V7.6C2,4.5,4.5,2,7.6,2
		H147.5 M147.5,1H7.6C4,1,1,4,1,7.6v24.7C1,36,4,39,7.6,39h139.9c3.7,0,6.6-3,6.6-6.6V7.6C154.2,4,151.2,1,147.5,1L147.5,1z"/>
</g>
<title>Download_on_the_App_Store_Badge_US-UK_RGB_blk_4SVG_092917</title>
<g>
	<g>
		<g>
			<g id="_Group_">
				<g id="_Group_2">
					<g id="_Group_3">
						<path id="_Path_" class="st1" d="M42.6,20.3c0-1.7,0.9-3.3,2.4-4.2c-0.9-1.3-2.4-2.1-4-2.2c-1.7-0.2-3.3,1-4.2,1
							c-0.9,0-2.2-1-3.6-1c-1.9,0.1-3.6,1.1-4.5,2.7c-1.9,3.3-0.5,8.3,1.4,11c0.9,1.3,2,2.8,3.4,2.8c1.4-0.1,1.9-0.9,3.6-0.9
							c1.7,0,2.1,0.9,3.6,0.9c1.5,0,2.4-1.3,3.3-2.7c0.7-0.9,1.2-2,1.5-3.1C43.8,24,42.6,22.2,42.6,20.3z"/>
						<path id="_Path_2" class="st1" d="M39.9,12.2c0.8-1,1.2-2.2,1.1-3.5c-1.2,0.1-2.4,0.7-3.2,1.7c-0.8,0.9-1.2,2.1-1.1,3.4
							C37.9,13.8,39.1,13.2,39.9,12.2z"/>
					</g>
				</g>
				<g>
					<path class="st1" d="M60.2,27.1h-4.7l-1.1,3.4h-2l4.5-12.4h2.1l4.5,12.4h-2L60.2,27.1z M55.9,25.6h3.8l-1.8-5.4h-0.1L55.9,25.6
						z"/>
					<path class="st1" d="M73,26c0,2.8-1.5,4.6-3.8,4.6C68.1,30.7,67,30,66.4,29h0v4.5h-1.9v-12h1.8v1.5h0c0.6-1,1.7-1.6,2.9-1.6
						C71.5,21.3,73,23.2,73,26z M71.1,26c0-1.8-0.9-3-2.4-3c-1.4,0-2.4,1.2-2.4,3c0,1.8,1,3,2.4,3C70.2,29,71.1,27.8,71.1,26z"/>
					<path class="st1" d="M83,26c0,2.8-1.5,4.6-3.8,4.6C78,30.7,76.9,30,76.4,29h0v4.5h-1.9v-12h1.8v1.5h0c0.6-1,1.7-1.6,2.9-1.6
						C81.5,21.3,83,23.2,83,26z M81.1,26c0-1.8-0.9-3-2.4-3c-1.4,0-2.4,1.2-2.4,3c0,1.8,1,3,2.4,3C80.1,29,81.1,27.8,81.1,26
						L81.1,26z"/>
					<path class="st1" d="M89.6,27c0.1,1.2,1.3,2,3,2c1.6,0,2.7-0.8,2.7-1.9c0-1-0.7-1.5-2.3-1.9l-1.6-0.4c-2.3-0.6-3.3-1.6-3.3-3.3
						c0-2.1,1.9-3.6,4.5-3.6c2.6,0,4.4,1.5,4.5,3.6h-1.9c-0.1-1.2-1.1-2-2.6-2S90,20.3,90,21.4c0,0.9,0.7,1.4,2.3,1.8l1.4,0.3
						c2.5,0.6,3.6,1.6,3.6,3.4c0,2.3-1.9,3.8-4.8,3.8c-2.8,0-4.6-1.4-4.7-3.7L89.6,27z"/>
					<path class="st1" d="M101.2,19.3v2.1h1.7v1.5h-1.7v5c0,0.8,0.3,1.1,1.1,1.1c0.2,0,0.4,0,0.6,0v1.5c-0.3,0.1-0.7,0.1-1,0.1
						c-1.8,0-2.5-0.7-2.5-2.4v-5.2H98v-1.5h1.3v-2.1H101.2z"/>
					<path class="st1" d="M103.9,26c0-2.8,1.7-4.6,4.3-4.6c2.6,0,4.3,1.8,4.3,4.6c0,2.9-1.7,4.6-4.3,4.6
						C105.6,30.6,103.9,28.8,103.9,26z M110.6,26c0-2-0.9-3.1-2.4-3.1s-2.4,1.2-2.4,3.1c0,2,0.9,3.1,2.4,3.1S110.6,27.9,110.6,26
						L110.6,26z"/>
					<path class="st1" d="M114.1,21.4h1.8V23h0c0.2-1,1.2-1.7,2.2-1.6c0.2,0,0.4,0,0.6,0.1v1.7c-0.3-0.1-0.6-0.1-0.8-0.1
						c-1,0-1.9,0.8-1.9,1.8c0,0.1,0,0.2,0,0.3v5.4h-1.9L114.1,21.4z"/>
					<path class="st1" d="M127.3,27.8c-0.2,1.6-1.9,2.8-3.9,2.8c-2.6,0-4.3-1.8-4.3-4.6c0-2.8,1.6-4.7,4.2-4.7
						c2.5,0,4.1,1.7,4.1,4.5v0.6H121v0.1c-0.1,1.3,0.8,2.4,2.1,2.6c0.1,0,0.2,0,0.3,0c0.9,0.1,1.8-0.4,2.1-1.3L127.3,27.8z
						 M121,25.1h4.5c0.1-1.2-0.9-2.2-2.1-2.3c-0.1,0-0.1,0-0.2,0C122,22.8,121,23.8,121,25.1C121,25.1,121,25.1,121,25.1z"/>
				</g>
			</g>
			<g id="_Group_4">
				<g>
					<path class="st1" d="M55.7,8.7c1.5-0.1,2.7,1,2.8,2.4c0,0.2,0,0.3,0,0.5c0,1.9-1,3-2.8,3h-2.2v-6H55.7z M54.5,13.9h1.1
						c1,0.1,1.9-0.7,2-1.8c0-0.1,0-0.3,0-0.4c0.1-1-0.6-2-1.6-2.1c-0.1,0-0.2,0-0.4,0h-1.1V13.9z"/>
					<path class="st1" d="M59.6,12.4c-0.1-1.2,0.7-2.2,1.9-2.3c1.2-0.1,2.2,0.7,2.3,1.9c0,0.1,0,0.3,0,0.4c0.1,1.2-0.7,2.2-1.9,2.3
						c-1.2,0.1-2.2-0.7-2.3-1.9C59.5,12.7,59.5,12.6,59.6,12.4z M62.9,12.4c0-1-0.4-1.5-1.2-1.5c-0.8,0-1.2,0.6-1.2,1.5
						c0,1,0.4,1.6,1.2,1.6C62.4,14,62.9,13.4,62.9,12.4L62.9,12.4z"/>
					<path class="st1" d="M69.4,14.7h-0.9l-0.9-3.3h-0.1l-0.9,3.3h-0.9l-1.2-4.5h0.9l0.8,3.4h0.1l0.9-3.4H68l0.9,3.4H69l0.8-3.4h0.9
						L69.4,14.7z"/>
					<path class="st1" d="M71.7,10.2h0.9v0.7h0.1c0.2-0.5,0.8-0.8,1.3-0.8c0.8-0.1,1.5,0.5,1.6,1.4c0,0.1,0,0.2,0,0.3v2.9h-0.9V12
						c0-0.7-0.3-1.1-1-1.1c-0.6,0-1.1,0.4-1.1,1c0,0.1,0,0.1,0,0.2v2.6h-0.9L71.7,10.2z"/>
					<path class="st1" d="M77,8.4h0.9v6.3H77V8.4z"/>
					<path class="st1" d="M79.1,12.4c-0.1-1.2,0.7-2.2,1.9-2.3c1.2-0.1,2.2,0.7,2.3,1.9c0,0.1,0,0.3,0,0.4c0.1,1.2-0.7,2.2-1.9,2.3
						c-1.2,0.1-2.2-0.7-2.3-1.9C79.1,12.7,79.1,12.6,79.1,12.4z M82.4,12.4c0-1-0.4-1.5-1.2-1.5c-0.8,0-1.2,0.6-1.2,1.5
						c0,1,0.4,1.6,1.2,1.6C82,14,82.4,13.4,82.4,12.4z"/>
					<path class="st1" d="M84.3,13.4c0-0.8,0.6-1.3,1.7-1.3l1.2-0.1v-0.4c0-0.5-0.3-0.7-0.9-0.7c-0.5,0-0.8,0.2-0.9,0.5h-0.9
						c0.1-0.8,0.8-1.3,1.8-1.3c1.1,0,1.8,0.6,1.8,1.5v3.1h-0.9v-0.6h-0.1c-0.3,0.5-0.8,0.7-1.4,0.7c-0.7,0.1-1.4-0.5-1.5-1.2
						C84.3,13.5,84.3,13.5,84.3,13.4z M87.2,13v-0.4l-1.1,0.1c-0.6,0-0.9,0.3-0.9,0.6c0,0.4,0.4,0.6,0.8,0.6
						C86.6,14.1,87.1,13.7,87.2,13C87.2,13.1,87.2,13.1,87.2,13z"/>
					<path class="st1" d="M89.2,12.4c0-1.4,0.7-2.3,1.9-2.3c0.6,0,1.1,0.3,1.4,0.8h0.1V8.4h0.9v6.3h-0.9V14h-0.1
						c-0.3,0.5-0.8,0.8-1.4,0.8C89.9,14.8,89.2,13.9,89.2,12.4z M90.1,12.4c0,1,0.5,1.5,1.2,1.5c0.7,0,1.2-0.6,1.2-1.5
						c0-0.9-0.5-1.5-1.2-1.5C90.6,10.9,90.1,11.5,90.1,12.4L90.1,12.4z"/>
					<path class="st1" d="M97.1,12.4c-0.1-1.2,0.7-2.2,1.9-2.3s2.2,0.7,2.3,1.9c0,0.1,0,0.3,0,0.4c0.1,1.2-0.7,2.2-1.9,2.3
						c-1.2,0.1-2.2-0.7-2.3-1.9C97.1,12.7,97.1,12.6,97.1,12.4z M100.4,12.4c0-1-0.4-1.5-1.2-1.5c-0.8,0-1.2,0.6-1.2,1.5
						c0,1,0.4,1.6,1.2,1.6C100,14,100.4,13.4,100.4,12.4z"/>
					<path class="st1" d="M102.5,10.2h0.9v0.7h0.1c0.2-0.5,0.8-0.8,1.3-0.8c0.8-0.1,1.5,0.5,1.6,1.4c0,0.1,0,0.2,0,0.3v2.9h-0.9V12
						c0-0.7-0.3-1.1-1-1.1c-0.6,0-1.1,0.4-1.1,1c0,0.1,0,0.1,0,0.2v2.6h-0.9V10.2z"/>
					<path class="st1" d="M111.4,9.1v1.1h1V11h-1v2.3c0,0.5,0.2,0.7,0.6,0.7c0.1,0,0.2,0,0.3,0v0.7c-0.2,0-0.3,0-0.5,0
						c-1,0-1.4-0.3-1.4-1.2V11h-0.7v-0.7h0.7V9.1H111.4z"/>
					<path class="st1" d="M113.6,8.4h0.9v2.5h0.1c0.2-0.5,0.8-0.9,1.4-0.8c0.8,0,1.5,0.6,1.6,1.4c0,0.1,0,0.2,0,0.3v2.9h-0.9V12
						c0-0.7-0.3-1.1-1-1.1c-0.6,0-1.1,0.4-1.1,1c0,0.1,0,0.1,0,0.2v2.6h-0.9L113.6,8.4z"/>
					<path class="st1" d="M122.6,13.5c-0.2,0.8-1.1,1.4-2,1.3c-1.1,0-2.1-0.9-2.1-2c0-0.1,0-0.2,0-0.3c-0.2-1.1,0.6-2.2,1.8-2.3
						c0.1,0,0.2,0,0.3,0c1.3,0,2,0.9,2,2.3v0.3h-3.2v0c-0.1,0.7,0.4,1.2,1.1,1.3c0,0,0.1,0,0.1,0c0.4,0.1,0.9-0.2,1.1-0.5
						L122.6,13.5z M119.5,12h2.3c0-0.6-0.4-1.1-1-1.2c0,0-0.1,0-0.1,0C120,10.9,119.5,11.4,119.5,12C119.5,12,119.5,12,119.5,12
						L119.5,12z"/>
				</g>
			</g>
		</g>
	</g>
</g>
</svg>
