<?xml version="1.0" encoding="utf-8"?>
<!-- Generator: Adobe Illustrator 23.0.1, SVG Export Plug-In . SVG Version: 6.00 Build 0)  -->
<svg version="1.1" id="Layer_1" xmlns="http://www.w3.org/2000/svg" xmlns:xlink="http://www.w3.org/1999/xlink" x="0px" y="0px"
	 viewBox="0 0 24 24" style="enable-background:new 0 0 24 24;" xml:space="preserve">
<style type="text/css">
	.st0{fill:url(#SVGID_1_);}
</style>
<g>
	<linearGradient id="SVGID_1_" gradientUnits="userSpaceOnUse" x1="12" y1="2" x2="12" y2="22">
		<stop  offset="0" style="stop-color:#7FE34A"/>
		<stop  offset="1" style="stop-color:#33B700"/>
	</linearGradient>
	<path class="st0" d="M16.59,7.58L10,14.17l-3.59-3.58L5,12l5,5l8-8L16.59,7.58z M12,2C6.48,2,2,6.48,2,12s4.48,10,10,10
		s10-4.48,10-10S17.52,2,12,2z M12,20c-4.42,0-8-3.58-8-8s3.58-8,8-8s8,3.58,8,8S16.42,20,12,20z"/>
</g>
</svg>
