<?xml version="1.0" encoding="utf-8"?>
<!-- Generator: Adobe Illustrator 23.0.0, SVG Export Plug-In . SVG Version: 6.00 Build 0)  -->
<svg version="1.1" id="livetype" xmlns="http://www.w3.org/2000/svg" xmlns:xlink="http://www.w3.org/1999/xlink" x="0px" y="0px"
	 viewBox="0 0 155.2 40" style="enable-background:new 0 0 155.2 40;" xml:space="preserve">
<style type="text/css">
	.st0{fill:#A6A6A6;}
	.st1{clip-path:url(#SVGID_2_);fill:#EEEEEE;}
	.st2{clip-path:url(#SVGID_4_);fill:#FFFFFF;}
	.st3{clip-path:url(#SVGID_6_);}
	.st4{clip-path:url(#SVGID_11_);}
	.st5{clip-path:url(#SVGID_12_);}
	.st6{clip-path:url(#SVGID_13_);}
	.st7{clip-path:url(#SVGID_14_);fill:#DB4437;}
	.st8{clip-path:url(#SVGID_14_);fill:#0F9D58;}
	.st9{clip-path:url(#SVGID_14_);fill:#FFCD40;}
	.st10{clip-path:url(#SVGID_14_);}
	.st11{fill:#F1F1F1;}
	.st12{fill:#4285F4;}
	.st13{clip-path:url(#SVGID_16_);fill:#212121;fill-opacity:5.000000e-02;}
	.st14{fill:#212121;fill-opacity:2.000000e-02;}
	.st15{fill:#FFFFFF;fill-opacity:5.000000e-02;}
	.st16{fill:#231F20;fill-opacity:0.1;}
	.st17{fill:url(#SVGID_17_);}
	.st18{fill:none;}
	.st19{fill:#FFFFFF;}
</style>
<title>Download_on_the_App_Store_Badge_US-UK_RGB_blk_4SVG_092917</title>
<g>
	<g>
		<g>
			<path d="M7.6,38.5c-3.4,0-6.1-2.8-6.1-6.1V7.6c0-3.4,2.8-6.1,6.1-6.1h139.9c3.4,0,6.1,2.8,6.1,6.1v24.7c0,3.4-2.8,6.1-6.1,6.1
				H7.6z"/>
			<path class="st0" d="M147.5,2c3.1,0,5.6,2.5,5.6,5.6v24.7c0,3.1-2.5,5.6-5.6,5.6H7.6C4.5,38,2,35.5,2,32.4V7.6C2,4.5,4.5,2,7.6,2
				H147.5 M147.5,1H7.6C4,1,1,4,1,7.6v24.7C1,36,4,39,7.6,39h139.9c3.7,0,6.6-3,6.6-6.6V7.6C154.2,4,151.2,1,147.5,1L147.5,1z"/>
		</g>
		<g>
			<g>
				<g>
					<defs>
						<path id="SVGID_1_" d="M13.3,6v25.8c0,1.2,1,2.2,2.2,2.2h28.1c1.2,0,2.2-1,2.2-2.2V6H13.3z M33.2,11.9h-7.4
							c-0.8,0-1.5-0.7-1.5-1.5s0.7-1.5,1.5-1.5h7.4c0.8,0,1.5,0.7,1.5,1.5S34,11.9,33.2,11.9z"/>
					</defs>
					<clipPath id="SVGID_2_">
						<use xlink:href="#SVGID_1_"  style="overflow:visible;"/>
					</clipPath>
					<path class="st1" d="M13.3,6h32.5V34H13.3V6z"/>
				</g>
				<g>
					<defs>
						<path id="SVGID_3_" d="M13.3,6v25.8c0,1.2,1,2.2,2.2,2.2h28.1c1.2,0,2.2-1,2.2-2.2V6H13.3z M33.2,11.9h-7.4
							c-0.8,0-1.5-0.7-1.5-1.5s0.7-1.5,1.5-1.5h7.4c0.8,0,1.5,0.7,1.5,1.5S34,11.9,33.2,11.9z"/>
					</defs>
					<clipPath id="SVGID_4_">
						<use xlink:href="#SVGID_3_"  style="overflow:visible;"/>
					</clipPath>
					<path class="st2" d="M33.2,8.9h-7.4c-0.8,0-1.5,0.7-1.5,1.5s0.7,1.5,1.5,1.5h7.4c0.8,0,1.5-0.7,1.5-1.5S34,8.9,33.2,8.9z"/>
				</g>
				<g>
					<defs>
						<path id="SVGID_5_" d="M13.3,6v25.8c0,1.2,1,2.2,2.2,2.2h28.1c1.2,0,2.2-1,2.2-2.2V6H13.3z M33.2,11.9h-7.4
							c-0.8,0-1.5-0.7-1.5-1.5s0.7-1.5,1.5-1.5h7.4c0.8,0,1.5,0.7,1.5,1.5S34,11.9,33.2,11.9z"/>
					</defs>
					<clipPath id="SVGID_6_">
						<use xlink:href="#SVGID_5_"  style="overflow:visible;"/>
					</clipPath>
					<g class="st3">
						<g>
							<defs>
								<circle id="SVGID_7_" cx="29.5" cy="31.8" r="14"/>
							</defs>
							<defs>
								<circle id="SVGID_8_" cx="29.5" cy="31.8" r="14"/>
							</defs>
							<defs>
								<circle id="SVGID_9_" cx="29.5" cy="31.8" r="14"/>
							</defs>
							<defs>
								<circle id="SVGID_10_" cx="29.5" cy="31.8" r="14"/>
							</defs>
							<clipPath id="SVGID_11_">
								<use xlink:href="#SVGID_7_"  style="overflow:visible;"/>
							</clipPath>
							<clipPath id="SVGID_12_" class="st4">
								<use xlink:href="#SVGID_8_"  style="overflow:visible;"/>
							</clipPath>
							<clipPath id="SVGID_13_" class="st5">
								<use xlink:href="#SVGID_9_"  style="overflow:visible;"/>
							</clipPath>
							<clipPath id="SVGID_14_" class="st6">
								<use xlink:href="#SVGID_10_"  style="overflow:visible;"/>
							</clipPath>
							<path class="st7" d="M17.7,17.8V35H24l5.5-9.6h14v-7.6H17.7z M17.7,17.8V35H24l5.5-9.6h14v-7.6H17.7z"/>
							<path class="st8" d="M15.5,45.8h13.3l6.2-6.2V35l-11,0l-8.5-14.6V45.8z M15.5,45.8h13.3l6.2-6.2V35l-11,0l-8.5-14.6V45.8z"/>
							<path class="st9" d="M29.5,25.4L35,35l-6.2,10.8h14.7V25.4H29.5z M29.5,25.4L35,35l-6.2,10.8h14.7V25.4H29.5z"/>
							<g class="st10">
								<circle class="st11" cx="29.5" cy="31.8" r="6.4"/>
								<circle class="st12" cx="29.5" cy="31.8" r="5.1"/>
							</g>
						</g>
						<g>
							<defs>
								<path id="SVGID_15_" d="M13.3,6v25.8c0,1.2,1,2.2,2.2,2.2h28.1c1.2,0,2.2-1,2.2-2.2V6H13.3z M33.2,11.9h-7.4
									c-0.8,0-1.5-0.7-1.5-1.5s0.7-1.5,1.5-1.5h7.4c0.8,0,1.5,0.7,1.5,1.5S34,11.9,33.2,11.9z"/>
							</defs>
							<clipPath id="SVGID_16_">
								<use xlink:href="#SVGID_15_"  style="overflow:visible;"/>
							</clipPath>
							<path class="st13" d="M13.3,6h32.5v14H13.3V6z"/>
						</g>
						<path class="st14" d="M13.3,19.8h32.5V20H13.3V19.8z"/>
						<path class="st15" d="M13.3,20h32.5v0.2H13.3V20z"/>
						<path class="st14" d="M33.2,11.9h-7.4c-0.8,0-1.4-0.6-1.5-1.4c0,0,0,0.1,0,0.1c0,0.8,0.7,1.5,1.5,1.5h7.4
							c0.8,0,1.5-0.7,1.5-1.5c0,0,0-0.1,0-0.1C34.6,11.3,34,11.9,33.2,11.9z M13.3,6v0.2h32.5V6H13.3z"/>
						<path class="st16" d="M25.8,8.9h7.4c0.8,0,1.4,0.6,1.5,1.4c0,0,0-0.1,0-0.1c0-0.8-0.7-1.5-1.5-1.5h-7.4
							c-0.8,0-1.5,0.7-1.5,1.5c0,0,0,0.1,0,0.1C24.4,9.5,25,8.9,25.8,8.9z M43.5,33.8H15.5c-1.2,0-2.2-1-2.2-2.2v0.2
							c0,1.2,1,2.2,2.2,2.2h28.1c1.2,0,2.2-1,2.2-2.2v-0.2C45.8,32.8,44.8,33.8,43.5,33.8z"/>
						
							<radialGradient id="SVGID_17_" cx="560.3886" cy="-143.4142" r="168.0064" gradientTransform="matrix(0.25 0 0 -0.25 -126.9181 -30)" gradientUnits="userSpaceOnUse">
							<stop  offset="0" style="stop-color:#FFFFFF;stop-opacity:0.1"/>
							<stop  offset="1" style="stop-color:#FFFFFF;stop-opacity:0"/>
						</radialGradient>
						<path class="st17" d="M13.3,6v25.8c0,1.2,1,2.2,2.2,2.2h28.1c1.2,0,2.2-1,2.2-2.2V6H13.3z M33.2,11.9h-7.4
							c-0.8,0-1.5-0.7-1.5-1.5s0.7-1.5,1.5-1.5h7.4c0.8,0,1.5,0.7,1.5,1.5S34,11.9,33.2,11.9z"/>
						<path class="st18" d="M11.8,2.3h35.4v35.4H11.8V2.3z"/>
					</g>
				</g>
			</g>
			<g>
				<g>
					<path class="st19" d="M57.5,29.1c-1.1,0-2.1-0.4-2.9-1.2c-0.8-0.8-1.2-1.7-1.2-2.9c0-1.2,0.4-2.1,1.2-2.9
						c0.8-0.8,1.7-1.2,2.9-1.2c1.2,0,2.1,0.4,2.9,1.3l-0.7,0.7c-0.5-0.7-1.3-1-2.2-1c-0.9,0-1.6,0.3-2.2,0.9
						c-0.6,0.6-0.9,1.3-0.9,2.3c0,0.9,0.3,1.7,0.9,2.3c0.6,0.6,1.3,0.9,2.2,0.9c0.9,0,1.7-0.4,2.4-1.1l0.7,0.7
						c-0.4,0.4-0.8,0.8-1.3,1C58.8,29,58.2,29.1,57.5,29.1z"/>
					<path class="st19" d="M62.5,21.2v2.5l0,0.7h0c0.1-0.3,0.4-0.5,0.7-0.6c0.3-0.2,0.6-0.3,1-0.3c0.7,0,1.2,0.2,1.5,0.6
						c0.3,0.4,0.5,1,0.5,1.6V29h-1v-3.1c0-1-0.4-1.5-1.3-1.5c-0.4,0-0.8,0.2-1,0.5c-0.3,0.3-0.4,0.7-0.4,1.2v3h-1v-7.8H62.5z"/>
					<path class="st19" d="M68.5,29h-1v-5.3h1v0.9h0c0.1-0.3,0.3-0.5,0.6-0.7c0.3-0.2,0.6-0.3,0.9-0.3c0.3,0,0.5,0,0.8,0.1l-0.4,0.9
						c-0.1-0.1-0.3-0.1-0.5-0.1c-0.4,0-0.7,0.1-1,0.4c-0.3,0.3-0.4,0.7-0.4,1.1V29z"/>
					<path class="st19" d="M71.5,24.3c0.5-0.5,1.2-0.8,2-0.8s1.5,0.3,2,0.8c0.5,0.5,0.8,1.2,0.8,2c0,0.8-0.3,1.5-0.8,2
						c-0.5,0.5-1.2,0.8-2,0.8s-1.5-0.3-2-0.8c-0.5-0.5-0.8-1.2-0.8-2C70.8,25.5,71,24.8,71.5,24.3z M72.3,27.7
						c0.3,0.4,0.8,0.5,1.2,0.5c0.5,0,0.9-0.2,1.2-0.5c0.3-0.4,0.5-0.8,0.5-1.4c0-0.6-0.2-1-0.5-1.4c-0.3-0.4-0.8-0.5-1.2-0.5
						c-0.5,0-0.9,0.2-1.2,0.5c-0.3,0.4-0.5,0.8-0.5,1.4C71.8,26.9,71.9,27.3,72.3,27.7z"/>
					<path class="st19" d="M77.1,29v-5.3h1v0.7h0c0.2-0.3,0.4-0.5,0.7-0.6c0.3-0.2,0.6-0.3,0.9-0.3c0.8,0,1.4,0.3,1.7,1
						c0.4-0.7,1.1-1,1.9-1c0.6,0,1.1,0.2,1.4,0.6c0.3,0.4,0.5,1,0.5,1.6V29h-1v-3.1c0-0.5-0.1-0.9-0.3-1.1s-0.5-0.3-0.9-0.3
						c-0.4,0-0.7,0.2-1,0.5c-0.3,0.3-0.4,0.7-0.4,1.1v3h-1v-3.1c0-0.5-0.1-0.9-0.3-1.1c-0.2-0.2-0.5-0.3-0.9-0.3
						c-0.4,0-0.7,0.2-1,0.5c-0.3,0.3-0.4,0.7-0.4,1.1v3H77.1z"/>
					<path class="st19" d="M88.8,29.1c-0.8,0-1.5-0.3-2-0.8c-0.5-0.5-0.8-1.2-0.8-2c0-0.8,0.2-1.4,0.7-2c0.5-0.6,1.1-0.8,1.9-0.8
						c0.8,0,1.4,0.3,1.9,0.8s0.7,1.2,0.7,2.1l0,0.2h-4.2c0,0.5,0.2,1,0.5,1.3c0.3,0.3,0.7,0.5,1.2,0.5c0.7,0,1.2-0.3,1.5-0.9
						l0.9,0.4c-0.2,0.4-0.5,0.8-0.9,1C89.9,29,89.4,29.1,88.8,29.1z M90.2,25.6c0-0.3-0.2-0.6-0.4-0.9c-0.3-0.3-0.6-0.4-1.2-0.4
						c-0.4,0-0.7,0.1-1,0.3c-0.3,0.2-0.5,0.5-0.6,0.9H90.2z"/>
					<path class="st19" d="M103.4,21.2l-2.1,7.8h-1l-1.7-5.1h0L96.9,29h-1l-2.2-7.8h1l1.6,6.1h0l1.7-5.1h0.9l1.7,5.1h0l1.6-6.1
						H103.4z"/>
					<path class="st19" d="M106,29.1c-0.8,0-1.5-0.3-2-0.8c-0.5-0.5-0.8-1.2-0.8-2c0-0.8,0.2-1.4,0.7-2c0.5-0.6,1.1-0.8,1.9-0.8
						c0.8,0,1.4,0.3,1.9,0.8s0.7,1.2,0.7,2.1l0,0.2h-4.2c0,0.5,0.2,1,0.5,1.3c0.3,0.3,0.7,0.5,1.2,0.5c0.7,0,1.2-0.3,1.5-0.9
						l0.9,0.4c-0.2,0.4-0.5,0.8-0.9,1C107.1,29,106.6,29.1,106,29.1z M107.5,25.6c0-0.3-0.2-0.6-0.4-0.9c-0.3-0.3-0.6-0.4-1.2-0.4
						c-0.4,0-0.7,0.1-1,0.3s-0.5,0.5-0.6,0.9H107.5z"/>
					<path class="st19" d="M112.3,29.1c-0.4,0-0.8-0.1-1.1-0.3s-0.6-0.4-0.7-0.7h0V29h-1v-7.8h1v2.5l0,0.7h0
						c0.2-0.3,0.4-0.5,0.7-0.7c0.3-0.2,0.7-0.3,1.1-0.3c0.7,0,1.3,0.3,1.8,0.8c0.5,0.5,0.8,1.2,0.8,2c0,0.8-0.3,1.5-0.8,2
						C113.6,28.9,113,29.1,112.3,29.1z M112.1,28.2c0.5,0,0.9-0.2,1.2-0.5c0.3-0.4,0.5-0.8,0.5-1.4c0-0.6-0.2-1-0.5-1.4
						c-0.3-0.4-0.7-0.5-1.2-0.5c-0.5,0-0.9,0.2-1.2,0.5c-0.3,0.3-0.5,0.8-0.5,1.4c0,0.6,0.2,1.1,0.5,1.4
						C111.3,28,111.7,28.2,112.1,28.2z"/>
					<path class="st19" d="M120.2,29.1c-0.6,0-1.1-0.2-1.7-0.6c-0.5-0.4-0.9-0.9-1.1-1.6l0.9-0.4c0.1,0.4,0.3,0.8,0.7,1.1
						s0.7,0.4,1.1,0.4c0.4,0,0.8-0.1,1.1-0.3c0.3-0.2,0.5-0.5,0.5-0.9c0-0.4-0.2-0.8-0.5-1c-0.3-0.2-0.8-0.5-1.5-0.7
						c-0.7-0.2-1.2-0.5-1.6-0.8c-0.4-0.3-0.5-0.8-0.5-1.3c0-0.6,0.2-1,0.7-1.5c0.4-0.4,1-0.6,1.7-0.6c0.7,0,1.2,0.2,1.6,0.5
						c0.4,0.3,0.7,0.7,0.8,1.1l-0.9,0.4c-0.1-0.2-0.2-0.5-0.5-0.7c-0.3-0.2-0.6-0.3-1-0.3c-0.4,0-0.7,0.1-1,0.3
						c-0.3,0.2-0.4,0.5-0.4,0.8c0,0.3,0.1,0.5,0.4,0.7c0.3,0.2,0.6,0.4,1.1,0.5c0.4,0.1,0.7,0.2,1,0.4c0.3,0.1,0.5,0.3,0.8,0.5
						c0.3,0.2,0.5,0.4,0.6,0.7c0.1,0.3,0.2,0.6,0.2,1c0,0.4-0.1,0.7-0.2,1c-0.2,0.3-0.4,0.5-0.6,0.7c-0.3,0.2-0.5,0.3-0.8,0.4
						C120.8,29.1,120.5,29.1,120.2,29.1z"/>
					<path class="st19" d="M125.9,29c-0.6,0-1-0.1-1.3-0.4s-0.4-0.7-0.4-1.3v-2.8h-0.9v-0.9h0.9V22h1v1.6h1.3v0.9h-1.3v2.7
						c0,0.6,0.2,0.9,0.7,0.9c0.2,0,0.3,0,0.5-0.1l0.3,0.9C126.5,29,126.2,29,125.9,29z"/>
					<path class="st19" d="M127.9,24.3c0.5-0.5,1.2-0.8,2-0.8c0.8,0,1.5,0.3,2,0.8c0.5,0.5,0.8,1.2,0.8,2c0,0.8-0.3,1.5-0.8,2
						c-0.5,0.5-1.2,0.8-2,0.8c-0.8,0-1.5-0.3-2-0.8c-0.5-0.5-0.8-1.2-0.8-2C127.1,25.5,127.3,24.8,127.9,24.3z M128.6,27.7
						c0.3,0.4,0.8,0.5,1.2,0.5c0.5,0,0.9-0.2,1.2-0.5c0.3-0.4,0.5-0.8,0.5-1.4c0-0.6-0.2-1-0.5-1.4c-0.3-0.4-0.8-0.5-1.2-0.5
						c-0.5,0-0.9,0.2-1.2,0.5c-0.3,0.4-0.5,0.8-0.5,1.4C128.1,26.9,128.3,27.3,128.6,27.7z"/>
					<path class="st19" d="M134.4,29h-1v-5.3h1v0.9h0c0.1-0.3,0.3-0.5,0.6-0.7c0.3-0.2,0.6-0.3,0.9-0.3c0.3,0,0.5,0,0.8,0.1
						l-0.4,0.9c-0.1-0.1-0.3-0.1-0.5-0.1c-0.4,0-0.7,0.1-1,0.4c-0.3,0.3-0.4,0.7-0.4,1.1V29z"/>
					<path class="st19" d="M139.4,29.1c-0.8,0-1.5-0.3-2-0.8c-0.5-0.5-0.8-1.2-0.8-2c0-0.8,0.2-1.4,0.7-2c0.5-0.6,1.1-0.8,1.9-0.8
						c0.8,0,1.4,0.3,1.9,0.8c0.5,0.5,0.7,1.2,0.7,2.1l0,0.2h-4.2c0,0.5,0.2,1,0.5,1.3c0.3,0.3,0.7,0.5,1.2,0.5
						c0.7,0,1.2-0.3,1.5-0.9l0.9,0.4c-0.2,0.4-0.5,0.8-0.9,1C140.5,29,140,29.1,139.4,29.1z M140.9,25.6c0-0.3-0.2-0.6-0.4-0.9
						c-0.3-0.3-0.6-0.4-1.2-0.4c-0.4,0-0.7,0.1-1,0.3c-0.3,0.2-0.5,0.5-0.6,0.9H140.9z"/>
				</g>
				<g>
					<path class="st19" d="M54.1,16.8l2.2-5.9h0.9l2.2,5.9h-0.8L58,15.2h-2.5l-0.6,1.6H54.1z M55.7,14.5h2l-1-2.7h0L55.7,14.5z"/>
					<path class="st19" d="M60.7,16.8l-1.6-4h0.8l1.2,3.1h0l1.2-3.1h0.8l-1.7,4H60.7z"/>
					<path class="st19" d="M64.8,17c-0.4,0-0.8-0.1-1.1-0.4c-0.3-0.2-0.4-0.6-0.4-1c0-0.4,0.2-0.8,0.5-1c0.3-0.3,0.8-0.4,1.3-0.4
						c0.4,0,0.8,0.1,1.1,0.2v-0.1c0-0.3-0.1-0.5-0.3-0.7c-0.2-0.2-0.5-0.3-0.8-0.3c-0.2,0-0.4,0.1-0.6,0.2c-0.2,0.1-0.3,0.2-0.4,0.4
						l-0.7-0.3c0.1-0.2,0.3-0.5,0.6-0.7c0.3-0.2,0.6-0.3,1.1-0.3c0.5,0,0.9,0.2,1.3,0.5c0.3,0.3,0.5,0.7,0.5,1.3v2.4h-0.7v-0.6h0
						C65.9,16.7,65.4,17,64.8,17z M65,16.3c0.3,0,0.6-0.1,0.9-0.4c0.3-0.2,0.4-0.5,0.4-0.8c-0.2-0.2-0.5-0.3-1-0.3
						c-0.4,0-0.6,0.1-0.8,0.2c-0.2,0.2-0.3,0.3-0.3,0.6c0,0.2,0.1,0.4,0.3,0.5C64.5,16.2,64.7,16.3,65,16.3z"/>
					<path class="st19" d="M68.6,11.8c-0.1,0.1-0.2,0.2-0.4,0.2s-0.3-0.1-0.4-0.2c-0.1-0.1-0.2-0.2-0.2-0.4c0-0.1,0.1-0.3,0.2-0.4
						c0.1-0.1,0.2-0.2,0.4-0.2s0.3,0.1,0.4,0.2c0.1,0.1,0.2,0.2,0.2,0.4C68.8,11.5,68.7,11.7,68.6,11.8z M68.6,16.8h-0.8v-4h0.8
						V16.8z"/>
					<path class="st19" d="M70.4,16.8h-0.8v-5.9h0.8V16.8z"/>
					<path class="st19" d="M72.5,17c-0.4,0-0.8-0.1-1.1-0.4c-0.3-0.2-0.4-0.6-0.4-1c0-0.4,0.2-0.8,0.5-1c0.3-0.3,0.8-0.4,1.3-0.4
						c0.4,0,0.8,0.1,1.1,0.2v-0.1c0-0.3-0.1-0.5-0.3-0.7c-0.2-0.2-0.5-0.3-0.8-0.3c-0.2,0-0.4,0.1-0.6,0.2c-0.2,0.1-0.3,0.2-0.4,0.4
						l-0.7-0.3c0.1-0.2,0.3-0.5,0.6-0.7c0.3-0.2,0.6-0.3,1.1-0.3c0.5,0,0.9,0.2,1.3,0.5c0.3,0.3,0.5,0.7,0.5,1.3v2.4h-0.7v-0.6h0
						C73.5,16.7,73.1,17,72.5,17z M72.6,16.3c0.3,0,0.6-0.1,0.9-0.4c0.3-0.2,0.4-0.5,0.4-0.8c-0.2-0.2-0.5-0.3-1-0.3
						c-0.4,0-0.6,0.1-0.8,0.2c-0.2,0.2-0.3,0.3-0.3,0.6c0,0.2,0.1,0.4,0.3,0.5C72.2,16.2,72.4,16.3,72.6,16.3z"/>
					<path class="st19" d="M77.6,17c-0.3,0-0.6-0.1-0.8-0.2c-0.2-0.1-0.4-0.3-0.5-0.5h0v0.6h-0.7v-5.9h0.8v1.9l0,0.6h0
						c0.1-0.2,0.3-0.4,0.5-0.5s0.5-0.2,0.8-0.2c0.5,0,1,0.2,1.4,0.6c0.4,0.4,0.6,0.9,0.6,1.5c0,0.6-0.2,1.1-0.6,1.5
						C78.6,16.8,78.1,17,77.6,17z M77.5,16.3c0.4,0,0.7-0.1,0.9-0.4c0.3-0.3,0.4-0.6,0.4-1.1c0-0.4-0.1-0.8-0.4-1.1
						c-0.3-0.3-0.6-0.4-0.9-0.4c-0.4,0-0.7,0.1-0.9,0.4c-0.3,0.3-0.4,0.6-0.4,1.1c0,0.4,0.1,0.8,0.4,1.1
						C76.8,16.1,77.1,16.3,77.5,16.3z"/>
					<path class="st19" d="M80.9,16.8h-0.8v-5.9h0.8V16.8z"/>
					<path class="st19" d="M83.7,17c-0.6,0-1.1-0.2-1.5-0.6c-0.4-0.4-0.6-0.9-0.6-1.5c0-0.6,0.2-1.1,0.6-1.5
						c0.4-0.4,0.8-0.6,1.4-0.6c0.6,0,1.1,0.2,1.4,0.6c0.4,0.4,0.5,0.9,0.5,1.6l0,0.1h-3.2c0,0.4,0.2,0.7,0.4,1
						c0.3,0.2,0.5,0.4,0.9,0.4c0.5,0,0.9-0.2,1.1-0.7l0.7,0.3c-0.1,0.3-0.3,0.6-0.7,0.8C84.5,16.9,84.1,17,83.7,17z M84.7,14.3
						c0-0.2-0.1-0.5-0.3-0.7c-0.2-0.2-0.5-0.3-0.9-0.3c-0.3,0-0.5,0.1-0.7,0.3c-0.2,0.2-0.3,0.4-0.4,0.7H84.7z"/>
					<path class="st19" d="M88.9,11.8c-0.1,0.1-0.2,0.2-0.4,0.2s-0.3-0.1-0.4-0.2C88,11.7,88,11.5,88,11.4c0-0.1,0.1-0.3,0.2-0.4
						c0.1-0.1,0.2-0.2,0.4-0.2s0.3,0.1,0.4,0.2c0.1,0.1,0.2,0.2,0.2,0.4C89,11.5,89,11.7,88.9,11.8z M88.9,16.8h-0.8v-4h0.8V16.8z"
						/>
					<path class="st19" d="M90.6,12.8v0.6h0c0.1-0.2,0.3-0.4,0.5-0.5c0.2-0.1,0.5-0.2,0.8-0.2c0.5,0,0.9,0.2,1.1,0.5
						c0.3,0.3,0.4,0.7,0.4,1.2v2.5h-0.8v-2.4c0-0.7-0.3-1.1-1-1.1c-0.3,0-0.6,0.1-0.8,0.4c-0.2,0.3-0.3,0.5-0.3,0.9v2.2h-0.8v-4
						H90.6z"/>
					<path class="st19" d="M97.9,16.9c-0.4,0-0.7-0.1-1-0.3s-0.3-0.5-0.3-1v-2.1h-0.7v-0.7h0.7v-1.2h0.8v1.2h1v0.7h-1v2.1
						c0,0.4,0.2,0.7,0.5,0.7c0.1,0,0.3,0,0.3-0.1l0.3,0.7C98.4,16.9,98.2,16.9,97.9,16.9z"/>
					<path class="st19" d="M99.9,10.9v1.9l0,0.6h0c0.1-0.2,0.3-0.4,0.5-0.5c0.2-0.1,0.5-0.2,0.8-0.2c0.5,0,0.9,0.2,1.1,0.5
						c0.3,0.3,0.4,0.7,0.4,1.2v2.5h-0.8v-2.4c0-0.7-0.3-1.1-1-1.1c-0.3,0-0.6,0.1-0.8,0.4c-0.2,0.3-0.3,0.5-0.3,0.9v2.2h-0.8v-5.9
						H99.9z"/>
					<path class="st19" d="M105.4,17c-0.6,0-1.1-0.2-1.5-0.6c-0.4-0.4-0.6-0.9-0.6-1.5c0-0.6,0.2-1.1,0.6-1.5
						c0.4-0.4,0.8-0.6,1.4-0.6c0.6,0,1.1,0.2,1.4,0.6c0.4,0.4,0.5,0.9,0.5,1.6l0,0.1h-3.2c0,0.4,0.2,0.7,0.4,1
						c0.3,0.2,0.5,0.4,0.9,0.4c0.5,0,0.9-0.2,1.1-0.7l0.7,0.3c-0.1,0.3-0.3,0.6-0.7,0.8C106.2,16.9,105.9,17,105.4,17z M106.5,14.3
						c0-0.2-0.1-0.5-0.3-0.7c-0.2-0.2-0.5-0.3-0.9-0.3c-0.3,0-0.5,0.1-0.7,0.3c-0.2,0.2-0.3,0.4-0.4,0.7H106.5z"/>
				</g>
			</g>
		</g>
	</g>
</g>
</svg>
