<?xml version="1.0" encoding="utf-8"?>
<!-- Generator: Adobe Illustrator 23.0.1, SVG Export Plug-In . SVG Version: 6.00 Build 0)  -->
<svg version="1.1" xmlns="http://www.w3.org/2000/svg" xmlns:xlink="http://www.w3.org/1999/xlink" x="0px" y="0px"
	 viewBox="0 0 441.7168 33.6426" style="enable-background:new 0 0 441.7168 33.6426;" xml:space="preserve">
<style type="text/css">
	.st0{fill:url(#SVGID_1_);}
	.st1{fill:url(#SVGID_2_);}
	.st2{fill:url(#SVGID_3_);}
	.st3{fill:url(#SVGID_4_);}
	.st4{fill:url(#SVGID_5_);}
	.st5{fill:url(#SVGID_6_);}
	.st6{fill:url(#SVGID_7_);}
	.st7{fill:url(#SVGID_8_);}
	.st8{fill:url(#SVGID_9_);}
	.st9{fill:url(#SVGID_10_);}
	.st10{fill:url(#SVGID_11_);}
	.st11{fill:url(#SVGID_12_);}
	.st12{fill:url(#SVGID_13_);}
	.st13{fill:url(#SVGID_14_);}
	.st14{fill:url(#SVGID_15_);}
	.st15{fill:url(#SVGID_16_);}
	.st16{fill:url(#SVGID_17_);}
	.st17{fill:url(#SVGID_18_);}
	.st18{fill:url(#SVGID_19_);}
	.st19{fill:url(#SVGID_20_);}
	.st20{fill:url(#SVGID_21_);}
	.st21{fill:url(#SVGID_22_);}
	.st22{fill:url(#SVGID_23_);}
	.st23{fill:url(#SVGID_24_);}
	.st24{fill:url(#SVGID_25_);}
	.st25{fill:url(#SVGID_26_);}
	.st26{fill:url(#SVGID_27_);}
	.st27{fill:url(#SVGID_28_);}
	.st28{fill:url(#SVGID_29_);}
</style>
<g id="Layer_1">
</g>
<g id="Isolation_Mode">
	<g>
		<linearGradient id="SVGID_1_" gradientUnits="userSpaceOnUse" x1="30.5531" y1="0.8547" x2="30.5531" y2="33.338">
			<stop  offset="0" style="stop-color:#3BA4DB"/>
			<stop  offset="1" style="stop-color:#0977BB"/>
		</linearGradient>
		<path class="st0" d="M0.7462,31.0529c0,1.4243,1.1654,2.5897,2.5897,2.5897h54.4345c1.4243,0,2.5897-1.1654,2.5897-2.5897H0.7462z
			"/>
		<linearGradient id="SVGID_2_" gradientUnits="userSpaceOnUse" x1="30.5532" y1="-0.1453" x2="30.5532" y2="32.3379">
			<stop  offset="0" style="stop-color:#3BA4DB"/>
			<stop  offset="1" style="stop-color:#0977BB"/>
		</linearGradient>
		<path class="st1" d="M50.7519-0.1006H10.3543c-1.2197,0-2.2177,0.998-2.2177,2.2177v27.9358h44.8329V2.1171
			C52.9696,0.8974,51.9717-0.1006,50.7519-0.1006z M50.5634,26.7902c0,0.4223-0.3423,0.7646-0.7646,0.7646H11.3076
			c-0.4223,0-0.7646-0.3423-0.7646-0.7646V3.0327c0-0.4223,0.3423-0.7647,0.7646-0.7647h38.4911
			c0.4223,0,0.7646,0.3424,0.7646,0.7647V26.7902z"/>
		<g>
			<g>
				<linearGradient id="SVGID_3_" gradientUnits="userSpaceOnUse" x1="30.4704" y1="-0.4503" x2="30.6337" y2="33.5021">
					<stop  offset="0" style="stop-color:#3BA4DB"/>
					<stop  offset="1" style="stop-color:#0977BB"/>
				</linearGradient>
				<path class="st2" d="M29.4127,19.7886c-0.0673,0-0.1347,0-0.202,0c-0.0638-0.0197-0.1288-0.036-0.191-0.0598
					c-0.2194-0.084-0.392-0.2343-0.5437-0.4067c-0.4223-0.48-0.7595-1.0132-0.99-1.6118c-0.2527-0.6562-0.3921-1.3311-0.3487-2.038
					c0.0259-0.4226,0.1278-0.8254,0.3393-1.1922c0.3017-0.5233,0.7446-0.8702,1.3379-1.012
					c0.2403-0.0574,0.4848-0.0822,0.7251-0.0115c0.2401,0.0706,0.4754,0.1575,0.7124,0.2385
					c0.1658,0.0566,0.3311,0.1245,0.5098,0.0656c0.1552-0.0511,0.3083-0.1087,0.461-0.1667
					c0.3483-0.1324,0.6996-0.2329,1.0809-0.1914c0.4872,0.053,0.9143,0.2284,1.261,0.5801c0.074,0.0751,0.1364,0.1617,0.2013,0.2395
					c-0.0974,0.0786-0.1864,0.1433-0.2667,0.2173c-0.0804,0.0741-0.1574,0.1533-0.2269,0.2376
					c-0.3514,0.427-0.4711,0.9172-0.3874,1.4602c0.0496,0.3216,0.1766,0.6088,0.384,0.8605
					c0.1811,0.2197,0.4008,0.3897,0.6558,0.5141c0.046,0.0225,0.0648,0.0437,0.043,0.0964
					c-0.0615,0.1489-0.1113,0.3029-0.1788,0.4489c-0.2261,0.4896-0.5223,0.9342-0.8877,1.3309
					c-0.136,0.1477-0.2957,0.2673-0.4892,0.3339c-0.2854,0.0983-0.5608,0.0504-0.8336-0.0542
					c-0.1668-0.0639-0.3328-0.1335-0.5047-0.1801c-0.3219-0.0872-0.6396-0.0478-0.9498,0.0669
					c-0.1783,0.0659-0.3563,0.1328-0.5358,0.1953C29.5321,19.7693,29.4714,19.776,29.4127,19.7886z"/>
				<linearGradient id="SVGID_4_" gradientUnits="userSpaceOnUse" x1="31.3236" y1="-0.4544" x2="31.4869" y2="33.498">
					<stop  offset="0" style="stop-color:#3BA4DB"/>
					<stop  offset="1" style="stop-color:#0977BB"/>
				</linearGradient>
				<path class="st3" d="M32.2278,11.3569c-0.0014,0.136,0.0137,0.2745-0.0072,0.4074c-0.0756,0.4793-0.301,0.8798-0.6793,1.1857
					c-0.2852,0.2306-0.6078,0.3687-0.9901,0.3445c-0.0196-0.1438-0.0172-0.2872,0.0136-0.4271
					c0.1123-0.5108,0.3825-0.9185,0.8193-1.2085c0.2261-0.1501,0.4741-0.2528,0.7457-0.2905
					c0.0105-0.0015,0.0204-0.0075,0.0306-0.0115C32.1829,11.3569,32.2053,11.3569,32.2278,11.3569z"/>
			</g>
		</g>
	</g>
	<g>
		<linearGradient id="SVGID_5_" gradientUnits="userSpaceOnUse" x1="227.6719" y1="0.8045" x2="227.4012" y2="33.3832">
			<stop  offset="0" style="stop-color:#3BA4DB"/>
			<stop  offset="1" style="stop-color:#0977BB"/>
		</linearGradient>
		<path class="st4" d="M239.0909,0.8994h-23.1116c-0.6351,0-1.1548,0.5197-1.1548,1.1549v30.4334
			c0,0.6351,0.5197,1.1548,1.1548,1.1548h23.1116c0.6352,0,1.1548-0.5197,1.1548-1.1548V2.0543
			C240.2457,1.4192,239.7261,0.8994,239.0909,0.8994z M226.2957,2.5863h2.4785c0.207,0,0.375,0.168,0.375,0.375
			s-0.168,0.375-0.375,0.375h-2.4785c-0.207,0-0.375-0.168-0.375-0.375S226.0887,2.5863,226.2957,2.5863z M227.5351,32.3048
			c-0.4631,0-0.8386-0.3754-0.8386-0.8386c0-0.4631,0.3754-0.8386,0.8386-0.8386s0.8386,0.3755,0.8386,0.8386
			C228.3737,31.9293,227.9982,32.3048,227.5351,32.3048z M237.4569,29.4048h-19.8437V4.9488h19.8437V29.4048z"/>
		<g>
			<g>
				<linearGradient id="SVGID_6_" gradientUnits="userSpaceOnUse" x1="253.9649" y1="0.9324" x2="253.9649" y2="33.4034">
					<stop  offset="0" style="stop-color:#3BA4DB"/>
					<stop  offset="1" style="stop-color:#0977BB"/>
				</linearGradient>
				<path class="st5" d="M252.8245,23.4174c-0.0674,0-0.1347,0-0.202,0c-0.0638-0.0197-0.1288-0.036-0.1911-0.0598
					c-0.2194-0.084-0.392-0.2343-0.5437-0.4067c-0.4223-0.48-0.7595-1.0132-0.99-1.6118c-0.2527-0.6562-0.3921-1.3311-0.3487-2.038
					c0.0259-0.4226,0.1278-0.8254,0.3393-1.1922c0.3017-0.5233,0.7446-0.8702,1.3379-1.012
					c0.2403-0.0574,0.4848-0.0822,0.7251-0.0115c0.2401,0.0706,0.4754,0.1575,0.7124,0.2385
					c0.1658,0.0566,0.3311,0.1245,0.5098,0.0656c0.1552-0.0511,0.3083-0.1087,0.461-0.1667
					c0.3483-0.1324,0.6996-0.2329,1.0809-0.1914c0.4872,0.053,0.9143,0.2284,1.261,0.5801c0.074,0.0751,0.1364,0.1617,0.2013,0.2395
					c-0.0974,0.0786-0.1864,0.1433-0.2667,0.2173c-0.0804,0.0741-0.1574,0.1533-0.2269,0.2376
					c-0.3513,0.427-0.471,0.9172-0.3874,1.4602c0.0496,0.3216,0.1766,0.6088,0.384,0.8605
					c0.1811,0.2197,0.4008,0.3897,0.6558,0.5141c0.0461,0.0225,0.0648,0.0437,0.043,0.0964
					c-0.0615,0.1489-0.1113,0.3029-0.1788,0.4489c-0.2261,0.4896-0.5223,0.9342-0.8876,1.3309
					c-0.136,0.1477-0.2957,0.2673-0.4892,0.3339c-0.2854,0.0983-0.5608,0.0504-0.8336-0.0542
					c-0.1668-0.0639-0.3328-0.1335-0.5047-0.1801c-0.3219-0.0872-0.6396-0.0478-0.9498,0.0669
					c-0.1783,0.0659-0.3563,0.1328-0.5358,0.1953C252.9439,23.3981,252.8832,23.4048,252.8245,23.4174z"/>
				<linearGradient id="SVGID_7_" gradientUnits="userSpaceOnUse" x1="254.797" y1="0.9324" x2="254.797" y2="33.4034">
					<stop  offset="0" style="stop-color:#3BA4DB"/>
					<stop  offset="1" style="stop-color:#0977BB"/>
				</linearGradient>
				<path class="st6" d="M255.6396,14.9857c-0.0014,0.136,0.0137,0.2745-0.0072,0.4074c-0.0756,0.4793-0.301,0.8798-0.6793,1.1857
					c-0.2852,0.2306-0.6078,0.3687-0.9901,0.3445c-0.0196-0.1438-0.0172-0.2872,0.0136-0.4271
					c0.1123-0.5108,0.3825-0.9186,0.8193-1.2085c0.2261-0.1501,0.4741-0.2528,0.7457-0.2905
					c0.0105-0.0015,0.0204-0.0075,0.0306-0.0115C255.5947,14.9857,255.6171,14.9857,255.6396,14.9857z"/>
			</g>
		</g>
		<g>
			<g>
				<linearGradient id="SVGID_8_" gradientUnits="userSpaceOnUse" x1="227.5351" y1="0.9324" x2="227.5351" y2="33.4034">
					<stop  offset="0" style="stop-color:#3BA4DB"/>
					<stop  offset="1" style="stop-color:#0977BB"/>
				</linearGradient>
				<path class="st7" d="M226.3947,20.7886c-0.0674,0-0.1347,0-0.202,0c-0.0638-0.0197-0.1288-0.036-0.1911-0.0598
					c-0.2194-0.084-0.392-0.2343-0.5437-0.4067c-0.4223-0.48-0.7595-1.0132-0.99-1.6118c-0.2527-0.6562-0.3921-1.3311-0.3487-2.038
					c0.0259-0.4226,0.1278-0.8254,0.3393-1.1922c0.3017-0.5233,0.7446-0.8702,1.3379-1.012
					c0.2403-0.0574,0.4848-0.0822,0.7251-0.0115c0.2401,0.0706,0.4754,0.1575,0.7124,0.2385
					c0.1658,0.0566,0.3311,0.1245,0.5098,0.0656c0.1552-0.0511,0.3083-0.1087,0.461-0.1667
					c0.3483-0.1324,0.6996-0.2329,1.0809-0.1914c0.4872,0.053,0.9143,0.2284,1.261,0.5801c0.074,0.0751,0.1364,0.1617,0.2013,0.2395
					c-0.0974,0.0786-0.1864,0.1433-0.2668,0.2173c-0.0804,0.0741-0.1574,0.1533-0.2269,0.2376
					c-0.3514,0.427-0.4711,0.9172-0.3874,1.4602c0.0496,0.3216,0.1765,0.6088,0.384,0.8605
					c0.1811,0.2197,0.4008,0.3897,0.6558,0.5141c0.0461,0.0225,0.0648,0.0437,0.043,0.0964
					c-0.0615,0.1489-0.1113,0.3029-0.1788,0.4489c-0.2261,0.4896-0.5224,0.9342-0.8877,1.3309
					c-0.136,0.1477-0.2957,0.2673-0.4892,0.3339c-0.2854,0.0983-0.5608,0.0504-0.8336-0.0542
					c-0.1668-0.0639-0.3328-0.1335-0.5047-0.1801c-0.3219-0.0872-0.6396-0.0478-0.9498,0.0669
					c-0.1783,0.0659-0.3563,0.1328-0.5358,0.1953C226.514,20.7693,226.4533,20.776,226.3947,20.7886z"/>
				<linearGradient id="SVGID_9_" gradientUnits="userSpaceOnUse" x1="228.3671" y1="0.9324" x2="228.3671" y2="33.4034">
					<stop  offset="0" style="stop-color:#3BA4DB"/>
					<stop  offset="1" style="stop-color:#0977BB"/>
				</linearGradient>
				<path class="st8" d="M229.2097,12.3569c-0.0014,0.136,0.0137,0.2745-0.0072,0.4074c-0.0756,0.4793-0.301,0.8798-0.6793,1.1857
					c-0.2852,0.2306-0.6078,0.3687-0.9901,0.3445c-0.0196-0.1438-0.0172-0.2872,0.0136-0.4271
					c0.1123-0.5108,0.3825-0.9186,0.8193-1.2085c0.2261-0.1501,0.4741-0.2528,0.7457-0.2905
					c0.0105-0.0015,0.0204-0.0075,0.0306-0.0115C229.1648,12.3569,229.1873,12.3569,229.2097,12.3569z"/>
			</g>
		</g>
		<linearGradient id="SVGID_10_" gradientUnits="userSpaceOnUse" x1="254.1165" y1="1.0519" x2="253.8458" y2="33.6305">
			<stop  offset="0" style="stop-color:#3BA4DB"/>
			<stop  offset="1" style="stop-color:#0977BB"/>
		</linearGradient>
		<path class="st9" d="M260.9012,4.9488h-13.8726c-0.6352,0-1.1549,0.5197-1.1549,1.1549v26.384
			c0,0.6351,0.5197,1.1548,1.1549,1.1548h13.8726c0.6352,0,1.1549-0.5197,1.1549-1.1548V6.1037
			C262.0562,5.4685,261.5364,4.9488,260.9012,4.9488z M252.7254,6.6351h2.4785c0.207,0,0.375,0.168,0.375,0.375
			s-0.168,0.375-0.375,0.375h-2.4785c-0.207,0-0.375-0.168-0.375-0.375S252.5184,6.6351,252.7254,6.6351z M253.9649,32.3048
			c-0.4631,0-0.8386-0.3754-0.8386-0.8386c0-0.4631,0.3755-0.8386,0.8386-0.8386c0.4631,0,0.8386,0.3755,0.8386,0.8386
			C254.8035,31.9293,254.428,32.3048,253.9649,32.3048z M260.8287,29.4048h-13.7276V8.9982h13.7276V29.4048z"/>
	</g>
	<g>
		<linearGradient id="SVGID_11_" gradientUnits="userSpaceOnUse" x1="322.9998" y1="1.2262" x2="323.0901" y2="33.2634">
			<stop  offset="0" style="stop-color:#3BA4DB"/>
			<stop  offset="1" style="stop-color:#0977BB"/>
		</linearGradient>
		<path class="st10" d="M334.6008,0.8994h-23.1116c-0.6352,0-1.1548,0.5197-1.1548,1.1549v30.4334
			c0,0.6351,0.5197,1.1548,1.1548,1.1548h23.1116c0.6351,0,1.1548-0.5197,1.1548-1.1548V2.0543
			C335.7557,1.4192,335.236,0.8994,334.6008,0.8994z M333.5668,30.4187c0,0.3671-0.2977,0.6648-0.6648,0.6648H313.188
			c-0.3672,0-0.6648-0.2977-0.6648-0.6648V3.935c0-0.3671,0.2976-0.6647,0.6648-0.6647h19.7139
			c0.3671,0,0.6648,0.2976,0.6648,0.6647V30.4187z"/>
		<linearGradient id="SVGID_12_" gradientUnits="userSpaceOnUse" x1="349.4239" y1="1.1518" x2="349.5141" y2="33.1889">
			<stop  offset="0" style="stop-color:#3BA4DB"/>
			<stop  offset="1" style="stop-color:#0977BB"/>
		</linearGradient>
		<path class="st11" d="M356.6646,5.7941c-1.3023-0.402-3.9183-1.0529-7.2045-1.0529c-3.2823,0-5.8818,0.6494-7.1769,1.0515
			c-0.5381,0.1671-0.8994,0.6703-0.8994,1.2338v24.444c0,0.6052,0.4131,1.128,1.0032,1.2628
			c1.4846,0.3391,4.3831,0.9093,7.088,0.9093s5.6035-0.5702,7.088-0.9093c0.59-0.1348,1.0032-0.6575,1.0032-1.2628V7.0287
			C357.566,6.4643,357.2039,5.9606,356.6646,5.7941z M350.714,31.848h-2.4785c-0.207,0-0.375-0.168-0.375-0.375
			s0.168-0.375,0.375-0.375h2.4785c0.207,0,0.375,0.168,0.375,0.375S350.921,31.848,350.714,31.848z M356.3577,29.4048H342.592
			V8.9982h13.7657V29.4048z"/>
		<g>
			<g>
				<linearGradient id="SVGID_13_" gradientUnits="userSpaceOnUse" x1="323.3285" y1="0.6475" x2="322.787" y2="33.2262">
					<stop  offset="0" style="stop-color:#3BA4DB"/>
					<stop  offset="1" style="stop-color:#0977BB"/>
				</linearGradient>
				<path class="st12" d="M321.8388,22.5345c-0.0772-0.037-0.1611-0.0645-0.2303-0.1129c-0.1729-0.1209-0.2646-0.2964-0.2686-0.5044
					c-0.0088-0.4541-0.0063-0.9084-0.0076-1.3626c-0.0006-0.1929-0.0013-0.1611-0.1621-0.163
					c-0.1449-0.0018-0.2899,0.0005-0.4348,0.0002c-0.3021-0.0006-0.547-0.2398-0.551-0.5421
					c-0.003-0.2285-0.0007-0.457-0.0007-0.6856c0-1.1566,0.0008-2.3131-0.0019-3.4697c-0.0002-0.0812,0.0228-0.1036,0.1025-0.1035
					c1.8421,0.0018,3.6843,0.0017,5.5264-0.0002c0.0753-0.0001,0.0926,0.0254,0.0925,0.097
					c-0.0015,1.3656-0.0052,2.7312,0.0035,4.0967c0.002,0.3118-0.1977,0.5134-0.371,0.5775
					c-0.0558,0.0206-0.1192,0.0266-0.1794,0.0279c-0.1671,0.0035-0.3345,0.0049-0.5016-0.0008
					c-0.0761-0.0026-0.0941,0.0249-0.0937,0.0958c0.0025,0.4347,0.0026,0.8695,0.0006,1.3043
					c-0.0008,0.1778-0.0302,0.3472-0.1433,0.4957c-0.0846,0.111-0.1915,0.1826-0.3204,0.2272
					c-0.0176,0.0061-0.0343,0.0149-0.0514,0.0224c-0.0669,0-0.1338,0-0.2007,0c-0.0251-0.0105-0.0499-0.0221-0.0756-0.0312
					c-0.1213-0.043-0.218-0.1162-0.2965-0.2194c-0.1115-0.1464-0.1343-0.3139-0.1344-0.4893
					c-0.0001-0.4125,0.0001-0.8249-0.0009-1.2374c-0.0001-0.0518-0.0069-0.1036-0.0111-0.1629c-0.0392,0-0.0693,0-0.0995,0
					c-0.2285,0-0.457,0-0.6855,0c-0.1945,0-0.195,0-0.1953,0.1983c-0.0005,0.4208-0.0009,0.8416-0.0005,1.2625
					c0.0002,0.2081-0.0622,0.393-0.2268,0.5247c-0.0822,0.0658-0.1864,0.104-0.2806,0.1546
					C321.9726,22.5345,321.9057,22.5345,321.8388,22.5345z"/>
				<linearGradient id="SVGID_14_" gradientUnits="userSpaceOnUse" x1="323.2737" y1="0.6466" x2="322.7323" y2="33.2253">
					<stop  offset="0" style="stop-color:#3BA4DB"/>
					<stop  offset="1" style="stop-color:#0977BB"/>
				</linearGradient>
				<path class="st13" d="M324.8478,11.3176c0.0425,0.0317,0.038,0.0678,0.014,0.1094c-0.1378,0.2384-0.2742,0.4776-0.412,0.716
					c-0.0563,0.0974-0.0583,0.0985,0.0369,0.1505c0.359,0.196,0.668,0.4519,0.9123,0.7799c0.2666,0.358,0.4217,0.7622,0.4685,1.2069
					c0.0018,0.0166,0.0017,0.0334,0.0038,0.05c0.0252,0.1962,0.0251,0.1791-0.1659,0.1791
					c-1.7918,0.0003-3.5836,0.0002-5.3755,0.0001c-0.1334,0-0.1295,0.0002-0.1206-0.1302c0.0223-0.3291,0.1035-0.6412,0.2518-0.9366
					c0.1674-0.3336,0.3948-0.6194,0.6887-0.8477c0.1661-0.129,0.3467-0.2392,0.5316-0.3652
					c-0.045-0.0811-0.0919-0.1684-0.1411-0.2543c-0.1038-0.1809-0.2108-0.36-0.3112-0.5427
					c-0.017-0.0309-0.0072-0.0764-0.0099-0.1152c0.0223,0,0.0446,0,0.0669,0c0.1365,0.2384,0.2729,0.477,0.4096,0.7153
					c0.0915,0.1595,0.0916,0.1595,0.2668,0.099c0.021-0.0073,0.0418-0.0154,0.0627-0.023c0.4599-0.1667,0.9336-0.1987,1.4159-0.1445
					c0.2729,0.0307,0.5342,0.1076,0.7886,0.2081c0.0465,0.0184,0.0711,0.0108,0.0946-0.0311
					c0.0612-0.1091,0.1237-0.2176,0.1879-0.325c0.0997-0.1668,0.2013-0.3326,0.3021-0.4988
					C324.8256,11.3176,324.8367,11.3176,324.8478,11.3176z"/>
				<g>
					<linearGradient id="SVGID_15_" gradientUnits="userSpaceOnUse" x1="318.9532" y1="0.5748" x2="318.4117" y2="33.1535">
						<stop  offset="0" style="stop-color:#3BA4DB"/>
						<stop  offset="1" style="stop-color:#0977BB"/>
					</linearGradient>
					<path class="st14" d="M318.062,17.4583c0-0.4123-0.0014-0.8246,0.0006-1.2369c0.0012-0.2378,0.0797-0.4407,0.2783-0.5869
						c0.2635-0.1941,0.652-0.1156,0.8243,0.1646c0.0797,0.1297,0.117,0.2685,0.117,0.4192c0,0.8329,0.0004,1.6659,0.0001,2.4988
						c-0.0001,0.2408-0.0775,0.4458-0.2742,0.5979c-0.2267,0.1752-0.5759,0.1377-0.762-0.081
						c-0.1267-0.149-0.1846-0.3198-0.1843-0.5137C318.0625,18.2996,318.062,17.8789,318.062,17.4583z"/>
					<linearGradient id="SVGID_16_" gradientUnits="userSpaceOnUse" x1="327.6937" y1="0.7201" x2="327.1522" y2="33.2987">
						<stop  offset="0" style="stop-color:#3BA4DB"/>
						<stop  offset="1" style="stop-color:#0977BB"/>
					</linearGradient>
					<path class="st15" d="M328.026,17.4425c0.0001,0.4178,0.0012,0.8356-0.0004,1.2534c-0.0009,0.2368-0.0778,0.4388-0.2705,0.591
						c-0.2222,0.1755-0.5754,0.1424-0.7636-0.0734c-0.1269-0.1455-0.1858-0.313-0.1858-0.5041
						c0.0003-0.8328,0.0006-1.6656-0.0002-2.4984c-0.0002-0.2383,0.0706-0.4449,0.2676-0.5911
						c0.3101-0.2301,0.7412-0.1082,0.8849,0.2545c0.0399,0.1009,0.063,0.2148,0.0649,0.3232
						C328.0304,16.6125,328.026,17.0275,328.026,17.4425z"/>
				</g>
			</g>
		</g>
		<g>
			<g>
				<linearGradient id="SVGID_17_" gradientUnits="userSpaceOnUse" x1="349.7911" y1="1.0874" x2="349.2496" y2="33.666">
					<stop  offset="0" style="stop-color:#3BA4DB"/>
					<stop  offset="1" style="stop-color:#0977BB"/>
				</linearGradient>
				<path class="st16" d="M348.2693,24.9042c-0.0772-0.037-0.1611-0.0645-0.2303-0.1129c-0.1729-0.1209-0.2646-0.2964-0.2686-0.5044
					c-0.0088-0.4541-0.0063-0.9084-0.0076-1.3626c-0.0006-0.1929-0.0013-0.1611-0.1621-0.163
					c-0.1449-0.0018-0.2898,0.0005-0.4348,0.0002c-0.3021-0.0006-0.547-0.2398-0.5509-0.5421
					c-0.003-0.2285-0.0007-0.457-0.0007-0.6856c0-1.1566,0.0008-2.3131-0.0019-3.4697c-0.0002-0.0812,0.0228-0.1036,0.1025-0.1035
					c1.8421,0.0018,3.6843,0.0017,5.5264-0.0002c0.0753-0.0001,0.0926,0.0254,0.0925,0.097
					c-0.0015,1.3656-0.0052,2.7312,0.0036,4.0967c0.002,0.3118-0.1977,0.5134-0.371,0.5775
					c-0.0558,0.0206-0.1192,0.0266-0.1794,0.0279c-0.1671,0.0035-0.3345,0.0049-0.5016-0.0008
					c-0.0761-0.0026-0.0941,0.0249-0.0937,0.0958c0.0025,0.4347,0.0026,0.8695,0.0006,1.3043
					c-0.0008,0.1778-0.0302,0.3472-0.1433,0.4957c-0.0846,0.111-0.1915,0.1826-0.3204,0.2272
					c-0.0176,0.0061-0.0343,0.0149-0.0514,0.0224c-0.0669,0-0.1338,0-0.2007,0c-0.0252-0.0105-0.0499-0.0221-0.0756-0.0312
					c-0.1213-0.043-0.2179-0.1162-0.2965-0.2194c-0.1115-0.1464-0.1343-0.3139-0.1344-0.4893
					c-0.0001-0.4125,0.0001-0.8249-0.0009-1.2374c-0.0001-0.0518-0.0069-0.1036-0.0111-0.1629c-0.0392,0-0.0693,0-0.0994,0
					c-0.2285,0-0.4571,0-0.6856,0c-0.1945,0-0.195,0-0.1953,0.1983c-0.0005,0.4208-0.0009,0.8416-0.0005,1.2625
					c0.0002,0.2081-0.0622,0.393-0.2268,0.5247c-0.0822,0.0658-0.1864,0.104-0.2806,0.1546
					C348.403,24.9042,348.3362,24.9042,348.2693,24.9042z"/>
				<linearGradient id="SVGID_18_" gradientUnits="userSpaceOnUse" x1="349.7363" y1="1.0864" x2="349.1949" y2="33.6651">
					<stop  offset="0" style="stop-color:#3BA4DB"/>
					<stop  offset="1" style="stop-color:#0977BB"/>
				</linearGradient>
				<path class="st17" d="M351.2784,13.6873c0.0424,0.0317,0.038,0.0678,0.014,0.1094c-0.1378,0.2384-0.2741,0.4776-0.4119,0.716
					c-0.0563,0.0974-0.0583,0.0985,0.0369,0.1505c0.359,0.196,0.668,0.4519,0.9123,0.7799c0.2666,0.358,0.4217,0.7622,0.4686,1.2069
					c0.0017,0.0166,0.0017,0.0334,0.0038,0.05c0.0252,0.1962,0.0251,0.1791-0.1659,0.1791
					c-1.7918,0.0003-3.5836,0.0002-5.3755,0.0001c-0.1334,0-0.1295,0.0002-0.1206-0.1302c0.0223-0.3291,0.1035-0.6412,0.2518-0.9366
					c0.1674-0.3336,0.3947-0.6194,0.6887-0.8477c0.1661-0.129,0.3467-0.2392,0.5316-0.3652
					c-0.045-0.0811-0.0919-0.1684-0.1411-0.2543c-0.1038-0.1809-0.2109-0.36-0.3112-0.5427
					c-0.017-0.0309-0.0072-0.0764-0.0098-0.1152c0.0223,0,0.0446,0,0.0669,0c0.1365,0.2384,0.2729,0.477,0.4096,0.7153
					c0.0915,0.1595,0.0916,0.1595,0.2668,0.099c0.0211-0.0073,0.0418-0.0154,0.0627-0.023
					c0.4599-0.1667,0.9336-0.1987,1.4159-0.1445c0.2729,0.0307,0.5342,0.1076,0.7886,0.2081
					c0.0465,0.0184,0.0711,0.0108,0.0946-0.0311c0.0612-0.1091,0.1237-0.2176,0.1879-0.325
					c0.0997-0.1668,0.2013-0.3326,0.3021-0.4988C351.256,13.6873,351.2672,13.6873,351.2784,13.6873z"/>
				<g>
					<linearGradient id="SVGID_19_" gradientUnits="userSpaceOnUse" x1="345.4158" y1="1.0146" x2="344.8743" y2="33.5933">
						<stop  offset="0" style="stop-color:#3BA4DB"/>
						<stop  offset="1" style="stop-color:#0977BB"/>
					</linearGradient>
					<path class="st18" d="M344.4925,19.828c0-0.4123-0.0014-0.8246,0.0006-1.2369c0.0012-0.2378,0.0797-0.4407,0.2783-0.5869
						c0.2635-0.1941,0.652-0.1156,0.8243,0.1646c0.0797,0.1297,0.117,0.2685,0.117,0.4192c0,0.8329,0.0004,1.6659,0.0001,2.4988
						c-0.0001,0.2408-0.0775,0.4458-0.2742,0.5979c-0.2267,0.1752-0.5759,0.1377-0.762-0.081
						c-0.1268-0.149-0.1846-0.3198-0.1843-0.5137C344.493,20.6693,344.4925,20.2486,344.4925,19.828z"/>
					<linearGradient id="SVGID_20_" gradientUnits="userSpaceOnUse" x1="354.1562" y1="1.1599" x2="353.6147" y2="33.7386">
						<stop  offset="0" style="stop-color:#3BA4DB"/>
						<stop  offset="1" style="stop-color:#0977BB"/>
					</linearGradient>
					<path class="st19" d="M354.4565,19.8122c0.0001,0.4178,0.0013,0.8356-0.0004,1.2534c-0.0009,0.2368-0.0778,0.4388-0.2705,0.591
						c-0.2222,0.1755-0.5754,0.1424-0.7636-0.0734c-0.1269-0.1455-0.1858-0.313-0.1857-0.5041
						c0.0002-0.8328,0.0005-1.6656-0.0002-2.4983c-0.0002-0.2383,0.0706-0.4449,0.2676-0.5911
						c0.3101-0.2301,0.7412-0.1082,0.8849,0.2545c0.0399,0.1009,0.063,0.2148,0.0649,0.3232
						C354.4608,18.9822,354.4565,19.3972,354.4565,19.8122z"/>
				</g>
			</g>
		</g>
	</g>
	<g>
		<linearGradient id="SVGID_21_" gradientUnits="userSpaceOnUse" x1="424.0255" y1="0.7636" x2="424.0255" y2="33.5068">
			<stop  offset="0" style="stop-color:#3BA4DB"/>
			<stop  offset="1" style="stop-color:#0977BB"/>
		</linearGradient>
		<path class="st20" d="M439.5253,0.7636h-30.9998c-0.9692,0-1.7622,0.793-1.7622,1.7623v29.2187
			c0,0.9692,0.793,1.7622,1.7622,1.7622h30.9998c0.9692,0,1.7623-0.793,1.7623-1.7622V2.5259
			C441.2876,1.5567,440.4946,0.7636,439.5253,0.7636z M418.2448,2.8108c0.4631,0,0.8386,0.3754,0.8386,0.8386
			s-0.3755,0.8386-0.8386,0.8386c-0.4631,0-0.8386-0.3754-0.8386-0.8386S417.7816,2.8108,418.2448,2.8108z M414.329,2.8108
			c0.4631,0,0.8386,0.3754,0.8386,0.8386s-0.3754,0.8386-0.8386,0.8386s-0.8386-0.3754-0.8386-0.8386
			S413.8659,2.8108,414.329,2.8108z M410.4133,2.8108c0.4631,0,0.8386,0.3754,0.8386,0.8386s-0.3754,0.8386-0.8386,0.8386
			s-0.8386-0.3754-0.8386-0.8386S409.9502,2.8108,410.4133,2.8108z M440.1605,31.3369h-32.2702V6.6176h32.2702V31.3369z"/>
		<g>
			<linearGradient id="SVGID_22_" gradientUnits="userSpaceOnUse" x1="423.2353" y1="0.8227" x2="424.6539" y2="33.3207">
				<stop  offset="0" style="stop-color:#3BA4DB"/>
				<stop  offset="1" style="stop-color:#0977BB"/>
			</linearGradient>
			<path class="st21" d="M429.2175,25.9446h-10.3838c-1.0068,0-1.8262-0.8193-1.8262-1.8262V13.7357
				c0-1.0078,0.8193-1.8271,1.8262-1.8271h10.3838c1.0068,0,1.8262,0.8193,1.8262,1.8271v10.3828
				C431.0436,25.1253,430.2243,25.9446,429.2175,25.9446z M418.8337,12.6585c-0.5938,0-1.0762,0.4834-1.0762,1.0771v10.3828
				c0,0.5938,0.4824,1.0762,1.0762,1.0762h10.3838c0.5938,0,1.0762-0.4824,1.0762-1.0762V13.7357
				c0-0.5938-0.4824-1.0771-1.0762-1.0771H418.8337z"/>
			<linearGradient id="SVGID_23_" gradientUnits="userSpaceOnUse" x1="423.0478" y1="0.8309" x2="424.4664" y2="33.3289">
				<stop  offset="0" style="stop-color:#3BA4DB"/>
				<stop  offset="1" style="stop-color:#0977BB"/>
			</linearGradient>
			<path class="st22" d="M423.9032,20.696c0.1198-2.51,4.5524-4.404,4.5524-6.1243c0-1.4017-2.7483-2.0692-3.9015-2.2877h-0.7593
				c5.7305,1.7627,2.4572,3.0867,0.6475,3.9382c-1.8269,0.8596-4.6408,2.0163-5.4509,4.5387
				c-0.7855,2.4458,0.4804,4.0727,1.2774,4.8089h9.1025C425.6233,24.4866,423.799,22.8793,423.9032,20.696z"/>
		</g>
	</g>
	<g>
		<linearGradient id="SVGID_24_" gradientUnits="userSpaceOnUse" x1="137.7228" y1="0.365" x2="137.7228" y2="33.1748">
			<stop  offset="0" style="stop-color:#3BA4DB"/>
			<stop  offset="1" style="stop-color:#0977BB"/>
		</linearGradient>
		<path class="st23" d="M159.1328,0.7497h-42.8199c-0.5536,0-1.0065,0.4529-1.0065,1.0065v28.147h44.8329V1.7562
			C160.1393,1.2026,159.6864,0.7497,159.1328,0.7497z M156.8464,26.3016h-38.2471V4.2218h38.2471V26.3016z"/>
		<g>
			<linearGradient id="SVGID_25_" gradientUnits="userSpaceOnUse" x1="139.2844" y1="0.4995" x2="140.4271" y2="33.3092">
				<stop  offset="0" style="stop-color:#3BA4DB"/>
				<stop  offset="1" style="stop-color:#0977BB"/>
			</linearGradient>
			<polygon class="st24" points="137.5413,15.6767 141.9476,15.6767 141.9476,11.7407 137.5413,12.3271 			"/>
			<linearGradient id="SVGID_26_" gradientUnits="userSpaceOnUse" x1="134.6832" y1="0.6597" x2="135.8258" y2="33.4694">
				<stop  offset="0" style="stop-color:#3BA4DB"/>
				<stop  offset="1" style="stop-color:#0977BB"/>
			</linearGradient>
			<polygon class="st25" points="136.801,15.6767 136.801,12.4256 133.4981,12.8652 133.4981,15.6767 			"/>
			<linearGradient id="SVGID_27_" gradientUnits="userSpaceOnUse" x1="139.1344" y1="0.5047" x2="140.2771" y2="33.3144">
				<stop  offset="0" style="stop-color:#3BA4DB"/>
				<stop  offset="1" style="stop-color:#0977BB"/>
			</linearGradient>
			<polygon class="st26" points="137.5413,16.4169 137.5413,19.6253 141.9476,20.2117 141.9476,16.4169 			"/>
			<linearGradient id="SVGID_28_" gradientUnits="userSpaceOnUse" x1="134.5544" y1="0.6642" x2="135.6971" y2="33.4739">
				<stop  offset="0" style="stop-color:#3BA4DB"/>
				<stop  offset="1" style="stop-color:#0977BB"/>
			</linearGradient>
			<polygon class="st27" points="136.801,16.4169 133.4981,16.4169 133.4981,19.0872 136.801,19.5267 			"/>
		</g>
		<linearGradient id="SVGID_29_" gradientUnits="userSpaceOnUse" x1="137.7228" y1="0.365" x2="137.7228" y2="33.1747">
			<stop  offset="0" style="stop-color:#3BA4DB"/>
			<stop  offset="1" style="stop-color:#0977BB"/>
		</linearGradient>
		<path class="st28" d="M110.5688,31.0529c-1.6583,0-1.7639,2.5622-0.1058,2.5894c0.0142,0.0002,0.0284,0.0003,0.0426,0.0003
			h54.4345c0.0142,0,0.0285-0.0001,0.0426-0.0003c1.6581-0.0271,1.5525-2.5894-0.1058-2.5894H110.5688z"/>
	</g>
</g>
</svg>
