<?xml version="1.0" encoding="utf-8"?>
<!-- Generator: Adobe Illustrator 23.0.0, SVG Export Plug-In . SVG Version: 6.00 Build 0)  -->
<svg version="1.1" xmlns="http://www.w3.org/2000/svg" xmlns:xlink="http://www.w3.org/1999/xlink" x="0px" y="0px"
	 viewBox="0 0 155.2 40" style="enable-background:new 0 0 155.2 40;" xml:space="preserve">
<style type="text/css">
	.st0{fill:#A6A6A6;}
	.st1{fill:#FFFFFF;stroke:#FFFFFF;stroke-width:0.2;stroke-miterlimit:10;}
	.st2{fill:#FFFFFF;}
	.st3{fill:url(#SVGID_1_);}
	.st4{fill:url(#SVGID_2_);}
	.st5{fill:url(#SVGID_3_);}
	.st6{fill:url(#SVGID_4_);}
	.st7{opacity:0.2;enable-background:new    ;}
	.st8{opacity:0.12;enable-background:new    ;}
	.st9{opacity:0.25;fill:#FFFFFF;enable-background:new    ;}
</style>
<g id="livetype">
	<g>
		<path d="M7.6,38.5c-3.4,0-6.1-2.8-6.1-6.1V7.6c0-3.4,2.8-6.1,6.1-6.1h139.9c3.4,0,6.1,2.8,6.1,6.1v24.7c0,3.4-2.8,6.1-6.1,6.1H7.6
			z"/>
		<path class="st0" d="M147.5,2c3.1,0,5.6,2.5,5.6,5.6v24.7c0,3.1-2.5,5.6-5.6,5.6H7.6C4.5,38,2,35.5,2,32.4V7.6C2,4.5,4.5,2,7.6,2
			H147.5 M147.5,1H7.6C4,1,1,4,1,7.6v24.7C1,36,4,39,7.6,39h139.9c3.7,0,6.6-3,6.6-6.6V7.6C154.2,4,151.2,1,147.5,1L147.5,1z"/>
	</g>
	<title>Download_on_the_App_Store_Badge_US-UK_RGB_blk_4SVG_092917</title>
</g>
<g id="artwork">
	<g>
		<g>
			<path class="st1" d="M57.1,10.8c0,0.8-0.2,1.5-0.7,2c-0.6,0.6-1.3,0.9-2.2,0.9c-0.9,0-1.6-0.3-2.2-0.9c-0.6-0.6-0.9-1.3-0.9-2.2
				c0-0.9,0.3-1.6,0.9-2.2c0.6-0.6,1.3-0.9,2.2-0.9c0.4,0,0.8,0.1,1.2,0.3c0.4,0.2,0.7,0.4,0.9,0.7l-0.5,0.5
				c-0.4-0.5-0.9-0.7-1.6-0.7c-0.6,0-1.2,0.2-1.6,0.7c-0.5,0.4-0.7,1-0.7,1.7c0,0.7,0.2,1.3,0.7,1.7c0.5,0.4,1,0.7,1.6,0.7
				c0.7,0,1.2-0.2,1.7-0.7c0.3-0.3,0.5-0.7,0.5-1.2h-2.2v-0.7h2.9C57.1,10.5,57.1,10.6,57.1,10.8z"/>
			<path class="st1" d="M61.7,8.3H59v1.9h2.5v0.7H59v1.9h2.7v0.7h-3.5v-6h3.5V8.3z"/>
			<path class="st1" d="M65,13.5h-0.8V8.3h-1.7V7.5h4.1v0.7H65V13.5z"/>
			<path class="st1" d="M69.6,13.5v-6h0.8v6H69.6z"/>
			<path class="st1" d="M73.8,13.5h-0.8V8.3h-1.7V7.5h4.1v0.7h-1.7V13.5z"/>
			<path class="st1" d="M83.3,12.8c-0.6,0.6-1.3,0.9-2.2,0.9c-0.9,0-1.6-0.3-2.2-0.9c-0.6-0.6-0.9-1.3-0.9-2.2
				c0-0.9,0.3-1.6,0.9-2.2c0.6-0.6,1.3-0.9,2.2-0.9c0.9,0,1.6,0.3,2.2,0.9c0.6,0.6,0.9,1.3,0.9,2.2C84.2,11.4,83.9,12.1,83.3,12.8z
				 M79.5,12.3c0.4,0.4,1,0.7,1.6,0.7c0.6,0,1.2-0.2,1.6-0.7c0.4-0.4,0.7-1,0.7-1.7c0-0.7-0.2-1.3-0.7-1.7c-0.4-0.4-1-0.7-1.6-0.7
				c-0.6,0-1.2,0.2-1.6,0.7c-0.4,0.4-0.7,1-0.7,1.7C78.8,11.2,79,11.8,79.5,12.3z"/>
			<path class="st1" d="M85.3,13.5v-6h0.9l2.9,4.7h0l0-1.2V7.5h0.8v6h-0.8l-3.1-4.9h0l0,1.2v3.7H85.3z"/>
		</g>
		<path class="st2" d="M77.8,22.3c-2.4,0-4.3,1.8-4.3,4.3c0,2.4,1.9,4.3,4.3,4.3c2.4,0,4.3-1.8,4.3-4.3
			C82.1,24.1,80.2,22.3,77.8,22.3z M77.8,29.1c-1.3,0-2.4-1.1-2.4-2.6c0-1.5,1.1-2.6,2.4-2.6c1.3,0,2.4,1,2.4,2.6
			C80.2,28,79.1,29.1,77.8,29.1z M68.5,22.3c-2.4,0-4.3,1.8-4.3,4.3c0,2.4,1.9,4.3,4.3,4.3c2.4,0,4.3-1.8,4.3-4.3
			C72.8,24.1,70.9,22.3,68.5,22.3z M68.5,29.1c-1.3,0-2.4-1.1-2.4-2.6c0-1.5,1.1-2.6,2.4-2.6c1.3,0,2.4,1,2.4,2.6
			C70.9,28,69.8,29.1,68.5,29.1z M57.4,23.6v1.8h4.3c-0.1,1-0.5,1.8-1,2.3c-0.6,0.6-1.6,1.3-3.3,1.3c-2.7,0-4.7-2.1-4.7-4.8
			s2.1-4.8,4.7-4.8c1.4,0,2.5,0.6,3.3,1.3l1.3-1.3c-1.1-1-2.5-1.8-4.5-1.8c-3.6,0-6.7,3-6.7,6.6c0,3.6,3.1,6.6,6.7,6.6
			c2,0,3.4-0.6,4.6-1.9c1.2-1.2,1.6-2.9,1.6-4.2c0-0.4,0-0.8-0.1-1.1H57.4z M102.8,25c-0.4-1-1.4-2.7-3.6-2.7c-2.2,0-4,1.7-4,4.3
			c0,2.4,1.8,4.3,4.2,4.3c1.9,0,3.1-1.2,3.5-1.9l-1.4-1c-0.5,0.7-1.1,1.2-2.1,1.2c-1,0-1.6-0.4-2.1-1.3l5.7-2.4L102.8,25z M97,26.4
			c0-1.6,1.3-2.5,2.2-2.5c0.7,0,1.4,0.4,1.6,0.9L97,26.4z M92.3,30.5h1.9V18h-1.9V30.5z M89.3,23.2L89.3,23.2c-0.5-0.5-1.3-1-2.3-1
			c-2.1,0-4.1,1.9-4.1,4.3c0,2.4,1.9,4.2,4.1,4.2c1,0,1.8-0.5,2.2-1h0.1v0.6c0,1.6-0.9,2.5-2.3,2.5c-1.1,0-1.9-0.8-2.1-1.5l-1.6,0.7
			c0.5,1.1,1.7,2.5,3.8,2.5c2.2,0,4-1.3,4-4.4v-7.6h-1.8V23.2z M87.1,29.1c-1.3,0-2.4-1.1-2.4-2.6c0-1.5,1.1-2.6,2.4-2.6
			c1.3,0,2.3,1.1,2.3,2.6C89.4,28,88.4,29.1,87.1,29.1z M111.5,18H107v12.5h1.9v-4.7h2.6c2.1,0,4.1-1.5,4.1-3.9S113.6,18,111.5,18z
			 M111.6,24.1h-2.7v-4.3h2.7c1.4,0,2.2,1.2,2.2,2.1C113.7,22.9,113,24.1,111.6,24.1z M123.1,22.3c-1.4,0-2.8,0.6-3.3,1.9l1.7,0.7
			c0.4-0.7,1-0.9,1.7-0.9c1,0,1.9,0.6,2,1.6v0.1c-0.3-0.2-1.1-0.5-1.9-0.5c-1.8,0-3.6,1-3.6,2.8c0,1.7,1.5,2.8,3.1,2.8
			c1.3,0,1.9-0.6,2.4-1.2h0.1v1h1.8v-4.8C126.9,23.5,125.2,22.3,123.1,22.3z M122.9,29.1c-0.6,0-1.5-0.3-1.5-1.1c0-1,1.1-1.3,2-1.3
			c0.8,0,1.2,0.2,1.7,0.4C124.9,28.3,123.9,29.1,122.9,29.1z M133.4,22.5l-2.1,5.4h-0.1l-2.2-5.4h-2l3.3,7.6l-1.9,4.2h1.9l5.1-11.8
			H133.4z M116.6,30.5h1.9V18h-1.9V30.5z"/>
		<g>
			
				<linearGradient id="SVGID_1_" gradientUnits="userSpaceOnUse" x1="31.5044" y1="32.7612" x2="14.722" y2="15.9788" gradientTransform="matrix(1 0 0 -1 0 42)">
				<stop  offset="0" style="stop-color:#00A0FF"/>
				<stop  offset="6.574450e-03" style="stop-color:#00A1FF"/>
				<stop  offset="0.2601" style="stop-color:#00BEFF"/>
				<stop  offset="0.5122" style="stop-color:#00D2FF"/>
				<stop  offset="0.7604" style="stop-color:#00DFFF"/>
				<stop  offset="1" style="stop-color:#00E3FF"/>
			</linearGradient>
			<path class="st3" d="M20.1,8.1c-0.3,0.3-0.5,0.8-0.5,1.4v22.1c0,0.6,0.2,1.1,0.5,1.4l0.1,0.1l12.4-12.4v-0.1v-0.1L20.1,8.1
				L20.1,8.1z"/>
			
				<linearGradient id="SVGID_2_" gradientUnits="userSpaceOnUse" x1="43.539" y1="21.4694" x2="19.3421" y2="21.4694" gradientTransform="matrix(1 0 0 -1 0 42)">
				<stop  offset="0" style="stop-color:#FFE000"/>
				<stop  offset="0.4087" style="stop-color:#FFBD00"/>
				<stop  offset="0.7754" style="stop-color:#FFA500"/>
				<stop  offset="1" style="stop-color:#FF9C00"/>
			</linearGradient>
			<path class="st4" d="M36.7,24.8l-4.1-4.1v-0.1v-0.1l4.1-4.1l0.1,0.1l4.9,2.8c1.4,0.8,1.4,2.1,0,2.9L36.7,24.8L36.7,24.8z"/>
			
				<linearGradient id="SVGID_3_" gradientUnits="userSpaceOnUse" x1="34.5316" y1="19.1748" x2="11.7733" y2="-3.5835" gradientTransform="matrix(1 0 0 -1 0 42)">
				<stop  offset="0" style="stop-color:#FF3A44"/>
				<stop  offset="1" style="stop-color:#C31162"/>
			</linearGradient>
			<path class="st5" d="M36.8,24.8l-4.2-4.2L20.1,33c0.5,0.5,1.2,0.5,2.1,0.1L36.8,24.8"/>
			
				<linearGradient id="SVGID_4_" gradientUnits="userSpaceOnUse" x1="17.002" y1="41.2947" x2="27.1645" y2="31.1322" gradientTransform="matrix(1 0 0 -1 0 42)">
				<stop  offset="0" style="stop-color:#32A071"/>
				<stop  offset="6.850000e-02" style="stop-color:#2DA771"/>
				<stop  offset="0.4762" style="stop-color:#15CF74"/>
				<stop  offset="0.8009" style="stop-color:#06E775"/>
				<stop  offset="1" style="stop-color:#00F076"/>
			</linearGradient>
			<path class="st6" d="M36.8,16.3L22.2,8c-0.9-0.5-1.6-0.4-2.1,0.1l12.5,12.5L36.8,16.3z"/>
			<g>
				<path class="st7" d="M36.7,24.7l-14.5,8.2c-0.8,0.5-1.5,0.4-2,0l0,0L20.1,33l0,0l0.1,0.1l0,0c0.5,0.4,1.2,0.5,2,0L36.7,24.7
					L36.7,24.7z"/>
				<path class="st8" d="M20.1,32.8c-0.3-0.3-0.5-0.8-0.5-1.4v0.1c0,0.6,0.2,1.1,0.5,1.4V32.8L20.1,32.8z"/>
			</g>
			<path class="st8" d="M41.7,21.8l-5,2.8l0.1,0.1l4.9-2.8c0.7-0.4,1-0.9,1-1.4l0,0C42.7,21,42.4,21.5,41.7,21.8z"/>
			<path class="st9" d="M22.2,8.2l19.5,11.1c0.6,0.4,1,0.8,1,1.3l0,0c0-0.5-0.3-1-1-1.4L22.2,8c-1.4-0.8-2.5-0.1-2.5,1.5v0.1
				C19.7,8,20.8,7.4,22.2,8.2z"/>
		</g>
	</g>
</g>
</svg>
