<?xml version="1.0" encoding="utf-8"?>
<!-- Generator: Adobe Illustrator 23.0.0, SVG Export Plug-In . SVG Version: 6.00 Build 0)  -->
<svg version="1.1" id="Layer_1" xmlns="http://www.w3.org/2000/svg" xmlns:xlink="http://www.w3.org/1999/xlink" x="0px" y="0px"
	 viewBox="0 0 48 33.5" style="enable-background:new 0 0 48 33.5;" xml:space="preserve">
<style type="text/css">
	.st0{fill:#3994DC;}
</style>
<path class="st0" d="M24.6,33.5H1.5C0.7,33.5,0,32.8,0,32V1.5C0,0.7,0.7,0,1.5,0h23.1c0.8,0,1.5,0.7,1.5,1.5V32
	C26.2,32.8,25.5,33.5,24.6,33.5z M1.5,0.8c-0.4,0-0.8,0.3-0.8,0.8V32c0,0.4,0.3,0.8,0.8,0.8h23.1c0.4,0,0.8-0.3,0.8-0.8V1.5
	c0-0.4-0.3-0.8-0.8-0.8H1.5z"/>
<path class="st0" d="M23.4,29.3H2.8V4h20.6V29.3z M3.5,28.5h19.1V4.8H3.5V28.5z"/>
<circle class="st0" cx="13.1" cy="30.9" r="0.8"/>
<path class="st0" d="M14.3,2.8h-2.5c-0.2,0-0.4-0.2-0.4-0.4s0.2-0.4,0.4-0.4h2.5c0.2,0,0.4,0.2,0.4,0.4S14.5,2.8,14.3,2.8z"/>
<g>
	<g>
		<path class="st0" d="M38.4,22.9c-0.1,0-0.1,0-0.2,0c-0.1,0-0.1,0-0.2-0.1c-0.2-0.1-0.4-0.2-0.5-0.4c-0.4-0.5-0.8-1-1-1.6
			c-0.3-0.7-0.4-1.3-0.3-2c0-0.4,0.1-0.8,0.3-1.2c0.3-0.5,0.7-0.9,1.3-1c0.2-0.1,0.5-0.1,0.7,0c0.2,0.1,0.5,0.2,0.7,0.2
			c0.2,0.1,0.3,0.1,0.5,0.1c0.2-0.1,0.3-0.1,0.5-0.2c0.3-0.1,0.7-0.2,1.1-0.2c0.5,0.1,0.9,0.2,1.3,0.6c0.1,0.1,0.1,0.2,0.2,0.2
			c-0.1,0.1-0.2,0.1-0.3,0.2c-0.1,0.1-0.2,0.2-0.2,0.2c-0.4,0.4-0.5,0.9-0.4,1.5c0,0.3,0.2,0.6,0.4,0.9c0.2,0.2,0.4,0.4,0.7,0.5
			c0,0,0.1,0,0,0.1c-0.1,0.1-0.1,0.3-0.2,0.4c-0.2,0.5-0.5,0.9-0.9,1.3c-0.1,0.1-0.3,0.3-0.5,0.3c-0.3,0.1-0.6,0.1-0.8-0.1
			c-0.2-0.1-0.3-0.1-0.5-0.2c-0.3-0.1-0.6,0-0.9,0.1c-0.2,0.1-0.4,0.1-0.5,0.2C38.5,22.9,38.4,22.9,38.4,22.9z"/>
		<path class="st0" d="M41.2,14.5c0,0.1,0,0.3,0,0.4c-0.1,0.5-0.3,0.9-0.7,1.2c-0.3,0.2-0.6,0.4-1,0.3c0-0.1,0-0.3,0-0.4
			c0.1-0.5,0.4-0.9,0.8-1.2C40.6,14.6,40.8,14.5,41.2,14.5C41.1,14.5,41.1,14.5,41.2,14.5C41.1,14.5,41.2,14.5,41.2,14.5z"/>
	</g>
</g>
<g>
	<g>
		<path class="st0" d="M11.9,20.3c-0.1,0-0.1,0-0.2,0c-0.1,0-0.1,0-0.2-0.1c-0.2-0.1-0.4-0.2-0.5-0.4c-0.4-0.5-0.8-1-1-1.6
			c-0.3-0.7-0.4-1.3-0.3-2c0-0.4,0.1-0.8,0.3-1.2c0.3-0.5,0.7-0.9,1.3-1c0.2-0.1,0.5-0.1,0.7,0c0.2,0.1,0.5,0.2,0.7,0.2
			c0.2,0.1,0.3,0.1,0.5,0.1c0.2-0.1,0.3-0.1,0.5-0.2c0.3-0.1,0.7-0.2,1.1-0.2c0.5,0.1,0.9,0.2,1.3,0.6c0.1,0.1,0.1,0.2,0.2,0.2
			c-0.1,0.1-0.2,0.1-0.3,0.2c-0.1,0.1-0.2,0.2-0.2,0.2c-0.4,0.4-0.5,0.9-0.4,1.5c0,0.3,0.2,0.6,0.4,0.9c0.2,0.2,0.4,0.4,0.7,0.5
			c0,0,0.1,0,0,0.1c-0.1,0.1-0.1,0.3-0.2,0.4c-0.2,0.5-0.5,0.9-0.9,1.3c-0.1,0.1-0.3,0.3-0.5,0.3c-0.3,0.1-0.6,0.1-0.8-0.1
			c-0.2-0.1-0.3-0.1-0.5-0.2c-0.3-0.1-0.6,0-0.9,0.1c-0.2,0.1-0.4,0.1-0.5,0.2C12.1,20.2,12,20.3,11.9,20.3z"/>
		<path class="st0" d="M14.8,11.8c0,0.1,0,0.3,0,0.4c-0.1,0.5-0.3,0.9-0.7,1.2c-0.3,0.2-0.6,0.4-1,0.3c0-0.1,0-0.3,0-0.4
			c0.1-0.5,0.4-0.9,0.8-1.2C14.1,12,14.4,11.9,14.8,11.8C14.7,11.8,14.7,11.8,14.8,11.8C14.7,11.8,14.7,11.8,14.8,11.8z"/>
	</g>
</g>
<path class="st0" d="M46.5,33.5H32.6c-0.8,0-1.5-0.7-1.5-1.5V5.6C31,4.7,31.7,4,32.6,4h13.9C47.3,4,48,4.7,48,5.6V32
	C48,32.8,47.3,33.5,46.5,33.5z M32.6,4.8c-0.4,0-0.8,0.3-0.8,0.8V32c0,0.4,0.3,0.8,0.8,0.8h13.9c0.4,0,0.8-0.3,0.8-0.8V5.6
	c0-0.4-0.3-0.8-0.8-0.8H32.6z"/>
<rect x="31.4" y="28.5" class="st0" width="16.2" height="0.8"/>
<rect x="31.4" y="8.1" class="st0" width="16.2" height="0.8"/>
<circle class="st0" cx="39.5" cy="30.9" r="0.8"/>
<path class="st0" d="M40.8,6.9h-2.5c-0.2,0-0.4-0.2-0.4-0.4s0.2-0.4,0.4-0.4h2.5c0.2,0,0.4,0.2,0.4,0.4S41,6.9,40.8,6.9z"/>
</svg>
