<?xml version="1.0" encoding="utf-8"?>
<!-- Generator: Adobe Illustrator 23.0.1, SVG Export Plug-In . SVG Version: 6.00 Build 0)  -->
<svg version="1.1" id="Isolation_Mode" xmlns="http://www.w3.org/2000/svg" xmlns:xlink="http://www.w3.org/1999/xlink" x="0px"
	 y="0px" viewBox="0 0 377.4942 367.6343" style="enable-background:new 0 0 377.4942 367.6343;" xml:space="preserve">
<style type="text/css">
	.st0{fill:#B7C0EB;}
	.st1{fill:url(#XMLID_2_);}
	.st2{enable-background:new    ;}
	.st3{fill:#8BB73E;}
	.st4{fill:#FFFFFF;}
	.st5{fill:url(#SVGID_1_);}
	.st6{fill:url(#SVGID_2_);}
	.st7{fill:url(#SVGID_3_);}
	.st8{fill:url(#SVGID_4_);}
	.st9{fill:#039BE5;}
	.st10{opacity:0.2;}
	.st11{fill:url(#SVGID_5_);}
	.st12{fill:url(#SVGID_6_);}
	.st13{fill:url(#SVGID_7_);}
	.st14{fill:url(#SVGID_8_);}
	.st15{fill:url(#SVGID_9_);}
	.st16{fill:url(#SVGID_10_);}
	.st17{fill:url(#SVGID_11_);}
	.st18{fill:url(#SVGID_12_);}
	.st19{fill:url(#XMLID_3_);}
	.st20{fill:#72932A;}
	.st21{opacity:0.3;fill:url(#SVGID_13_);}
	.st22{opacity:0.3;fill:url(#SVGID_14_);}
	.st23{opacity:0.3;}
	.st24{fill:url(#SVGID_15_);}
	.st25{opacity:0.3;fill:url(#SVGID_16_);}
	.st26{opacity:0.3;fill:url(#SVGID_17_);}
	.st27{fill:url(#SVGID_18_);}
	.st28{opacity:0.3;fill:url(#SVGID_19_);}
	.st29{opacity:0.3;fill:url(#SVGID_20_);}
	.st30{fill:url(#SVGID_21_);}
	.st31{fill:url(#XMLID_4_);}
	.st32{fill:url(#XMLID_5_);}
	.st33{fill:url(#XMLID_6_);}
</style>
<g>
	<g>
		<g id="_x31__33_">
			<path id="XMLID_324_" class="st0" d="M225.0368,191.9924c0,0,0.475-7.2544-0.5848-7.8687l-111.6501-69.5702
				c-3.4694-2.0115-6.1842-7.1241-6.1748-11.639L95.4537,2.3913c0,0,1.1214-0.6709,2.9826-1.7422
				c1.6644-0.9541,3.7297-0.8509,5.6707,0.2742l120.8322,69.8852c3.4716,2.009,6.1864,7.1217,6.1769,11.639l-0.1572,101.6868
				c-0.0046,2.8153-1.0759,5.0446-2.9395,6.1159C227.2645,190.6838,225.0368,191.9924,225.0368,191.9924z"/>
		</g>
		<g id="_x31__32_">
			
				<linearGradient id="XMLID_2_" gradientUnits="userSpaceOnUse" x1="-392.6856" y1="642.7166" x2="-321.5803" y2="884.4747" gradientTransform="matrix(0.8651 0.5016 0.4974 1.4443 -94.3364 -1215.5248)">
				<stop  offset="0" style="stop-color:#F1F4FE"/>
				<stop  offset="0.5973" style="stop-color:#FFFFFF"/>
				<stop  offset="1" style="stop-color:#F1F4FE"/>
			</linearGradient>
			<path id="XMLID_322_" class="st1" d="M222.5683,192.6419c-1.0455,0-2.1424-0.3094-3.2022-0.9237L98.5341,121.833
				c-3.4694-2.0115-6.1842-7.1241-6.1748-11.639L92.5166,8.5072c0.0046-2.8153,1.0759-5.0446,2.9371-6.1159
				c1.6644-0.9541,3.7297-0.8509,5.6707,0.2742l120.8323,69.8852c3.4716,2.009,6.1863,7.1217,6.1769,11.639l-0.1572,101.6868
				c-0.0046,2.8153-1.0759,5.0446-2.9395,6.1159C224.2819,192.426,223.4428,192.6419,222.5683,192.6419z"/>
		</g>
	</g>
	<rect x="155.5661" y="73.491" class="st0" width="1.6241" height="23.8198"/>
	<rect x="118.5709" y="51.5767" class="st0" width="1.6241" height="23.8198"/>
	<rect x="196.8027" y="96.1123" class="st0" width="1.6241" height="23.8198"/>
	<g>
		<g class="st2">
			<g>
				<path class="st0" d="M170.993,75.8738l-25.8825-14.9767c-0.4844-0.2768-0.8753-0.0529-0.877,0.4993
					c0,0.5554,0.3885,1.2298,0.8704,1.5075l25.8825,14.9783c0.481,0.2778,0.8753,0.0546,0.8761-0.4992
					C171.865,76.8284,171.474,76.1515,170.993,75.8738L170.993,75.8738z"/>
			</g>
		</g>
	</g>
	<g>
		<g class="st2">
			<g>
				<path class="st0" d="M171.2017,81.0928l-25.8825-14.9767c-0.4844-0.2768-0.8753-0.0529-0.877,0.4993
					c0,0.5554,0.3885,1.2298,0.8704,1.5075l25.8825,14.9783c0.481,0.2778,0.8753,0.0546,0.8761-0.4992
					C172.0737,82.0474,171.6828,81.3705,171.2017,81.0928L171.2017,81.0928z"/>
			</g>
		</g>
	</g>
	<g>
		<g class="st2">
			<g>
				<path class="st3" d="M159.4489,47.0647l-0.0136-0.0072c-4.0997-2.3409-7.4215-0.4485-7.4424,4.2325
					c-0.0072,4.7025,3.2795,10.414,7.4,12.79l0,0c4.0997,2.3617,7.428,0.4413,7.4424-4.226
					C166.8489,55.1234,163.5271,49.4192,159.4489,47.0647L159.4489,47.0647z"/>
			</g>
		</g>
	</g>
	<g>
		<g class="st2">
			<g>
				<path class="st0" d="M211.5993,98.0719l-25.8825-14.9767c-0.4844-0.2768-0.8753-0.0529-0.877,0.4993
					c0,0.5554,0.3885,1.2298,0.8704,1.5075l25.8826,14.9783c0.481,0.2778,0.8753,0.0546,0.8761-0.4992
					C212.4714,99.0265,212.0804,98.3496,211.5993,98.0719L211.5993,98.0719z"/>
			</g>
		</g>
	</g>
	<g>
		<g class="st2">
			<g>
				<path class="st0" d="M211.8081,103.291l-25.8826-14.9767c-0.4844-0.2768-0.8753-0.0529-0.877,0.4993
					c0,0.5554,0.3885,1.2298,0.8704,1.5075l25.8825,14.9783c0.481,0.2778,0.8753,0.0546,0.8761-0.4992
					C212.6801,104.2456,212.2892,103.5686,211.8081,103.291L211.8081,103.291z"/>
			</g>
		</g>
	</g>
	<g>
		<g class="st2">
			<g>
				<path class="st3" d="M200.0553,69.2628l-0.0136-0.0072c-4.0997-2.3409-7.4215-0.4485-7.4423,4.2325
					c-0.0072,4.7025,3.2795,10.414,7.4,12.79l0,0c4.0997,2.3617,7.428,0.4413,7.4423-4.226
					C207.4553,77.3216,204.1335,71.6173,200.0553,69.2628L200.0553,69.2628z"/>
			</g>
		</g>
	</g>
	<g>
		<g class="st2">
			<g>
				<path class="st0" d="M133.6351,54.217l-25.8825-14.9767c-0.4844-0.2768-0.8753-0.0529-0.877,0.4993
					c0,0.5554,0.3885,1.2298,0.8704,1.5075l25.8825,14.9783c0.481,0.2778,0.8753,0.0546,0.8761-0.4992
					C134.5071,55.1716,134.1162,54.4947,133.6351,54.217L133.6351,54.217z"/>
			</g>
		</g>
	</g>
	<g>
		<g class="st2">
			<g>
				<path class="st0" d="M133.8438,59.4361l-25.8825-14.9767c-0.4844-0.2768-0.8753-0.0529-0.877,0.4993
					c0,0.5554,0.3885,1.2298,0.8704,1.5075l25.8825,14.9783c0.481,0.2778,0.8753,0.0546,0.8761-0.4992
					C134.7159,60.3907,134.3249,59.7138,133.8438,59.4361L133.8438,59.4361z"/>
			</g>
		</g>
	</g>
	<g>
		<g class="st2">
			<g>
				<path class="st3" d="M122.091,25.4079l-0.0136-0.0072c-4.0997-2.3408-7.4215-0.4485-7.4424,4.2325
					c-0.0072,4.7025,3.2795,10.414,7.4,12.79l0,0c4.0997,2.3617,7.428,0.4413,7.4423-4.226
					C129.491,33.4667,126.1692,27.7624,122.091,25.4079L122.091,25.4079z"/>
			</g>
		</g>
	</g>
	<g id="XMLID_311_">
		<g id="XMLID_318_">
			<path id="XMLID_319_" class="st4" d="M121.8151,37.9348c-1.4633-0.846-2.6529-2.8365-2.6519-4.4369l0.0009-1.4179
				c0.0005-0.758,0.5648-1.0486,1.2578-0.6479l2.7937,1.6153c0.693,0.4007,1.2565,1.3434,1.2561,2.1014l-0.0009,1.4179
				C124.4697,38.1671,123.2784,38.7808,121.8151,37.9348z M120.4215,32.0089c-0.4022-0.2326-0.7298-0.0639-0.7301,0.376
				l-0.0009,1.4179c-0.0008,1.2824,0.9525,2.8773,2.1249,3.5552c1.1725,0.6779,2.1271,0.1861,2.1279-1.0962l0.0009-1.4179
				c0.0003-0.4399-0.3269-0.9871-0.7291-1.2197L120.4215,32.0089z"/>
		</g>
		<g id="XMLID_314_">
			<path id="XMLID_315_" class="st4" d="M121.6393,35.6922c-0.5215-0.3015-0.9454-1.0108-0.945-1.5811
				c0.0004-0.5703,0.4248-0.7891,0.9463-0.4875c0.5215,0.3015,0.9454,1.0108,0.945,1.5811
				C122.5853,35.775,122.1608,35.9938,121.6393,35.6922z M121.6402,34.2003c-0.2307-0.1334-0.4185-0.0367-0.4186,0.2157
				c-0.0002,0.2523,0.1873,0.566,0.418,0.6994c0.2307,0.1334,0.4185,0.0367,0.4186-0.2157
				C122.0585,34.6474,121.8709,34.3337,121.6402,34.2003z"/>
		</g>
		<g id="XMLID_312_">
			<path id="XMLID_313_" class="st4" d="M123.5831,33.5483l-0.5274-0.3049l0.0013-2.0266c0.0002-0.3931-0.2921-0.8822-0.6515-1.0901
				l-1.1704-0.6767c-0.3595-0.2078-0.6522-0.057-0.6524,0.3361l-0.0013,2.0266l-0.5274-0.3049l0.0013-2.0266
				c0.0005-0.7112,0.5299-0.984,1.1802-0.608l1.1704,0.6767c0.6503,0.376,1.179,1.2605,1.1785,1.9718L123.5831,33.5483z"/>
		</g>
	</g>
	<g id="XMLID_300_">
		<g id="XMLID_307_">
			<path id="XMLID_308_" class="st4" d="M159.8513,59.9718c-1.4633-0.8461-2.6529-2.8365-2.6519-4.4369l0.0009-1.4179
				c0.0005-0.758,0.5648-1.0486,1.2578-0.6479l2.7937,1.6153c0.693,0.4007,1.2565,1.3434,1.2561,2.1014l-0.0009,1.4179
				C162.5059,60.2041,161.3146,60.8179,159.8513,59.9718z M158.4577,54.0459c-0.4022-0.2326-0.7298-0.0639-0.7301,0.376
				l-0.0009,1.4179c-0.0008,1.2824,0.9525,2.8773,2.1249,3.5552c1.1725,0.6779,2.1271,0.1861,2.1279-1.0962l0.0009-1.4179
				c0.0003-0.4399-0.3269-0.9871-0.7291-1.2197L158.4577,54.0459z"/>
		</g>
		<g id="XMLID_303_">
			<path id="XMLID_304_" class="st4" d="M159.6755,57.7292c-0.5215-0.3015-0.9454-1.0108-0.9451-1.5811
				c0.0004-0.5703,0.4248-0.7891,0.9464-0.4875c0.5215,0.3015,0.9454,1.0108,0.945,1.5811
				C160.6215,57.812,160.197,58.0308,159.6755,57.7292z M159.6765,56.2373c-0.2307-0.1334-0.4185-0.0367-0.4186,0.2157
				c-0.0002,0.2523,0.1873,0.566,0.418,0.6994c0.2307,0.1334,0.4185,0.0367,0.4186-0.2157
				C160.0947,56.6844,159.9072,56.3707,159.6765,56.2373z"/>
		</g>
		<g id="XMLID_301_">
			<path id="XMLID_302_" class="st4" d="M161.6193,55.5854l-0.5273-0.3049l0.0013-2.0266c0.0002-0.3932-0.2921-0.8822-0.6515-1.0901
				l-1.1704-0.6767c-0.3595-0.2078-0.6522-0.057-0.6524,0.3361l-0.0013,2.0266l-0.5274-0.3049l0.0013-2.0266
				c0.0004-0.7112,0.5299-0.984,1.1801-0.608l1.1704,0.6767c0.6503,0.376,1.179,1.2605,1.1785,1.9718L161.6193,55.5854z"/>
		</g>
	</g>
	<g id="XMLID_289_">
		<g id="XMLID_296_">
			<path id="XMLID_297_" class="st4" d="M200.1831,82.0892c-1.4633-0.846-2.653-2.8365-2.6519-4.4369l0.0009-1.4179
				c0.0005-0.758,0.5648-1.0486,1.2578-0.6479l2.7937,1.6153c0.693,0.4007,1.2565,1.3434,1.2561,2.1014l-0.0009,1.4179
				C202.8377,82.3215,201.6464,82.9353,200.1831,82.0892z M198.7895,76.1633c-0.4022-0.2326-0.7298-0.0639-0.7301,0.376
				l-0.0009,1.4179c-0.0008,1.2824,0.9525,2.8773,2.1249,3.5552c1.1725,0.6779,2.1271,0.1861,2.1279-1.0963l0.0009-1.4179
				c0.0003-0.4399-0.3269-0.9871-0.7291-1.2197L198.7895,76.1633z"/>
		</g>
		<g id="XMLID_292_">
			<path id="XMLID_293_" class="st4" d="M200.0073,79.8467c-0.5215-0.3015-0.9454-1.0108-0.945-1.5811
				c0.0004-0.5703,0.4248-0.7891,0.9463-0.4875c0.5215,0.3015,0.9454,1.0108,0.945,1.5811
				C200.9533,79.9294,200.5288,80.1482,200.0073,79.8467z M200.0082,78.3548c-0.2307-0.1334-0.4185-0.0367-0.4186,0.2157
				c-0.0002,0.2523,0.1873,0.566,0.418,0.6994c0.2307,0.1334,0.4185,0.0367,0.4186-0.2157
				C200.4264,78.8019,200.2389,78.4882,200.0082,78.3548z"/>
		</g>
		<g id="XMLID_290_">
			<path id="XMLID_291_" class="st4" d="M201.951,77.7028l-0.5273-0.3049l0.0013-2.0266c0.0002-0.3931-0.2921-0.8822-0.6515-1.0901
				l-1.1704-0.6767c-0.3595-0.2078-0.6522-0.057-0.6524,0.3361l-0.0013,2.0266l-0.5274-0.3049l0.0013-2.0266
				c0.0005-0.7112,0.5299-0.984,1.1802-0.608l1.1704,0.6767c0.6503,0.376,1.179,1.2605,1.1785,1.9718L201.951,77.7028z"/>
		</g>
	</g>
</g>
<g>
	<g>
		
			<linearGradient id="SVGID_1_" gradientUnits="userSpaceOnUse" x1="1469.0906" y1="1126.4246" x2="1607.5039" y2="1126.4246" gradientTransform="matrix(-1.3092 0 0 1.3092 2104.7051 -1163.5271)">
			<stop  offset="0" style="stop-color:#CFCFFF"/>
			<stop  offset="0.068" style="stop-color:#D4D4FF"/>
			<stop  offset="0.3565" style="stop-color:#E7E7FF"/>
			<stop  offset="0.66" style="stop-color:#F1F1FF"/>
			<stop  offset="1" style="stop-color:#F5F5FF"/>
		</linearGradient>
		<path class="st5" d="M1.8387,254.9991c0.0243,0.0274,0.0548,0.0762,0.0884,0.1005c0.1852,0.1945,0.389,0.3891,0.5864,0.5926
			c0.0426,0.0184,0.0669,0.0426,0.1033,0.0791c0.3162,0.2857,0.6657,0.5804,1.0364,0.8873c0.0395,0.0305,0.07,0.0517,0.1064,0.0822
			c0.3769,0.2979,0.7843,0.5926,1.2098,0.8967c0.0212,0.0059,0.0426,0.0274,0.0669,0.0486c0.4438,0.3221,0.9178,0.62,1.395,0.93
			c0.009,0.0153,0.0215,0.0153,0.0336,0.0274c0.474,0.3072,0.9452,0.6019,1.4376,0.9029c0.0638,0.0395,0.1276,0.079,0.1976,0.1155
			c0.7414,0.4438,1.4952,0.8752,2.2552,1.31c0.0181,0.0152,0.0486,0.0305,0.0728,0.0395c0.4012,0.2278,0.8024,0.4529,1.2036,0.6779
			l0,0c0.8693,0.4831,1.7448,0.9602,2.5895,1.4193c0.295,0.164,0.5745,0.3221,0.8817,0.4893
			c0.0787,0.0367,0.1699,0.0943,0.2552,0.146c0.3221,0.1733,0.6505,0.3647,0.9726,0.5471c0.0607,0.0243,0.1214,0.0548,0.1793,0.0912
			c0.3252,0.1914,0.6657,0.3769,0.9816,0.5652l143.6313,83.4626c8.5618,4.9757,13.8507,8.3888,18.1635,9.8114
			c0.7053,0.2341,1.3922,0.4133,2.0576,0.541l0.0274,8.6745c-0.6685-0.1245-1.3523-0.3069-2.0576-0.5378
			c-4.319-1.4164-9.6017-4.8298-18.1666-9.8052L17.5223,273.6248c-0.3526-0.2066-0.7053-0.4102-1.0881-0.62v-0.009
			c-1.5745-0.8755-3.31-1.8145-5.0607-2.7965c-0.1793-0.094-0.3707-0.1973-0.5624-0.301c-0.2067-0.1245-0.4376-0.2611-0.6595-0.3766
			c-0.2341-0.1369-0.4893-0.2888-0.7386-0.4258c-0.1155-0.0697-0.2278-0.1335-0.3433-0.2067
			c-0.3131-0.1793-0.605-0.3464-0.9088-0.5288c-0.0607-0.0426-0.1217-0.076-0.1765-0.1064
			c-0.0212-0.0211-0.0454-0.0364-0.0788-0.0395c-0.456-0.2885-0.9119-0.5742-1.3495-0.8509
			c-0.0367-0.0333-0.0912-0.0579-0.1248-0.0728c-0.474-0.3103-0.9147-0.605-1.3495-0.906
			c-0.0454-0.0423-0.0791-0.0638-0.1245-0.0881c-0.4012-0.2947-0.7902-0.5867-1.155-0.8814
			c-0.0486-0.0302-0.0912-0.0576-0.1369-0.0971c-0.3676-0.2798-0.705-0.5898-1.0149-0.8634
			c-0.0243-0.0243-0.0458-0.0364-0.07-0.0517c-0.018-0.0211-0.0243-0.0333-0.0454-0.0576
			c-0.2098-0.1855-0.3984-0.3769-0.5745-0.5655c-0.0364-0.0364-0.0669-0.0697-0.1096-0.1155
			c-0.1457-0.155-0.2857-0.3131-0.4133-0.4681c-0.0212-0.0364-0.0548-0.0669-0.0791-0.1002
			c-0.0243-0.0305-0.0333-0.0486-0.0545-0.079c-0.0548-0.0638-0.1033-0.1276-0.1522-0.1914
			c-0.0545-0.0791-0.1092-0.164-0.164-0.2372c-0.0426-0.0638-0.0881-0.1276-0.1155-0.1883
			c-0.0364-0.061-0.0759-0.1186-0.1124-0.1702v-0.0062l0,0v0.0062c-0.0031-0.0121-0.0124-0.0243-0.0215-0.0579
			c-0.1155-0.1883-0.2067-0.3891-0.2857-0.5805c0,0-0.0059-0.0243-0.0153-0.0395c-0.009-0.0243-0.0212-0.0548-0.0274-0.0881
			c-0.0423-0.1339-0.0787-0.2614-0.1092-0.3981c-0.0121-0.0305-0.0305-0.0638-0.0333-0.0853
			c-0.0093-0.0305-0.0093-0.0517-0.0093-0.0517c-0.0153-0.1276-0.0243-0.24-0.0364-0.3405c0-0.0423-0.0153-0.079-0.0153-0.1276
			c0-0.0212,0-0.0548,0-0.0791C-0.1488,254.6284,1.6837,254.8292,1.8387,254.9991z"/>
		<linearGradient id="SVGID_2_" gradientUnits="userSpaceOnUse" x1="173.0929" y1="329.6385" x2="350.7606" y2="329.6385">
			<stop  offset="0" style="stop-color:#CFCFFF"/>
			<stop  offset="0.068" style="stop-color:#D4D4FF"/>
			<stop  offset="0.3565" style="stop-color:#E7E7FF"/>
			<stop  offset="0.66" style="stop-color:#F1F1FF"/>
			<stop  offset="1" style="stop-color:#F5F5FF"/>
		</linearGradient>
		<path class="st6" d="M182.3504,358.8991c0.2372,0.0333,0.474,0.0392,0.7171,0.0517c0.2191,0.0121,0.4317,0.0121,0.6477,0
			c0.2067,0,0.4161-0.0125,0.6169-0.0215c0.2067-0.0302,0.4255-0.0486,0.6321-0.0728c0.2281-0.0395,0.456-0.0822,0.6748-0.1276
			c0.301-0.0548,0.5777-0.1186,0.8814-0.2188c0.4074-0.1127,0.8329-0.2614,1.2524-0.4286c0.8266-0.3193,1.6807-0.7479,2.5683-1.2583
			l106.2371-61.3448c2.638-1.5107,4.1911-2.5774,4.1911-3.8357c0.0031,2.8874,0.0093,5.7778,0.0215,8.6655
			c0.0153,1.2674-1.5562,2.3343-4.1914,3.8568l-106.225,61.3234c-0.8936,0.5229-1.7566,0.9331-2.5805,1.2736
			c-0.4223,0.1612-0.8419,0.301-1.2552,0.4317c-0.2857,0.0822-0.5836,0.155-0.8755,0.2219
			c-0.2188,0.0486-0.4376,0.0728-0.6626,0.1033c-0.2188,0.0395-0.4314,0.0638-0.638,0.079
			c-0.2098,0.0121-0.4164,0.0333-0.6203,0.0364c-0.2216,0-0.4283,0-0.6502-0.0031c-0.2372-0.009-0.4743-0.0243-0.7236-0.0486
			c-0.3159-0.0396-0.6626-0.0791-0.9969-0.146l-0.0274-8.6745C181.6878,358.817,182.0162,358.8687,182.3504,358.8991z"/>
		<path class="st0" d="M1.6809,252.7654c0.0181,0.0333,0.0545,0.0728,0.085,0.1002c0.1883,0.1945,0.389,0.3859,0.5895,0.5926
			c0.0367,0.0243,0.0641,0.0486,0.0974,0.0791c0.3221,0.2888,0.6717,0.5805,1.0395,0.8845
			c0.0364,0.0305,0.0728,0.0548,0.1093,0.0881c0.3769,0.2979,0.7843,0.5926,1.2039,0.8998
			c0.0243,0.0031,0.0486,0.0243,0.0728,0.0454c0.4438,0.3193,0.9178,0.6172,1.3891,0.9331
			c0.0153,0.0062,0.0274,0.0152,0.0395,0.0243c0.474,0.3041,0.9421,0.605,1.4407,0.8967c0.0545,0.0426,0.1214,0.0853,0.1883,0.1217
			c0.7479,0.4376,1.5014,0.8752,2.2552,1.3131c0.0243,0.0121,0.0548,0.0243,0.0791,0.0302c0.3981,0.231,0.8024,0.4622,1.2036,0.681
			l0,0c0.8755,0.4893,1.7417,0.9636,2.5836,1.4223c0.301,0.1612,0.5836,0.3253,0.8845,0.4834
			c0.0822,0.0395,0.1734,0.1002,0.2583,0.155c0.3284,0.164,0.6505,0.3586,0.9726,0.5378c0.0607,0.0246,0.1217,0.061,0.1762,0.0943
			c0.3284,0.1914,0.6688,0.38,0.9848,0.5655l143.6313,83.4626c8.5559,4.9754,13.8445,8.3947,18.1576,9.8111
			c0.7112,0.2403,1.3918,0.4133,2.0666,0.5409l0.0243,8.6745c-0.6685-0.1214-1.3586-0.3007-2.0576-0.5378
			c-4.325-1.4164-9.6013-4.8298-18.1697-9.8021l-143.6279-83.472c-0.3526-0.2036-0.7053-0.4071-1.0822-0.6231l0,0
			c-1.5745-0.8783-3.3128-1.8173-5.0635-2.7993c-0.1824-0.0971-0.371-0.1973-0.5565-0.3038
			c-0.2095-0.1248-0.4407-0.2555-0.6595-0.3738c-0.2431-0.1429-0.4924-0.295-0.7445-0.4286
			c-0.1155-0.07-0.2309-0.1339-0.3436-0.2039c-0.31-0.1793-0.6016-0.3464-0.9057-0.5347c-0.0638-0.0426-0.1217-0.0669-0.1793-0.1033
			c-0.0243-0.0183-0.0395-0.0336-0.0759-0.0426c-0.456-0.2857-0.915-0.5683-1.3526-0.8512
			c-0.0364-0.0243-0.0881-0.0576-0.1276-0.0728c-0.465-0.301-0.9088-0.5988-1.3464-0.9057
			c-0.0426-0.0396-0.079-0.0579-0.1217-0.0853c-0.4012-0.2947-0.7902-0.5836-1.1581-0.8783
			c-0.0517-0.0333-0.0912-0.0548-0.1366-0.1002c-0.3585-0.2767-0.7022-0.5898-1.0153-0.8631
			c-0.0212-0.0246-0.0426-0.0367-0.0697-0.0517c-0.0153-0.0215-0.0215-0.0305-0.0458-0.0548
			c-0.2067-0.1886-0.395-0.38-0.5714-0.5655c-0.0395-0.0333-0.0669-0.0669-0.1155-0.1155c-0.1398-0.155-0.2795-0.31-0.4074-0.4709
			c-0.0243-0.0305-0.0576-0.07-0.0818-0.1033c-0.0215-0.0246-0.0336-0.0457-0.0548-0.07c-0.0579-0.0638-0.1002-0.1307-0.1519-0.1945
			c-0.0517-0.0853-0.1064-0.164-0.1612-0.2372c-0.0364-0.0638-0.0912-0.1276-0.1155-0.1945
			c-0.0426-0.0517-0.0791-0.1155-0.1124-0.1609v-0.0093l0,0v0.0093c-0.0031-0.0215-0.0121-0.0336-0.0215-0.0579
			c-0.1155-0.1945-0.2067-0.3922-0.2857-0.5836c0,0-0.0059-0.0243-0.0181-0.0364c-0.0062-0.0274-0.0184-0.0638-0.0243-0.0881
			c-0.0457-0.14-0.079-0.2614-0.1155-0.4012c-0.0093-0.0336-0.0246-0.061-0.0336-0.0884c-0.0031-0.0271-0.0031-0.0517-0.0031-0.0517
			c-0.0181-0.1276-0.0181-0.2368-0.0364-0.3433c0-0.0396-0.0181-0.0791-0.0181-0.1186c0-0.0274,0-0.0579,0-0.0881
			C-0.31,252.3913,1.5228,252.592,1.6809,252.7654z"/>
		<path class="st0" d="M182.1861,356.6682c0.2434,0.0302,0.4802,0.0395,0.7174,0.0517c0.225,0.0121,0.4376,0.0121,0.6536,0
			c0.2066,0,0.4133-0.0121,0.6169-0.0246c0.2007-0.0271,0.4196-0.0486,0.6321-0.0697c0.225-0.0426,0.45-0.0853,0.672-0.1276
			c0.3007-0.0579,0.5805-0.1217,0.8783-0.2188c0.4133-0.1096,0.8388-0.2646,1.2583-0.4317
			c0.8235-0.3193,1.6776-0.7507,2.5652-1.2552l106.2402-61.3448c2.6321-1.5104,4.1914-2.5805,4.1914-3.8388
			c0,2.8874,0.0028,5.775,0.0149,8.6655c0.0184,1.2674-1.55,2.3374-4.1883,3.86l-106.225,61.3234
			c-0.8904,0.5229-1.7535,0.9362-2.5805,1.2736c-0.4192,0.1581-0.8419,0.2979-1.2552,0.4255
			c-0.2857,0.0884-0.5867,0.1581-0.8752,0.2281c-0.2188,0.0426-0.4376,0.076-0.6595,0.1064
			c-0.2191,0.0395-0.4317,0.0638-0.6446,0.076c-0.2067,0.0121-0.4133,0.0302-0.6138,0.0302c-0.225,0-0.4317,0-0.6536,0
			c-0.234-0.0121-0.4712-0.0212-0.7202-0.0423c-0.3224-0.0395-0.6598-0.0881-0.9972-0.1522l-0.0243-8.6745
			C181.5238,356.5829,181.858,356.6346,182.1861,356.6682z"/>
		<g>
			
				<linearGradient id="SVGID_3_" gradientUnits="userSpaceOnUse" x1="1417.8676" y1="1161.942" x2="1568.2699" y2="1035.7394" gradientTransform="matrix(-1.3092 0 0 1.3092 2104.7046 -1163.5271)">
				<stop  offset="0" style="stop-color:#F1F4FE"/>
				<stop  offset="0.5973" style="stop-color:#FFFFFF"/>
				<stop  offset="1" style="stop-color:#F1F4FE"/>
			</linearGradient>
			<path class="st7" d="M2.9209,251.2213c-9.3066,5.3766,6.0424,12.0938,14.4128,16.96l143.6313,83.4595
				c16.3337,9.4921,20.7349,13.3129,29.2149,8.4162l106.2402-61.3387c7.4464-4.2826,6.2976-4.9178-14.419-16.9478l-143.6372-83.4748
				c-16.7443-9.7262-20.7897-13.2581-29.2121-8.404L2.9209,251.2213z"/>
		</g>
		<path class="st0" d="M295.563,295.5969l0.3252-115.0635l6.1273-3.5593l-0.3312,119.5618c0,2.0274-1.8693,3.3284-2.8967,3.9393
			c-1.2552,0.7507-0.4803-2.5288-1.3464-2.0153C298.7603,297.676,295.5508,297.9343,295.563,295.5969z"/>
		<path class="st0" d="M109.8875,64.807c-0.1796-0.0666-0.3436-0.1276-0.517-0.1762c-0.1155-0.0333-0.2219-0.07-0.3312-0.085
			c-0.0912-0.0336-0.2067-0.0517-0.301-0.07c-0.1276-0.0274-0.2673-0.0458-0.3981-0.07c-0.0853-0.0028,1.076-1.5957,1.009-1.5957
			c-0.1702-0.0149,2.6231-1.4952,2.6231-1.4952c0.009-0.0121,0.0212-0.0121,0.0333-0.0243
			c0.1276-0.0731,0.2493-0.1279,0.3769-0.1824c0.0184-0.0121,0.0517-0.0121,0.0728-0.0243
			c0.0426-0.0184,0.0791-0.0246,0.1217-0.0457c0.0669-0.0274,0.1276-0.0426,0.1945-0.0579
			c0.0669-0.0302,0.1397-0.0364,0.2188-0.0607c0.0336-0.009,0.079-0.0212,0.1217-0.0274c0.0181,0,0.0486-0.009,0.085-0.0153
			c0.1338-0.0333,0.2798-0.0486,0.4379-0.0486c0.009-0.009,0.0181,0,0.0181,0c0.0486-0.009,0.0731,0,0.0974-0.009
			c0.1276-0.0062,0.249-0.0062,0.3769-0.0062c0.0364,0.0062,0.0787,0.0153,0.1214,0.0153c0.0759,0,0.146,0.0153,0.2129,0.0153
			c0.0728,0.0153,0.1335,0.0153,0.2098,0.0333c0.0697,0.0062,0.1366,0.0215,0.2035,0.0426
			c0.0943,0.0121,0.1762,0.0305,0.2736,0.0607c0.0638,0.0153,0.1214,0.0215,0.1824,0.0305
			c0.0517,0.0243,0.1124,0.0486,0.1762,0.0638c0.1643,0.0395,0.3252,0.1033,0.4893,0.1671
			c0.0641,0.0274,0.1369,0.0489,0.2039,0.0731c0.0364,0.0181,0.0819,0.0333,0.1064,0.0545c0.31,0.1307,0.6106,0.2708,0.9331,0.4622
			L294.633,164.1904c0.2431,0.1429,0.4861,0.2947,0.7112,0.456c0.0728,0.0423,0.1397,0.1033,0.2188,0.1488
			c0.1581,0.1186,0.3131,0.2431,0.4681,0.3617c0.085,0.0638,0.1671,0.1369,0.2462,0.2066c0.1519,0.1127,0.2885,0.2403,0.4254,0.3741
			c0.0943,0.0666,0.1671,0.1429,0.2521,0.2216c0.0489,0.0489,0.0974,0.0974,0.1643,0.1491c0.0486,0.0517,0.0971,0.1064,0.146,0.1702
			c0.1699,0.1671,0.328,0.3343,0.4771,0.4983c0.0697,0.07,0.1245,0.1217,0.1703,0.1855c0.0517,0.0517,0.094,0.1124,0.1488,0.1612
			c0.0822,0.1186,0.1824,0.2341,0.2677,0.3495c0.0666,0.0818,0.1366,0.1457,0.1883,0.2188
			c0.0486,0.0728,0.0971,0.1307,0.1397,0.1976c0.0732,0.0971,0.1397,0.1883,0.2007,0.2795
			c0.0548,0.0638,0.1093,0.1276,0.1519,0.1945c0.0791,0.1217,0.1519,0.2309,0.231,0.3495c0.0457,0.0579,0.0912,0.1397,0.1338,0.2007
			c0.0243,0.0395,0.0364,0.0638,0.0669,0.094c0.1276,0.2067,0.2583,0.4074,0.3769,0.6172c0.0181,0.0212,0.0212,0.0454,0.0364,0.0638
			c0.0059,0.0274,0.0243,0.0517,0.0364,0.0669c0.0974,0.1609,0.1945,0.328,0.2736,0.4952c0.0427,0.0791,0.076,0.1429,0.1155,0.225
			c0.0364,0.07,0.0669,0.146,0.1002,0.2129c0.0336,0.0697,0.0822,0.1276,0.1033,0.1973c0.0912,0.1674,0.1734,0.3526,0.2434,0.535
			c0.0212,0.0243,0.0302,0.0426,0.0423,0.0791l0.0121,0.0274c0.0943,0.2188,0.1855,0.4407,0.2677,0.6657
			c0.0211,0.0364,0.0333,0.079,0.0454,0.1186c0.0305,0.0881,0.0579,0.1578,0.0853,0.2341c0.0395,0.1214,0.0791,0.24,0.1214,0.3402
			c0.0364,0.0943,0.0579,0.1886,0.0853,0.2767c0.0243,0.0912,0.0638,0.1824,0.0881,0.2795
			c0.0153,0.0638,0.0396,0.1338,0.0576,0.2039c0.0367,0.1092,0.061,0.2368,0.0912,0.3554c0.0246,0.1155,0.061,0.2372,0.0822,0.3526
			c0.0121,0.0548,0.0211,0.0822,0.0336,0.1429c0.0243,0.0912,0.0302,0.1855,0.0454,0.2767c0.0395,0.1883,0.076,0.3859,0.1064,0.5864
			c0.0059,0.0548,0.0212,0.1005,0.0243,0.1643c0.0211,0.1214,0.0305,0.2614,0.0426,0.38c0.0059,0.0759,0.0121,0.155,0.0211,0.24
			c0.0212,0.2826,0.0364,0.5531,0.0364,0.8298l-6.1273,3.5593c0-0.2798-0.0121-0.5381-0.0336-0.8207
			c-0.0059-0.0943-0.0181-0.1734-0.0243-0.2767c-0.018-0.1671-0.0364-0.3343-0.0607-0.5135
			c-0.0364-0.2035-0.07-0.4105-0.1155-0.6109c-0.0243-0.1307-0.0457-0.2524-0.0669-0.3891
			c-0.0364-0.1338-0.0728-0.2736-0.1064-0.3981c-0.0333-0.1643-0.0822-0.3346-0.1245-0.4986
			c-0.0336-0.1064-0.061-0.2188-0.1033-0.3284c-0.061-0.1945-0.1276-0.3859-0.1886-0.5805c-0.0302-0.0759-0.0638-0.1671-0.0971-0.24
			c-0.0974-0.2798-0.2008-0.5412-0.3284-0.8117c-0.0059-0.0364-0.0243-0.0728-0.0364-0.1033
			c-0.1002-0.24-0.231-0.4802-0.3405-0.7233c-0.0426-0.0638-0.0697-0.1338-0.1064-0.2067
			c-0.1124-0.2129-0.2278-0.4227-0.3554-0.6536c-0.0336-0.0454-0.061-0.0971-0.0853-0.1488
			c-0.155-0.2583-0.3038-0.5017-0.4619-0.7507c-0.0427-0.0759-0.0974-0.1429-0.1339-0.216
			c-0.1245-0.1793-0.2521-0.3648-0.3828-0.5468c-0.061-0.0732-0.1217-0.1643-0.1914-0.2587
			c-0.1127-0.1456-0.2281-0.2826-0.3436-0.4286c-0.0971-0.1245-0.1976-0.24-0.2795-0.3495
			c-0.1033-0.1155-0.1886-0.2126-0.2767-0.319c-0.1671-0.1702-0.3343-0.3557-0.5045-0.5198
			c-0.1033-0.1245-0.2035-0.2157-0.3131-0.3131c-0.0912-0.0818-0.1703-0.1519-0.2493-0.2309
			c-0.1429-0.1276-0.2795-0.2552-0.4164-0.3828c-0.0881-0.061-0.1731-0.1429-0.2431-0.1945
			c-0.1671-0.1307-0.3253-0.2462-0.4834-0.362c-0.079-0.0486-0.1397-0.1093-0.2126-0.1609
			c-0.2372-0.1581-0.4681-0.3069-0.7053-0.4438L111.1123,65.3937c-0.3162-0.1793-0.6231-0.3343-0.93-0.4681
			C110.079,64.8923,109.9815,64.8465,109.8875,64.807z"/>
		<g>
			
				<linearGradient id="SVGID_4_" gradientUnits="userSpaceOnUse" x1="1431.1826" y1="969.0385" x2="1473.0192" y2="1083.9834" gradientTransform="matrix(-1.3092 0 0 1.3092 2104.7046 -1163.5271)">
				<stop  offset="0" style="stop-color:#CFCFFF"/>
				<stop  offset="0.3581" style="stop-color:#D2D2FF"/>
				<stop  offset="0.645" style="stop-color:#DCDCFF"/>
				<stop  offset="0.9063" style="stop-color:#EDEDFF"/>
				<stop  offset="1" style="stop-color:#F5F5FF"/>
			</linearGradient>
			<path class="st8" d="M115.0027,63.0684c-4.0881-2.3707-7.4102-0.4771-7.4345,4.231l-0.3159,115.0635
				c-0.0184,4.7053,3.2885,10.4134,7.3735,12.7747l177.8248,102.666c4.085,2.3554,7.4099-0.3284,7.4221-5.0302l0.3224-114.2704
				c0.018-4.7019-3.2888-10.4252-7.3738-12.7778L115.0027,63.0684z"/>
		</g>
		<g>
			<g class="st2">
				<g>
					<path class="st9" d="M117.8263,70.5366l170.6607,98.52c3.7081,2.1398,6.705,7.334,6.6928,11.5951l-0.2947,104.45
						c-0.0153,4.2643-3.0302,5.9848-6.7383,3.8478L117.483,190.4084c-3.7081-2.1307-6.705-7.3281-6.696-11.5892l0.301-104.4469
						C111.1064,70.1049,114.1182,68.3816,117.8263,70.5366L117.8263,70.5366z"/>
				</g>
			</g>
		</g>
		<g class="st10">
			<g class="st2">
				<g>
					<path class="st4" d="M132.4429,100.1525l140.8377,82.2222c2.3787,1.3726,4.3011,4.7046,4.2934,7.4381l-0.1891,67.0029
						c-0.0098,2.7354-1.9438,3.8391-4.3225,2.4683l-140.8396-82.2358c-2.3787-1.3668-4.3011-4.7009-4.2953-7.4343l0.1931-67.0009
						C128.1322,99.8755,130.0642,98.7701,132.4429,100.1525L132.4429,100.1525z"/>
				</g>
			</g>
		</g>
		<g class="st10">
			<g class="st2">
				<g>
					<path class="st4" d="M145.9316,125.3815l113.2329,65.8741c1.3053,0.7532,2.3602,2.5816,2.356,4.0816l-0.1038,36.7676
						c-0.0054,1.5011-1.0667,2.1067-2.3719,1.3545l-113.234-65.8816c-1.3053-0.75-2.3602-2.5796-2.3571-4.0795l0.1059-36.7665
						C143.5661,125.2295,144.6263,124.6229,145.9316,125.3815L145.9316,125.3815z"/>
				</g>
			</g>
		</g>
		<g>
			<g>
				<g class="st2">
					<g>
						<path class="st0" d="M174.9343,330.2495c2.3312-1.3495,6.0971-1.3617,8.4131-0.0153l8.0302,4.7535
							c2.3221,1.3527,2.3038,3.5229-0.0215,4.8752c-2.3312,1.3467-6.094,1.3526-8.4162,0l-8.0424-4.7504
							C172.5816,333.7661,172.6059,331.5896,174.9343,330.2495L174.9343,330.2495z"/>
					</g>
				</g>
			</g>
			<g>
				<g class="st2">
					<g>
						<path class="st0" d="M156.0957,319.8028c2.3315-1.3402,6.1003-1.3402,8.4071,0l8.0424,4.7476
							c2.3343,1.3526,2.3007,3.5257-0.0274,4.8721c-2.3374,1.3436-6.094,1.3526-8.4099,0l-8.0517-4.7445
							C153.7434,323.3347,153.7736,321.1554,156.0957,319.8028L156.0957,319.8028z"/>
					</g>
				</g>
			</g>
			<g>
				<g class="st2">
					<g>
						<path class="st0" d="M96.4107,212.5018c2.5441-1.4557,6.6471-1.4557,9.17,0l149.9955,87.18
							c2.5288,1.456,2.5045,3.8419-0.0364,5.3069c-2.5472,1.465-6.6502,1.465-9.17,0L96.3742,217.8181
							C93.8482,216.3621,93.8604,213.9821,96.4107,212.5018L96.4107,212.5018z"/>
					</g>
				</g>
			</g>
			<g>
				<g class="st2">
					<g>
						<path class="st0" d="M48.032,239.4435c2.5409-1.465,6.6443-1.465,9.1731,0l149.9896,87.1676
							c2.5257,1.4622,2.5104,3.845-0.0305,5.3131c-2.5409,1.4678-6.6502,1.4678-9.1728,0L47.9986,244.7563
							C45.473,243.2944,45.4789,240.9116,48.032,239.4435L48.032,239.4435z"/>
					</g>
				</g>
			</g>
			<g>
				<g class="st2">
					<g>
						<path class="st0" d="M57.6853,262.5948c2.5347-1.465,6.6381-1.465,9.1731,0l87.195,50.2266
							c2.5198,1.4678,2.5104,3.8416-0.0305,5.3097c-2.5531,1.4743-6.6502,1.4743-9.179,0l-87.195-50.2203
							C55.126,266.4427,55.1412,264.0627,57.6853,262.5948L57.6853,262.5948z"/>
					</g>
				</g>
			</g>
			<g>
				<g class="st2">
					<g>
						<path class="st0" d="M37.8134,251.5039c2.5229-1.4438,6.6079-1.4591,9.1124,0l6.9723,4.0517
							c2.5167,1.4557,2.4862,3.8295-0.0305,5.2792c-2.5347,1.465-6.6138,1.465-9.1305,0l-6.9661-4.0423
							C35.2725,255.3275,35.2908,252.9689,37.8134,251.5039L37.8134,251.5039z"/>
					</g>
				</g>
			</g>
		</g>
		<g>
			<g>
				<g class="st2">
					<g>
						
							<linearGradient id="SVGID_5_" gradientUnits="userSpaceOnUse" x1="1370.0189" y1="333.8175" x2="1389.954" y2="333.8175" gradientTransform="matrix(-1 0 0 1 1563.1282 0)">
							<stop  offset="0" style="stop-color:#E4E7FB"/>
							<stop  offset="0.3843" style="stop-color:#EAECFC"/>
							<stop  offset="0.8912" style="stop-color:#FAFBFE"/>
							<stop  offset="1" style="stop-color:#FFFFFF"/>
						</linearGradient>
						<path class="st11" d="M174.9343,329.0154c2.3312-1.3526,6.0971-1.3617,8.4068-0.0153l8.0365,4.7507
							c2.3221,1.3523,2.3038,3.5257-0.0243,4.8752c-2.3284,1.3495-6.094,1.3527-8.4134,0l-8.0424-4.7507
							C172.5816,332.5349,172.6059,330.3559,174.9343,329.0154L174.9343,329.0154z"/>
					</g>
				</g>
			</g>
			<g>
				<g class="st2">
					<g>
						
							<linearGradient id="SVGID_6_" gradientUnits="userSpaceOnUse" x1="1388.8481" y1="323.3824" x2="1408.7904" y2="323.3824" gradientTransform="matrix(-1 0 0 1 1563.1282 0)">
							<stop  offset="0" style="stop-color:#E4E7FB"/>
							<stop  offset="0.3843" style="stop-color:#EAECFC"/>
							<stop  offset="0.8912" style="stop-color:#FAFBFE"/>
							<stop  offset="1" style="stop-color:#FFFFFF"/>
						</linearGradient>
						<path class="st12" d="M156.0957,318.5749c2.3315-1.3464,6.1003-1.3464,8.4071,0l8.0424,4.7414
							c2.3343,1.3526,2.3007,3.5257-0.0274,4.8724c-2.3374,1.3433-6.094,1.3523-8.4099,0l-8.0517-4.7445
							C153.7434,322.1006,153.7736,319.9182,156.0957,318.5749L156.0957,318.5749z"/>
					</g>
				</g>
			</g>
			<g>
				<g class="st2">
					<g>
						
							<linearGradient id="SVGID_7_" gradientUnits="userSpaceOnUse" x1="1305.6689" y1="257.5148" x2="1468.6393" y2="257.5148" gradientTransform="matrix(-1 0 0 1 1563.1282 0)">
							<stop  offset="0" style="stop-color:#E4E7FB"/>
							<stop  offset="0.3843" style="stop-color:#EAECFC"/>
							<stop  offset="0.8912" style="stop-color:#FAFBFE"/>
							<stop  offset="1" style="stop-color:#FFFFFF"/>
						</linearGradient>
						<path class="st13" d="M96.4107,211.2681c2.5441-1.456,6.6412-1.456,9.17,0l149.9955,87.1797
							c2.5288,1.456,2.5045,3.8419-0.0364,5.3069c-2.5472,1.465-6.6564,1.465-9.17,0L96.3742,216.584
							C93.8482,215.1281,93.8604,212.748,96.4107,211.2681L96.4107,211.2681z"/>
					</g>
				</g>
			</g>
			<g>
				<g class="st2">
					<g>
						
							<linearGradient id="SVGID_8_" gradientUnits="userSpaceOnUse" x1="1354.0487" y1="284.4517" x2="1517.0175" y2="284.4517" gradientTransform="matrix(-1 0 0 1 1563.1282 0)">
							<stop  offset="0" style="stop-color:#E4E7FB"/>
							<stop  offset="0.3843" style="stop-color:#EAECFC"/>
							<stop  offset="0.8912" style="stop-color:#FAFBFE"/>
							<stop  offset="1" style="stop-color:#FFFFFF"/>
						</linearGradient>
						<path class="st14" d="M48.032,238.2094c2.5409-1.465,6.6443-1.465,9.1731,0l149.9896,87.1707
							c2.5257,1.456,2.5104,3.8419-0.0305,5.3159c-2.5409,1.4622-6.6502,1.4622-9.1728,0L47.9986,243.5222
							C45.473,242.0635,45.4789,239.6744,48.032,238.2094L48.032,238.2094z"/>
					</g>
				</g>
			</g>
			<g>
				<g class="st2">
					<g>
						
							<linearGradient id="SVGID_9_" gradientUnits="userSpaceOnUse" x1="1407.1923" y1="289.1311" x2="1507.3612" y2="289.1311" gradientTransform="matrix(-1 0 0 1 1563.1282 0)">
							<stop  offset="0" style="stop-color:#E4E7FB"/>
							<stop  offset="0.3843" style="stop-color:#EAECFC"/>
							<stop  offset="0.8912" style="stop-color:#FAFBFE"/>
							<stop  offset="1" style="stop-color:#FFFFFF"/>
						</linearGradient>
						<path class="st15" d="M57.6853,261.3577c2.5347-1.4619,6.6381-1.4619,9.1731-0.0031l87.195,50.2265
							c2.5198,1.4712,2.5104,3.845-0.0305,5.319c-2.5531,1.4681-6.6502,1.4681-9.179,0l-87.195-50.2234
							C55.126,265.2086,55.1412,262.8289,57.6853,261.3577L57.6853,261.3577z"/>
					</g>
				</g>
			</g>
			<g>
				<g class="st2">
					<g>
						
							<linearGradient id="SVGID_10_" gradientUnits="userSpaceOnUse" x1="1507.36" y1="254.94" x2="1527.2189" y2="254.94" gradientTransform="matrix(-1 0 0 1 1563.1282 0)">
							<stop  offset="0" style="stop-color:#E4E7FB"/>
							<stop  offset="0.3843" style="stop-color:#EAECFC"/>
							<stop  offset="0.8912" style="stop-color:#FAFBFE"/>
							<stop  offset="1" style="stop-color:#FFFFFF"/>
						</linearGradient>
						<path class="st16" d="M37.8134,250.2668c2.5229-1.4435,6.6079-1.4557,9.1124,0l6.9723,4.0517
							c2.5104,1.4588,2.4862,3.8267-0.0305,5.2854c-2.5347,1.4622-6.6138,1.4622-9.1305,0l-6.9661-4.0455
							C35.2725,254.0965,35.2908,251.7349,37.8134,250.2668L37.8134,250.2668z"/>
					</g>
				</g>
			</g>
		</g>
		<g>
			<g class="st2">
				<g>
					<path class="st0" d="M65.0658,229.9308c2.5409-1.465,6.6443-1.465,9.1731,0l149.9896,87.1707
						c2.5257,1.456,2.5104,3.8419-0.0305,5.3159c-2.5409,1.4622-6.6502,1.4622-9.1728,0L65.0325,235.2436
						C62.5068,233.7849,62.5128,231.3958,65.0658,229.9308L65.0658,229.9308z"/>
				</g>
			</g>
		</g>
		<g>
			<g class="st2">
				<g>
					<path class="st0" d="M81.2734,221.0992c2.5409-1.465,6.6443-1.465,9.1731,0l149.9896,87.1707
						c2.5257,1.456,2.5104,3.8419-0.0305,5.3159c-2.541,1.4622-6.6502,1.4622-9.1728,0L81.2401,226.412
						C78.7144,224.9532,78.7203,222.5642,81.2734,221.0992L81.2734,221.0992z"/>
				</g>
			</g>
		</g>
		<g>
			<g class="st2">
				<g>
					
						<linearGradient id="SVGID_11_" gradientUnits="userSpaceOnUse" x1="1336.8374" y1="275.1475" x2="1499.806" y2="275.1475" gradientTransform="matrix(-1 0 0 1 1563.1282 0)">
						<stop  offset="0" style="stop-color:#E4E7FB"/>
						<stop  offset="0.3843" style="stop-color:#EAECFC"/>
						<stop  offset="0.8912" style="stop-color:#FAFBFE"/>
						<stop  offset="1" style="stop-color:#FFFFFF"/>
					</linearGradient>
					<path class="st17" d="M65.2433,228.9052c2.5409-1.465,6.6443-1.465,9.1731,0l149.9896,87.1707
						c2.5257,1.456,2.5104,3.8419-0.0305,5.3159c-2.5409,1.4622-6.6502,1.4622-9.1728,0L65.21,234.218
						C62.6843,232.7593,62.6903,230.3702,65.2433,228.9052L65.2433,228.9052z"/>
				</g>
			</g>
		</g>
		<g>
			<g class="st2">
				<g>
					
						<linearGradient id="SVGID_12_" gradientUnits="userSpaceOnUse" x1="1320.6298" y1="266.3158" x2="1483.5985" y2="266.3158" gradientTransform="matrix(-1 0 0 1 1563.1282 0)">
						<stop  offset="0" style="stop-color:#E4E7FB"/>
						<stop  offset="0.3843" style="stop-color:#EAECFC"/>
						<stop  offset="0.8912" style="stop-color:#FAFBFE"/>
						<stop  offset="1" style="stop-color:#FFFFFF"/>
					</linearGradient>
					<path class="st18" d="M81.4509,220.0735c2.5409-1.465,6.6443-1.465,9.1731,0l149.9896,87.1707
						c2.5257,1.456,2.5105,3.8419-0.0305,5.3159c-2.541,1.4622-6.6502,1.4622-9.1728,0L81.4176,225.3864
						C78.8919,223.9276,78.8978,221.5385,81.4509,220.0735L81.4509,220.0735z"/>
				</g>
			</g>
		</g>
	</g>
</g>
<g>
	<g>
		<g id="_x31__31_">
			<path id="XMLID_287_" class="st0" d="M149.9664,253.1706c0,0,0.475-7.2544-0.5848-7.8687l-82.3027-52.7272
				c-3.4694-2.0114-6.1842-7.1241-6.1748-11.639L49.7307,80.4125c0,0,1.1214-0.6709,2.9826-1.7422
				c1.6644-0.9541,3.7297-0.8509,5.6707,0.2742l91.4848,53.0422c3.4716,2.009,6.1863,7.1217,6.1769,11.639l-0.1572,101.6868
				c-0.0046,2.8153-1.0759,5.0446-2.9395,6.1159C152.1941,251.862,149.9664,253.1706,149.9664,253.1706z"/>
		</g>
		<g id="_x31__30_">
			
				<linearGradient id="XMLID_3_" gradientUnits="userSpaceOnUse" x1="-506.2502" y1="761.4083" x2="-440.6315" y2="984.512" gradientTransform="matrix(0.8651 0.5016 0.4974 1.4443 -94.3364 -1215.5248)">
				<stop  offset="0" style="stop-color:#F1F4FE"/>
				<stop  offset="0.5973" style="stop-color:#FFFFFF"/>
				<stop  offset="1" style="stop-color:#F1F4FE"/>
			</linearGradient>
			<path id="XMLID_285_" class="st19" d="M147.4979,253.8201c-1.0455,0-2.1425-0.3094-3.2022-0.9237l-91.4846-53.0422
				c-3.4694-2.0115-6.1842-7.1241-6.1748-11.639l0.1572-101.6868c0.0046-2.8153,1.0759-5.0446,2.9371-6.1159
				c1.6644-0.9541,3.7297-0.8509,5.6707,0.2742l91.4848,53.0422c3.4716,2.009,6.1863,7.1217,6.1769,11.639l-0.1572,101.6868
				c-0.0046,2.8153-1.0759,5.0446-2.9396,6.1159C149.2115,253.6043,148.3724,253.8201,147.4979,253.8201z"/>
		</g>
	</g>
	<g>
		<path class="st20" d="M100.8346,126.3249L29.3061,84.9165c-2.9435-1.704-4.8898-1.396-7.7935,0.1832
			c-1.529,0.8315,2.2328,3.0611,2.2297,5.7199c-0.0075,6.586,3.9877,14.2417,8.9241,17.0993l0.8531,0.4939l-4.7446,23.515
			c0,0,4.9095-1.1654,5.2776-1.2705c0.6841-0.1955,1.1723-0.4347,1.7587-0.8828l14.9176-11.3991l50.6531,33.8874
			c2.5736,0.1716,3.3738-0.7272,4.8854-1.4087c2.1194-0.9554,3.4867-3.5856,3.4912-7.4298
			C109.7662,136.8382,105.7708,129.1825,100.8346,126.3249z"/>
		<path class="st3" d="M97.8148,127.3755L26.2862,85.9671c-4.9362-2.8576-8.9441,0.1648-8.9519,6.7511
			c-0.0075,6.586,3.9877,14.2417,8.9241,17.0993l0.8531,0.4939v20.2286c0,1.181,1.3534,1.8501,2.2917,1.1331l14.9176-11.3991
			l53.4659,30.952c4.9362,2.8576,8.9442-0.165,8.9519-6.7511C106.7464,137.8888,102.751,130.2331,97.8148,127.3755z"/>
	</g>
	<g>
		<path class="st20" d="M87.2786,207.2951L15.75,165.8867c-2.9435-1.704-4.8898-1.396-7.7935,0.1832
			c-1.529,0.8315,2.2328,3.0611,2.2297,5.7199c-0.0075,6.586,3.9877,14.2417,8.9241,17.0993l0.8531,0.4939l-4.7446,23.5151
			c0,0,4.9095-1.1654,5.2776-1.2705c0.6841-0.1955,1.1723-0.4347,1.7587-0.8828l14.9176-11.3991l50.6531,33.8874
			c2.5736,0.1716,3.3738-0.7272,4.8854-1.4086c2.1194-0.9554,3.4867-3.5856,3.4912-7.4298
			C96.2101,217.8083,92.2148,210.1527,87.2786,207.2951z"/>
		<path class="st3" d="M84.2587,208.3457l-71.5286-41.4084c-4.9362-2.8576-8.9441,0.1648-8.9519,6.7511
			c-0.0075,6.586,3.9877,14.2417,8.9241,17.0993l0.8531,0.4939v20.2286c0,1.181,1.3533,1.8501,2.2917,1.1331l14.9176-11.3991
			l53.4659,30.952c4.9362,2.8576,8.9442-0.165,8.9519-6.7511C93.1903,218.859,89.1949,211.2033,84.2587,208.3457z"/>
	</g>
	<g>
		<path class="st20" d="M140.4639,203.7471c0.0077-6.586-3.9877-14.2418-8.9239-17.0993l-71.5286-41.4084
			c-1.551-0.8979-3.0098-1.2136-4.2822-1.0223l-0.0046-0.0087l-0.1705,0.0493c-0.2704,0.0515-0.5306,0.1281-0.7823,0.2259
			l-2.8782,0.876l2.2147,2.4431c-0.2947,1.0108-0.4609,2.174-0.4625,3.4859c-0.0076,6.5861,3.9877,14.2418,8.9241,17.0994
			l51.3613,29.7336l11.2824,20.5917c-0.7935-0.0482-1.5244-0.0933-1.5244-0.0933l0.625,6.6667l5.6667-1.6667
			c0,0-0.0077-0.0138-0.0099-0.0178c0.8806-0.2874,1.5408-1.2649,1.5408-2.691l0.0609-12.5768l2.3323,1.3502
			c-1.1396,0.1489-2.0572,0.2703-2.1219,0.2832c-0.1789,0.0358,1.3594,2.4684,1.3594,2.4684l2.7879-0.9469
			C138.631,210.9986,140.4586,208.1878,140.4639,203.7471z"/>
		<path class="st3" d="M128.4713,187.6165l-71.5286-41.4084c-4.9362-2.8576-8.9441,0.1648-8.9519,6.7511
			c-0.0075,6.5861,3.9877,14.2418,8.9241,17.0993l51.3613,29.7336l13.0786,23.87c1.7737,2.8824,4.5019,1.8217,4.5019-1.0804
			l0.0609-12.5769l2.5256,1.4621c4.9362,2.8576,8.9442-0.1651,8.9519-6.7511C137.4029,198.1299,133.4075,190.4741,128.4713,187.6165
			z"/>
	</g>
	<g>
		<g>
			<linearGradient id="SVGID_13_" gradientUnits="userSpaceOnUse" x1="64.4398" y1="120.3881" x2="67.7779" y2="115.3358">
				<stop  offset="0" style="stop-color:#F1F4FE"/>
				<stop  offset="0.5973" style="stop-color:#FFFFFF"/>
				<stop  offset="1" style="stop-color:#F1F4FE"/>
			</linearGradient>
			<path class="st21" d="M94.4515,134.6657l0.3279,0.1898c0.6408,0.371,1.1611-0.0214,1.1621-0.8764
				c0.001-0.855-0.5177-1.8489-1.1585-2.2199L38.7522,98.8796c-0.6408-0.371-1.1611,0.0214-1.1621,0.8764
				c-0.001,0.855,0.5177,1.8489,1.1585,2.2199l53.4127,31.3639"/>
			<linearGradient id="SVGID_14_" gradientUnits="userSpaceOnUse" x1="53.3941" y1="120.0203" x2="55.9268" y2="116.187">
				<stop  offset="0" style="stop-color:#F1F4FE"/>
				<stop  offset="0.5973" style="stop-color:#FFFFFF"/>
				<stop  offset="1" style="stop-color:#F1F4FE"/>
			</linearGradient>
			<path class="st22" d="M71.2378,128.3526l0.3279,0.1898c0.6408,0.371,1.1611-0.0214,1.1621-0.8764
				c0.001-0.855-0.5177-1.8489-1.1585-2.2199L38.7522,106.156c-0.6408-0.371-1.1611,0.0214-1.1621,0.8764
				c-0.001,0.855,0.5177,1.8489,1.1585,2.2199l30.199,17.7745"/>
		</g>
		<g class="st23">
			<g class="st2">
				<g>
					<linearGradient id="SVGID_15_" gradientUnits="userSpaceOnUse" x1="23.8825" y1="98.4773" x2="34.2609" y2="98.4773">
						<stop  offset="0" style="stop-color:#F1F4FE"/>
						<stop  offset="0.5973" style="stop-color:#FFFFFF"/>
						<stop  offset="1" style="stop-color:#F1F4FE"/>
					</linearGradient>
					<path class="st24" d="M29.096,92.5281l-0.0095-0.005c-2.8667-1.6368-5.1894-0.3136-5.204,2.9595
						c-0.005,3.2882,2.2931,7.2818,5.1744,8.9432l0,0c2.8667,1.6514,5.1939,0.3086,5.204-2.955
						C34.2704,98.1631,31.9477,94.1745,29.096,92.5281L29.096,92.5281z"/>
				</g>
			</g>
		</g>
	</g>
	<g>
		<g>
			<linearGradient id="SVGID_16_" gradientUnits="userSpaceOnUse" x1="95.2754" y1="180.7222" x2="98.6135" y2="175.6698">
				<stop  offset="0" style="stop-color:#F1F4FE"/>
				<stop  offset="0.5973" style="stop-color:#FFFFFF"/>
				<stop  offset="1" style="stop-color:#F1F4FE"/>
			</linearGradient>
			<path class="st25" d="M125.2871,194.9998l0.3279,0.1898c0.6408,0.371,1.1611-0.0214,1.1621-0.8764
				c0.001-0.855-0.5177-1.8489-1.1585-2.2199l-56.0309-32.8796c-0.6408-0.371-1.1611,0.0214-1.1621,0.8764
				c-0.001,0.855,0.5177,1.8489,1.1585,2.2199l53.4127,31.3639"/>
			<linearGradient id="SVGID_17_" gradientUnits="userSpaceOnUse" x1="84.2297" y1="180.3543" x2="86.7624" y2="176.5211">
				<stop  offset="0" style="stop-color:#F1F4FE"/>
				<stop  offset="0.5973" style="stop-color:#FFFFFF"/>
				<stop  offset="1" style="stop-color:#F1F4FE"/>
			</linearGradient>
			<path class="st26" d="M102.0734,188.6867l0.3279,0.1898c0.6408,0.371,1.1611-0.0214,1.1621-0.8764
				c0.001-0.855-0.5177-1.8489-1.1585-2.2198l-32.8171-19.2902c-0.6408-0.371-1.1611,0.0214-1.1621,0.8764
				c-0.001,0.855,0.5177,1.8489,1.1585,2.2199l30.199,17.7745"/>
		</g>
		<g class="st23">
			<g class="st2">
				<g>
					<linearGradient id="SVGID_18_" gradientUnits="userSpaceOnUse" x1="54.7181" y1="158.8113" x2="65.0965" y2="158.8113">
						<stop  offset="0" style="stop-color:#F1F4FE"/>
						<stop  offset="0.5973" style="stop-color:#FFFFFF"/>
						<stop  offset="1" style="stop-color:#F1F4FE"/>
					</linearGradient>
					<path class="st27" d="M59.9316,152.8622l-0.0095-0.005c-2.8667-1.6368-5.1894-0.3136-5.204,2.9595
						c-0.005,3.2882,2.2931,7.2818,5.1744,8.9432l0,0c2.8667,1.6514,5.1939,0.3086,5.204-2.955
						C65.106,158.4972,62.7833,154.5085,59.9316,152.8622L59.9316,152.8622z"/>
				</g>
			</g>
		</g>
	</g>
	<g>
		<g>
			<linearGradient id="SVGID_19_" gradientUnits="userSpaceOnUse" x1="51.1875" y1="202.4162" x2="54.5257" y2="197.3638">
				<stop  offset="0" style="stop-color:#F1F4FE"/>
				<stop  offset="0.5973" style="stop-color:#FFFFFF"/>
				<stop  offset="1" style="stop-color:#F1F4FE"/>
			</linearGradient>
			<path class="st28" d="M81.1993,216.6938l0.3279,0.1898c0.6408,0.371,1.1611-0.0214,1.1621-0.8764
				c0.001-0.855-0.5177-1.8489-1.1585-2.2198L25.5,180.9077c-0.6408-0.371-1.1611,0.0214-1.1621,0.8764
				c-0.001,0.855,0.5177,1.8489,1.1585,2.2199l53.4127,31.3639"/>
			<linearGradient id="SVGID_20_" gradientUnits="userSpaceOnUse" x1="40.1419" y1="202.0483" x2="42.6746" y2="198.2151">
				<stop  offset="0" style="stop-color:#F1F4FE"/>
				<stop  offset="0.5973" style="stop-color:#FFFFFF"/>
				<stop  offset="1" style="stop-color:#F1F4FE"/>
			</linearGradient>
			<path class="st29" d="M57.9856,210.3807l0.3279,0.1898c0.6408,0.371,1.1611-0.0214,1.1621-0.8764
				c0.001-0.855-0.5177-1.8489-1.1585-2.2199L25.5,188.1841c-0.6408-0.371-1.1611,0.0214-1.1621,0.8764
				c-0.001,0.855,0.5177,1.8489,1.1585,2.2199l30.199,17.7745"/>
		</g>
		<g class="st23">
			<g class="st2">
				<g>
					<linearGradient id="SVGID_21_" gradientUnits="userSpaceOnUse" x1="10.6303" y1="180.5053" x2="21.0087" y2="180.5053">
						<stop  offset="0" style="stop-color:#F1F4FE"/>
						<stop  offset="0.5973" style="stop-color:#FFFFFF"/>
						<stop  offset="1" style="stop-color:#F1F4FE"/>
					</linearGradient>
					<path class="st30" d="M15.8438,174.5562l-0.0095-0.005c-2.8667-1.6368-5.1894-0.3136-5.204,2.9595
						c-0.005,3.2882,2.2931,7.2818,5.1744,8.9432l0,0c2.8667,1.6514,5.1939,0.3086,5.204-2.955
						C21.0182,180.1912,18.6955,176.2025,15.8438,174.5562L15.8438,174.5562z"/>
				</g>
			</g>
		</g>
	</g>
</g>
<g>
	<g>
		<g id="_x31__29_">
			<path id="XMLID_283_" class="st0" d="M370.9904,168.0914c0,0,0.5081-7.7608-0.6256-8.4179l-88.0472-56.4074
				c-3.7116-2.1518-6.6158-7.6213-6.6057-12.4514l-11.9533-20.9884c0,0,1.1997-0.7177,3.1908-1.8638
				c1.7806-1.0207,3.99-0.9103,6.0665,0.2934l97.8702,56.7444c3.7139,2.1493,6.6181,7.6187,6.6081,12.4514l-0.1682,22.2332
				c-0.0049,3.0118-1.151,5.3967-3.1447,6.5428C373.3737,166.6914,370.9904,168.0914,370.9904,168.0914z"/>
		</g>
		<g id="_x31__28_">
			
				<linearGradient id="XMLID_4_" gradientUnits="userSpaceOnUse" x1="-122.8539" y1="765.3423" x2="-87.2992" y2="886.2286" gradientTransform="matrix(0.8651 0.5016 0.4974 1.4443 -94.3364 -1215.5248)">
				<stop  offset="0" style="stop-color:#F1F4FE"/>
				<stop  offset="0.5973" style="stop-color:#FFFFFF"/>
				<stop  offset="1" style="stop-color:#F1F4FE"/>
			</linearGradient>
			<path id="XMLID_281_" class="st31" d="M368.3496,168.7862c-1.1185,0-2.292-0.331-3.4257-0.9882l-97.87-56.7444
				c-3.7116-2.1518-6.6158-7.6213-6.6057-12.4514l0.1682-22.2331c0.0049-3.0118,1.151-5.3967,3.1422-6.5428
				c1.7806-1.0207,3.99-0.9103,6.0665,0.2934l97.8702,56.7444c3.7139,2.1493,6.6181,7.6187,6.6081,12.4514l-0.1682,22.2332
				c-0.0049,3.0118-1.151,5.3967-3.1447,6.5428C370.1829,168.5553,369.2852,168.7862,368.3496,168.7862z"/>
		</g>
	</g>
	<g>
		<g class="st2">
			<g>
				<path class="st0" d="M337.4185,136.7182l-0.0068-0.0036c-2.0307-1.1595-3.6761-0.2222-3.6864,2.0964
					c-0.0035,2.3293,1.6244,5.1583,3.6654,6.3352l0,0c2.0307,1.1698,3.6793,0.2186,3.6864-2.0932
					C341.0839,140.7099,339.4385,137.8844,337.4185,136.7182L337.4185,136.7182z"/>
			</g>
		</g>
	</g>
	<g>
		<g class="st2">
			<g>
				<path class="st0" d="M348.1546,143.5625l-0.0068-0.0036c-2.0307-1.1595-3.6761-0.2222-3.6864,2.0965
					c-0.0035,2.3293,1.6244,5.1583,3.6654,6.3352l0,0c2.0307,1.1698,3.6793,0.2186,3.6864-2.0932
					C351.82,147.5542,350.1746,144.7287,348.1546,143.5625L348.1546,143.5625z"/>
			</g>
		</g>
	</g>
	<g>
		<g class="st2">
			<g>
				<path class="st0" d="M359.0248,149.4673l-0.0067-0.0036c-2.0307-1.1595-3.6761-0.2222-3.6864,2.0965
					c-0.0036,2.3293,1.6244,5.1583,3.6654,6.3352l0,0c2.0307,1.1698,3.6793,0.2186,3.6864-2.0932
					C362.6902,153.459,361.0449,150.6335,359.0248,149.4673L359.0248,149.4673z"/>
			</g>
		</g>
	</g>
	<g>
		<g class="st2">
			<g>
				<path class="st0" d="M361.6265,135.8597L296.5418,98.199c-1.218-0.6962-2.2011-0.133-2.2053,1.2555
					c0,1.3966,0.9769,3.0926,2.1887,3.7909l65.0847,37.6647c1.2095,0.6985,2.201,0.1373,2.203-1.2553
					C363.8193,138.2602,362.8362,136.558,361.6265,135.8597L361.6265,135.8597z"/>
			</g>
		</g>
	</g>
	<g>
		<g class="st2">
			<g>
				<path class="st0" d="M324.0342,125.9137l-27.4925-15.8807c-1.218-0.6962-2.2011-0.133-2.2053,1.2555
					c0,1.3966,0.9769,3.0926,2.1887,3.7909l27.4925,15.8847c1.2095,0.6985,2.201,0.1373,2.203-1.2552
					C326.227,128.3142,325.244,126.612,324.0342,125.9137L324.0342,125.9137z"/>
			</g>
		</g>
	</g>
	<g>
		<g class="st2">
			<g>
				<path class="st3" d="M276.3171,84.7166l-0.0174-0.0091c-5.225-2.9834-9.4587-0.5716-9.4852,5.3942
					c-0.0091,5.9933,4.1797,13.2725,9.4312,16.3007l0,0c5.225,3.0099,9.4669,0.5625,9.4852-5.386
					C285.7484,94.9874,281.5147,87.7174,276.3171,84.7166L276.3171,84.7166z"/>
			</g>
		</g>
	</g>
	<g>
		<path class="st4" d="M274.6719,101.0123l-2.841-4.0181c-0.4246-0.6005-0.4705-1.658-0.102-2.3499v0
			c0.3685-0.6919,1.0175-0.7667,1.4421-0.1661l2.841,4.0181c0.4246,0.6005,0.4705,1.658,0.102,2.3499l0,0
			C275.7454,101.5381,275.0965,101.6129,274.6719,101.0123z"/>
		<path class="st4" d="M274.5699,98.6624l3.7791-7.0953c0.3685-0.6919,1.0175-0.7667,1.442-0.1661l0,0
			c0.4246,0.6005,0.4705,1.658,0.102,2.3499l-3.7791,7.0953c-0.3685,0.6919-1.0175,0.7667-1.442,0.1661h0
			C274.2473,100.4118,274.2014,99.3543,274.5699,98.6624z"/>
	</g>
</g>
<g>
	<g>
		<g id="_x31__27_">
			<path id="XMLID_279_" class="st0" d="M325.2248,212.3967c0,0,0.5081-7.7608-0.6256-8.4179l-88.0472-56.4074
				c-3.7116-2.1518-6.6158-7.6213-6.6057-12.4514l-11.9533-20.9884c0,0,1.1997-0.7177,3.1908-1.8638
				c1.7806-1.0207,3.99-0.9103,6.0665,0.2934l97.8702,56.7444c3.7139,2.1493,6.6181,7.6187,6.6081,12.4514l-0.1682,22.2332
				c-0.0049,3.0118-1.151,5.3967-3.1447,6.5428C327.608,210.9968,325.2248,212.3967,325.2248,212.3967z"/>
		</g>
		<g id="_x31__26_">
			
				<linearGradient id="XMLID_5_" gradientUnits="userSpaceOnUse" x1="-210.9936" y1="826.6288" x2="-175.4388" y2="947.5151" gradientTransform="matrix(0.8651 0.5016 0.4974 1.4443 -94.3364 -1215.5248)">
				<stop  offset="0" style="stop-color:#F1F4FE"/>
				<stop  offset="0.5973" style="stop-color:#FFFFFF"/>
				<stop  offset="1" style="stop-color:#F1F4FE"/>
			</linearGradient>
			<path id="XMLID_277_" class="st32" d="M322.584,213.0915c-1.1185,0-2.292-0.331-3.4257-0.9882l-97.87-56.7444
				c-3.7116-2.1518-6.6158-7.6213-6.6057-12.4514l0.1682-22.2331c0.0049-3.0118,1.151-5.3967,3.1421-6.5428
				c1.7806-1.0207,3.99-0.9103,6.0665,0.2934l97.8702,56.7444c3.7139,2.1493,6.6182,7.6187,6.6081,12.4514l-0.1682,22.2332
				c-0.0049,3.0118-1.151,5.3967-3.1447,6.5428C324.4172,212.8606,323.5196,213.0915,322.584,213.0915z"/>
		</g>
	</g>
	<g>
		<g class="st2">
			<g>
				<path class="st0" d="M291.6528,181.0235l-0.0068-0.0035c-2.0307-1.1595-3.6761-0.2222-3.6864,2.0964
					c-0.0036,2.3293,1.6244,5.1583,3.6654,6.3352l0,0c2.0307,1.1698,3.6793,0.2186,3.6864-2.0932
					C295.3182,185.0152,293.6729,182.1898,291.6528,181.0235L291.6528,181.0235z"/>
			</g>
		</g>
	</g>
	<g>
		<g class="st2">
			<g>
				<path class="st0" d="M302.3889,187.8678l-0.0068-0.0036c-2.0307-1.1595-3.6761-0.2222-3.6864,2.0965
					c-0.0035,2.3293,1.6244,5.1583,3.6654,6.3352l0,0c2.0307,1.1698,3.6793,0.2186,3.6864-2.0932
					C306.0543,191.8595,304.4089,189.034,302.3889,187.8678L302.3889,187.8678z"/>
			</g>
		</g>
	</g>
	<g>
		<g class="st2">
			<g>
				<path class="st0" d="M313.2592,193.7726l-0.0067-0.0036c-2.0307-1.1595-3.6761-0.2222-3.6864,2.0965
					c-0.0036,2.3293,1.6244,5.1583,3.6654,6.3352l0,0c2.0307,1.1698,3.6793,0.2186,3.6864-2.0932
					C316.9246,197.7644,315.2792,194.9389,313.2592,193.7726L313.2592,193.7726z"/>
			</g>
		</g>
	</g>
	<g>
		<g class="st2">
			<g>
				<path class="st0" d="M315.8609,180.165l-65.0848-37.6607c-1.218-0.6962-2.2011-0.133-2.2053,1.2555
					c0,1.3966,0.9769,3.0926,2.1887,3.7909l65.0848,37.6647c1.2095,0.6985,2.201,0.1373,2.203-1.2552
					C318.0536,182.5655,317.0706,180.8633,315.8609,180.165L315.8609,180.165z"/>
			</g>
		</g>
	</g>
	<g>
		<g class="st2">
			<g>
				<path class="st0" d="M278.2686,170.2191l-27.4925-15.8807c-1.218-0.6962-2.2011-0.133-2.2053,1.2555
					c0,1.3966,0.9769,3.0926,2.1887,3.7909l27.4925,15.8847c1.2095,0.6985,2.201,0.1373,2.203-1.2553
					C280.4613,172.6195,279.4783,170.9173,278.2686,170.2191L278.2686,170.2191z"/>
			</g>
		</g>
	</g>
	<g>
		<g class="st2">
			<g>
				<path class="st3" d="M230.5515,129.0219l-0.0174-0.0092c-5.225-2.9834-9.4586-0.5716-9.4852,5.3942
					c-0.0092,5.9933,4.1797,13.2725,9.4312,16.3007l0,0c5.225,3.0099,9.4669,0.5625,9.4852-5.386
					C239.9827,139.2927,235.7491,132.0227,230.5515,129.0219L230.5515,129.0219z"/>
			</g>
		</g>
	</g>
	<g>
		<path class="st4" d="M228.9062,145.3177l-2.841-4.0181c-0.4246-0.6005-0.4705-1.658-0.1019-2.3499l0,0
			c0.3685-0.6919,1.0174-0.7667,1.442-0.1662l2.841,4.0181c0.4246,0.6005,0.4705,1.658,0.102,2.3499l0,0
			C229.9798,145.8435,229.3308,145.9182,228.9062,145.3177z"/>
		<path class="st4" d="M228.8043,142.9678l3.7791-7.0953c0.3685-0.6919,1.0175-0.7667,1.4421-0.1661l0,0
			c0.4246,0.6005,0.4705,1.658,0.1019,2.3499l-3.7791,7.0953c-0.3685,0.6919-1.0174,0.7667-1.442,0.1662l0,0
			C228.4816,144.7171,228.4357,143.6597,228.8043,142.9678z"/>
	</g>
</g>
<g>
	<g>
		<g id="_x31__25_">
			<path id="XMLID_275_" class="st0" d="M349.4306,307.1471c0,0,0.5081-7.7608-0.6256-8.4179l-88.0472-56.4074
				c-3.7116-2.1518-6.6158-7.6213-6.6057-12.4514l-11.9533-20.9884c0,0,1.1996-0.7177,3.1908-1.8638
				c1.7806-1.0207,3.99-0.9103,6.0665,0.2934l97.8702,56.7444c3.7139,2.1493,6.6181,7.6187,6.6081,12.4514l-0.1682,22.2331
				c-0.0049,3.0118-1.151,5.3967-3.1447,6.5428C351.8138,305.7472,349.4306,307.1471,349.4306,307.1471z"/>
		</g>
		<g id="_x31__24_">
			
				<linearGradient id="XMLID_6_" gradientUnits="userSpaceOnUse" x1="-223.1623" y1="896.4579" x2="-187.6075" y2="1017.3442" gradientTransform="matrix(0.8651 0.5016 0.4974 1.4443 -94.3364 -1215.5248)">
				<stop  offset="0" style="stop-color:#F1F4FE"/>
				<stop  offset="0.5973" style="stop-color:#FFFFFF"/>
				<stop  offset="1" style="stop-color:#F1F4FE"/>
			</linearGradient>
			<path id="XMLID_273_" class="st33" d="M346.7898,307.8419c-1.1185,0-2.292-0.331-3.4257-0.9882l-97.87-56.7444
				c-3.7116-2.1518-6.6158-7.6213-6.6057-12.4514l0.1682-22.2332c0.0049-3.0118,1.151-5.3967,3.1422-6.5428
				c1.7806-1.0207,3.99-0.9103,6.0665,0.2934l97.8702,56.7444c3.7139,2.1493,6.6181,7.6187,6.6081,12.4514l-0.1682,22.2332
				c-0.0049,3.0118-1.151,5.3967-3.1447,6.5428C348.623,307.611,347.7254,307.8419,346.7898,307.8419z"/>
		</g>
	</g>
	<g>
		<g class="st2">
			<g>
				<path class="st0" d="M315.8587,275.7739l-0.0068-0.0035c-2.0307-1.1595-3.6761-0.2222-3.6864,2.0964
					c-0.0035,2.3293,1.6244,5.1583,3.6654,6.3352l0,0c2.0307,1.1698,3.6793,0.2186,3.6864-2.0933
					C319.5241,279.7656,317.8787,276.9401,315.8587,275.7739L315.8587,275.7739z"/>
			</g>
		</g>
	</g>
	<g>
		<g class="st2">
			<g>
				<path class="st0" d="M326.5948,282.6182l-0.0068-0.0036c-2.0307-1.1595-3.6761-0.2221-3.6864,2.0965
					c-0.0035,2.3293,1.6244,5.1583,3.6654,6.3352l0,0c2.0307,1.1698,3.6793,0.2186,3.6864-2.0933
					C330.2602,286.6099,328.6148,283.7844,326.5948,282.6182L326.5948,282.6182z"/>
			</g>
		</g>
	</g>
	<g>
		<g class="st2">
			<g>
				<path class="st0" d="M337.465,288.523l-0.0067-0.0036c-2.0307-1.1595-3.6761-0.2221-3.6864,2.0965
					c-0.0036,2.3293,1.6244,5.1583,3.6654,6.3352l0,0c2.0307,1.1698,3.6793,0.2186,3.6864-2.0933
					C341.1304,292.5147,339.4851,289.6892,337.465,288.523L337.465,288.523z"/>
			</g>
		</g>
	</g>
	<g>
		<g class="st2">
			<g>
				<path class="st0" d="M340.0667,274.9154l-65.0847-37.6607c-1.218-0.6962-2.2011-0.133-2.2053,1.2555
					c0,1.3966,0.9769,3.0926,2.1887,3.7909l65.0847,37.6647c1.2095,0.6985,2.201,0.1373,2.203-1.2552
					C342.2595,277.3159,341.2764,275.6137,340.0667,274.9154L340.0667,274.9154z"/>
			</g>
		</g>
	</g>
	<g>
		<g class="st2">
			<g>
				<path class="st0" d="M302.4744,264.9694l-27.4925-15.8807c-1.218-0.6962-2.2011-0.133-2.2053,1.2555
					c0,1.3966,0.9769,3.0926,2.1887,3.7909l27.4925,15.8847c1.2095,0.6985,2.201,0.1373,2.203-1.2552
					C304.6672,267.3699,303.6841,265.6677,302.4744,264.9694L302.4744,264.9694z"/>
			</g>
		</g>
	</g>
	<g>
		<g class="st2">
			<g>
				<path class="st3" d="M254.7573,223.7723l-0.0174-0.0091c-5.225-2.9834-9.4586-0.5716-9.4852,5.3942
					c-0.0092,5.9933,4.1797,13.2725,9.4312,16.3007l0,0c5.225,3.0099,9.4669,0.5625,9.4852-5.386
					C264.1885,234.0431,259.9549,226.7731,254.7573,223.7723L254.7573,223.7723z"/>
			</g>
		</g>
	</g>
	<g>
		<path class="st4" d="M253.1121,240.0681l-2.841-4.0181c-0.4246-0.6005-0.4705-1.658-0.102-2.3499l0,0
			c0.3685-0.6919,1.0174-0.7667,1.442-0.1662l2.841,4.0181c0.4246,0.6005,0.4705,1.658,0.1019,2.3499v0
			C254.1856,240.5938,253.5367,240.6686,253.1121,240.0681z"/>
		<path class="st4" d="M253.0101,237.7181l3.7791-7.0953c0.3685-0.6919,1.0175-0.7667,1.442-0.1661l0,0
			c0.4246,0.6005,0.4705,1.658,0.102,2.3499l-3.7791,7.0953c-0.3685,0.6919-1.0174,0.7667-1.442,0.1661l0,0
			C252.6875,239.4675,252.6416,238.41,253.0101,237.7181z"/>
	</g>
</g>
</svg>
