<?xml version="1.0" encoding="utf-8"?>
<!-- Generator: Adobe Illustrator 23.0.0, SVG Export Plug-In . SVG Version: 6.00 Build 0)  -->
<svg version="1.1" id="Layer_1" xmlns="http://www.w3.org/2000/svg" xmlns:xlink="http://www.w3.org/1999/xlink" x="0px" y="0px"
	 viewBox="0 0 60.4 33.5" style="enable-background:new 0 0 60.4 33.5;" xml:space="preserve">
<style type="text/css">
	.st0{fill:#3994DC;}
</style>
<path class="st0" d="M53,30.5h-0.8V2.6c0-1-0.8-1.8-1.8-1.8H10c-1,0-1.8,0.8-1.8,1.8v27.9H7.4V2.6C7.4,1.2,8.6,0,10,0h40.4
	C51.8,0,53,1.2,53,2.6V30.5z"/>
<path class="st0" d="M57.4,33.5H3c-1.6,0-3-1.3-3-3v-0.4h60.4v0.4C60.4,32.2,59,33.5,57.4,33.5z M0.8,30.9c0.2,1,1.1,1.8,2.2,1.8
	h54.4c1.1,0,2-0.8,2.2-1.8H0.8z"/>
<path class="st0" d="M49.4,28.4H10.9c-0.6,0-1.1-0.5-1.1-1.1V3.5c0-0.6,0.5-1.1,1.1-1.1h38.5c0.6,0,1.1,0.5,1.1,1.1v23.8
	C50.6,27.9,50.1,28.4,49.4,28.4z M10.9,3.1c-0.2,0-0.4,0.2-0.4,0.4v23.8c0,0.2,0.2,0.4,0.4,0.4h38.5c0.2,0,0.4-0.2,0.4-0.4V3.5
	c0-0.2-0.2-0.4-0.4-0.4H10.9z"/>
<g>
	<g>
		<path class="st0" d="M30.6,9.6c0.1,0,0.2,0,0.3,0.1c0.7,0.2,1,0.6,1.2,1.3c0.1,0.4,0.2,0.8,0.2,1.2c0,0.3,0,0.6,0.1,0.9
			c0,0.3,0.2,0.6,0.4,0.8c0.4,0.7,0.9,1.3,1.3,2c0.3,0.5,0.5,1,0.4,1.6c0,0.2,0,0.4-0.1,0.5c0,0.1,0,0.1,0,0.2
			c0.1,0.2,0.2,0.4,0.2,0.6c0,0.3,0.1,0.5,0.4,0.6c0.1,0,0.1,0.1,0.2,0.1c0.4,0.2,0.4,0.5,0.1,0.8c-0.1,0.1-0.2,0.1-0.2,0.2
			c-0.5,0.3-0.9,0.6-1.4,0.8c0,0-0.1,0-0.1,0.1c-0.2,0.2-0.4,0.4-0.7,0.4c-0.1,0-0.2,0-0.4,0c-0.3-0.1-0.4-0.2-0.6-0.5
			c0,0-0.1-0.1-0.1-0.1c-0.8-0.2-1.7-0.2-2.5,0c-0.1,0-0.2,0.1-0.3,0.2c-0.2,0.2-0.4,0.3-0.7,0.3c-0.2,0-0.4-0.1-0.6-0.1
			c-0.6-0.2-1.3-0.4-1.9-0.5c-0.2,0-0.3-0.1-0.5-0.2C25,20.7,25,20.6,25,20.4c0-0.1,0.1-0.2,0.1-0.3c0.1-0.3,0.1-0.5,0-0.8
			c0-0.1,0-0.1,0-0.2c0-0.2,0.1-0.4,0.3-0.5c0.2,0,0.3-0.1,0.5-0.1c0.2-0.1,0.4-0.2,0.5-0.4c0.1-0.1,0.2-0.2,0.2-0.3
			c0,0,0-0.1,0-0.1c-0.1-0.3,0-0.5,0.1-0.7c0.2-0.4,0.3-0.7,0.4-1.1c0.2-0.5,0.4-1,0.8-1.4c0.1-0.1,0.2-0.3,0.3-0.4
			c0.2-0.2,0.3-0.5,0.3-0.8c0-0.5-0.1-1.1-0.1-1.6c0-0.3,0-0.6,0.1-1c0.1-0.5,0.5-0.8,1-1c0.2,0,0.3-0.1,0.5-0.1
			C30.2,9.6,30.4,9.6,30.6,9.6z M28.6,19.8c0.1,0.2,0.3,0.3,0.5,0.5c0,0,0.1,0,0.1,0c0.3,0,0.6,0,0.9,0c0.8,0,1.4-0.3,1.8-0.9
			c0,0,0.1-0.1,0.1-0.2c0-0.4,0-0.7,0.1-1.1c0-0.1,0.1-0.2,0.2-0.2c0.1,0,0.2,0,0.3,0c0.1-0.6,0.2-1.2,0-1.8c-0.3-1-0.7-1.9-1.1-2.8
			c-0.1-0.3-0.2-0.3-0.4-0.1c-0.3,0.2-0.6,0.3-0.9,0.5c-0.3,0.2-0.5,0.1-0.7,0c0,0-0.1,0-0.1-0.1c-0.1-0.1-0.3-0.2-0.4-0.3
			c0,0.1,0,0.1,0,0.2c0,0.3-0.2,0.6-0.3,0.9c-0.1,0.2-0.2,0.4-0.3,0.5c-0.1,0.3-0.2,0.7-0.4,1c-0.2,0.4-0.3,0.7-0.4,1.2
			c0,0.4,0,0.7,0.3,1c0.1,0.1,0.3,0.2,0.4,0.4c0.2,0.2,0.4,0.4,0.6,0.6c0.1,0.1,0.1,0.3,0,0.5C28.8,19.7,28.7,19.8,28.6,19.8z
			 M28.7,20.7c0-0.1-0.1-0.2-0.1-0.3c-0.1-0.2-0.3-0.4-0.5-0.7c-0.2-0.3-0.4-0.6-0.6-0.9c-0.1-0.2-0.3-0.4-0.4-0.5
			c-0.1-0.1-0.3-0.1-0.4,0.1c-0.1,0.1-0.1,0.2-0.2,0.3c-0.1,0.1-0.2,0.2-0.3,0.3c-0.1,0-0.3,0.1-0.4,0.1c-0.3,0.1-0.3,0.1-0.3,0.4
			c0,0.2,0,0.4,0,0.7c0,0.1-0.1,0.2-0.1,0.3c0,0.2,0,0.3,0.2,0.3c0.1,0,0.2,0.1,0.4,0.1c0.4,0.1,0.9,0.2,1.3,0.3
			c0.2,0.1,0.5,0.2,0.7,0.2c0.1,0,0.3,0.1,0.4,0C28.5,21.1,28.7,20.9,28.7,20.7z M34.1,18.5c0,0.1-0.1,0.1-0.1,0.1
			c-0.1,0.3-0.4,0.5-0.7,0.5c-0.4,0.1-0.7,0-0.7-0.6c0-0.1,0-0.1,0-0.2c-0.2,0-0.2,0-0.2,0.2c0,0.1,0,0.3,0,0.4c0,0.2,0,0.3,0,0.5
			c0,0.3-0.1,0.7-0.2,1c0,0.2,0,0.4,0.1,0.6c0.1,0.2,0.3,0.3,0.5,0.2c0.2-0.1,0.3-0.2,0.5-0.3c0.2-0.2,0.5-0.4,0.7-0.5
			c0.2-0.1,0.4-0.2,0.6-0.3c0.1-0.1,0.2-0.1,0.3-0.2c0.1-0.1,0.1-0.2,0-0.2c-0.1-0.1-0.2-0.1-0.3-0.2c-0.2-0.1-0.3-0.2-0.3-0.4
			c0-0.1,0-0.2-0.1-0.4C34.2,18.7,34.1,18.6,34.1,18.5z M29.7,13.6C29.7,13.6,29.7,13.6,29.7,13.6c0.1,0,0.2,0,0.2-0.1
			c0.3-0.1,0.5-0.3,0.8-0.4c0.1,0,0.2-0.1,0.2-0.2c0-0.1-0.1-0.1-0.2-0.2c0,0,0,0,0,0c-0.3-0.1-0.5-0.2-0.8-0.3c-0.1,0-0.2,0-0.3,0
			c-0.2,0.2-0.4,0.3-0.7,0.5c0,0,0,0.1,0,0.1C29.2,13.3,29.4,13.5,29.7,13.6C29.7,13.6,29.7,13.6,29.7,13.6z M30.8,12.5
			c0.1,0.1,0.2,0.1,0.2,0c0.3-0.3,0.3-0.8,0-1.1c-0.2-0.3-0.6-0.3-0.8,0c-0.2,0.2-0.2,0.4-0.2,0.6c0,0.2,0.1,0.2,0.3,0.3
			c0-0.1,0-0.3,0.1-0.4c0-0.1,0.1-0.2,0.3-0.2c0.1,0,0.2,0.1,0.3,0.2C31,12.1,31,12.3,30.8,12.5z M29.2,12.5
			c-0.2-0.1-0.3-0.3-0.3-0.6c0-0.1,0.1-0.2,0.2-0.2c0.1,0,0.2,0.1,0.2,0.1c0.1,0.1,0.1,0.3,0.1,0.4c0.1,0,0.1-0.1,0.2-0.1
			c0,0,0,0,0-0.1c0-0.2,0-0.5-0.2-0.7c-0.2-0.2-0.4-0.2-0.6,0c-0.1,0.2-0.2,0.4-0.2,0.6c0,0.2,0.1,0.4,0.3,0.6
			C29.1,12.6,29.1,12.5,29.2,12.5z"/>
	</g>
</g>
</svg>
