<?xml version="1.0" encoding="utf-8"?>
<!-- Generator: Adobe Illustrator 23.0.1, SVG Export Plug-In . SVG Version: 6.00 Build 0)  -->
<svg version="1.1" xmlns="http://www.w3.org/2000/svg" xmlns:xlink="http://www.w3.org/1999/xlink" x="0px" y="0px"
	 viewBox="0 0 100 100" style="enable-background:new 0 0 100 100;" xml:space="preserve">
<style type="text/css">
	.st0{fill:none;}
	.st1{fill:url(#SVGID_1_);}
	.st2{fill:url(#SVGID_2_);}
	.st3{fill:url(#SVGID_3_);}
</style>
<g id="Layer_1">
	<g>
		<rect class="st0" width="100" height="100"/>
	</g>
	<g id="Isolation_Mode">
	</g>
	<g id="Capa_1">
		<g>
			<g>
				<g>
					<linearGradient id="SVGID_1_" gradientUnits="userSpaceOnUse" x1="20.6249" y1="3.8288" x2="19.7973" y2="95.853">
						<stop  offset="0" style="stop-color:#03A9F4"/>
						<stop  offset="1" style="stop-color:#0277BD"/>
					</linearGradient>
					<path class="st1" d="M32.9,4L5.7,14.8c-1.1,0.4-1.8,1.4-1.8,2.6v65.3c0,1.2,0.7,2.2,1.8,2.6L32.9,96c1.7,0.6,3.6-0.7,3.6-2.6
						V6.6C36.5,4.7,34.6,3.4,32.9,4z M28.4,52.7c-1.5,0-2.7-1.2-2.7-2.7c0-1.5,1.2-2.7,2.7-2.7c1.5,0,2.7,1.2,2.7,2.7
						C31.1,51.5,29.9,52.7,28.4,52.7z"/>
				</g>
			</g>
			<g>
				<g>
					<linearGradient id="SVGID_2_" gradientUnits="userSpaceOnUse" x1="73.5008" y1="4.3043" x2="72.6732" y2="96.3285">
						<stop  offset="0" style="stop-color:#03A9F4"/>
						<stop  offset="1" style="stop-color:#0277BD"/>
					</linearGradient>
					<path class="st2" d="M93.5,44.6H71.6v-8.1c0-2.2-2.6-3.5-4.4-2.1L51.5,47.6c-2,1-2,3.8,0,4.8l15.8,13.2
						c1.8,1.4,4.4,0.1,4.4-2.1v-8.1h21.8c1.5,0,2.7-1.2,2.7-2.7v-5.4C96.2,45.8,94.9,44.6,93.5,44.6z"/>
				</g>
			</g>
			<g>
				<g>
					<linearGradient id="SVGID_3_" gradientUnits="userSpaceOnUse" x1="55.8103" y1="4.1452" x2="54.9827" y2="96.1694">
						<stop  offset="0" style="stop-color:#03A9F4"/>
						<stop  offset="1" style="stop-color:#0277BD"/>
					</linearGradient>
					<path class="st3" d="M48.4,43.1l15.4-12.9c1.6-1.2,3.3-1.8,5.1-1.8c0,0,0,0,0,0v-11c0-1.5-1.2-2.7-2.7-2.7H41.9v70.7h24.3
						c1.5,0,2.7-1.2,2.7-2.7v-11c0,0,0,0,0,0c-1.8,0-3.5-0.6-4.9-1.7L48.4,56.9c-2.4-1.5-3.8-4-3.8-6.9S46,44.6,48.4,43.1z"/>
				</g>
			</g>
		</g>
	</g>
</g>
<g id="Isolation_Mode_1_">
</g>
</svg>
