<?xml version="1.0" encoding="utf-8"?>
<!-- Generator: Adobe Illustrator 22.1.0, SVG Export Plug-In . SVG Version: 6.00 Build 0)  -->
<!DOCTYPE svg PUBLIC "-//W3C//DTD SVG 1.1//EN" "http://www.w3.org/Graphics/SVG/1.1/DTD/svg11.dtd">
<svg version="1.1" xmlns="http://www.w3.org/2000/svg" xmlns:xlink="http://www.w3.org/1999/xlink" x="0px" y="0px"
	 viewBox="0 0 2673 487.2" style="enable-background:new 0 0 2673 487.2;" xml:space="preserve">
<style type="text/css">
	.st0{fill:#039BE5;}
	.st1{fill:#01579B;}
</style>
<g id="Capa_1">
	<g>
		<path class="st0" d="M1882.9,23.7c-0.1,0-0.3,0-0.4,0c-4.8,0-9.3,2.7-11.4,7.2l-63.8,130.4l-143.7,21.4c-4.8,0.8-8.8,4.1-10.3,8.7
			s-0.2,9.7,3.3,13.1l104.3,101.1l-24.1,143.2c-0.9,4.8,1.1,9.6,5.1,12.5c2.2,1.6,4.8,2.5,7.5,2.5c2.1,0,4.1-0.5,6-1.5l127.7-67.7
			l143.8,66.6l-31.9-154.4l106.5-111.8l-150.6-32.7L1882.9,23.7z"/>
		<g>
			<path class="st1" d="M2125.9,186.8c-1.6-4.9-5.8-8.4-10.9-9.2L1963,156l-68.4-137.5c-2.3-4.6-7-7.5-12.1-7.5l0,0
				c-5.1,0-9.8,2.9-12.1,7.6l-67.5,137.9l-152,22.6c-5.1,0.8-9.3,4.3-10.9,9.2s-0.2,10.3,3.5,13.8L1753.8,309l-25.5,151.4
				c-0.9,5.1,1.2,10.2,5.4,13.2c2.3,1.7,5.1,2.6,7.9,2.6c2.2,0,4.3-0.5,6.3-1.6l135.7-71.9l136.1,71.1c2,1,4.1,1.5,6.2,1.5l0,0
				c7.4,0,13.5-6.1,13.5-13.5c0-1.1-0.1-2.1-0.4-3.1l-26.3-150.5l109.6-107.5C2126.2,197.1,2127.5,191.7,2125.9,186.8z
				 M1988.9,293.9c-3.2,3.1-4.6,7.6-3.8,12l22.9,131.3l-118.2-61.7c-3.9-2.1-8.6-2-12.6,0l-117.8,62.4l22.1-131.5
				c0.7-4.4-0.7-8.8-3.9-11.9l-95.6-92.8l131.9-19.6c4.4-0.7,8.2-3.4,10.1-7.4L1882.6,55l59.4,119.4c2,4,5.8,6.7,10.2,7.4l132,18.8
				L1988.9,293.9z"/>
		</g>
	</g>
	<g>
		<path class="st0" d="M1336.5,23.7c-0.1,0-0.3,0-0.4,0c-4.8,0-9.3,2.7-11.4,7.2l-63.8,130.4L1117,182.6c-4.8,0.8-8.8,4.1-10.3,8.7
			c-1.5,4.6-0.2,9.7,3.3,13.1l104.3,101.1l-24.1,143.2c-0.9,4.8,1.1,9.6,5.1,12.5c2.2,1.6,4.8,2.5,7.5,2.5c2.1,0,4.1-0.5,6-1.5
			l127.7-67.7l143.8,66.6l-31.9-154.4l106.5-111.8l-150.6-32.7L1336.5,23.7z"/>
		<g>
			<path class="st1" d="M1579.4,186.8c-1.6-4.9-5.8-8.4-10.9-9.2l-152-21.6l-68.4-137.5c-2.3-4.6-7-7.5-12.1-7.5l0,0
				c-5.1,0-9.8,2.9-12.1,7.6l-67.5,137.9l-152,22.6c-5.1,0.8-9.3,4.3-10.9,9.2s-0.2,10.3,3.5,13.8L1207.3,309l-25.5,151.4
				c-0.9,5.1,1.2,10.2,5.4,13.2c2.3,1.7,5.1,2.6,7.9,2.6c2.2,0,4.3-0.5,6.3-1.6l135.7-71.9l136.1,71.1c2,1,4.1,1.5,6.2,1.5l0,0
				c7.4,0,13.5-6.1,13.5-13.5c0-1.1-0.1-2.1-0.4-3.1l-26.3-150.5l109.6-107.5C1579.7,197.1,1581,191.7,1579.4,186.8z M1442.4,293.9
				c-3.2,3.1-4.6,7.6-3.8,12l22.9,131.3l-118.2-61.7c-3.9-2.1-8.6-2-12.6,0l-117.8,62.4l22.1-131.5c0.7-4.4-0.7-8.8-3.9-11.9
				l-95.6-92.8l131.9-19.6c4.4-0.7,8.2-3.4,10.1-7.4L1336.1,55l59.4,119.4c2,4,5.8,6.7,10.2,7.4l132,18.8L1442.4,293.9z"/>
		</g>
	</g>
	<g>
		<path class="st0" d="M790,23.7c-0.1,0-0.3,0-0.4,0c-4.8,0-9.3,2.7-11.4,7.2l-63.8,130.4l-143.7,21.4c-4.8,0.8-8.8,4.1-10.3,8.7
			c-1.5,4.6-0.2,9.7,3.3,13.1l104.3,101.1l-24.1,143.2c-0.9,4.8,1.1,9.6,5.1,12.5c2.2,1.6,4.8,2.5,7.5,2.5c2.1,0,4.1-0.5,6-1.5
			L790,394.4L933.8,461l-31.9-154.4l106.5-111.8l-150.6-32.7L790,23.7z"/>
		<g>
			<path class="st1" d="M1033,186.8c-1.6-4.9-5.8-8.4-10.9-9.2l-152-21.6L801.7,18.5c-2.3-4.6-7-7.5-12.1-7.5l0,0
				c-5.1,0-9.8,2.9-12.1,7.6L710,156.5l-152,22.6c-5.1,0.8-9.3,4.3-10.9,9.2s-0.2,10.3,3.5,13.8L660.9,309l-25.5,151.4
				c-0.9,5.1,1.2,10.2,5.4,13.2c2.3,1.7,5.1,2.6,7.9,2.6c2.2,0,4.3-0.5,6.3-1.6l135.7-71.9l136.1,71.1c2,1,4.1,1.5,6.2,1.5l0,0
				c7.4,0,13.5-6.1,13.5-13.5c0-1.1-0.1-2.1-0.4-3.1l-26.3-150.5l109.6-107.5C1033.3,197.1,1034.6,191.7,1033,186.8z M896,293.9
				c-3.2,3.1-4.6,7.6-3.8,12l22.9,131.3l-118.2-61.7c-3.9-2.1-8.6-2-12.6,0l-117.8,62.4l22.1-131.5c0.7-4.4-0.7-8.8-3.9-11.9
				l-95.6-92.8L721,182.1c4.4-0.7,8.2-3.4,10.1-7.4L789.7,55l59.4,119.4c2,4,5.8,6.7,10.2,7.4l132,18.8L896,293.9z"/>
		</g>
	</g>
	<g>
		<path class="st0" d="M243.6,23.7c-0.1,0-0.3,0-0.4,0c-4.8,0-9.3,2.7-11.4,7.2l-63.8,130.4L24.1,182.6c-4.8,0.8-8.8,4.1-10.3,8.7
			c-1.5,4.6-0.2,9.7,3.3,13.1l104.3,101.1L97.3,448.6c-0.9,4.8,1.1,9.6,5.1,12.5c2.2,1.6,4.8,2.5,7.5,2.5c2.1,0,4.1-0.5,6-1.5
			l127.7-67.7L387.4,461l-31.9-154.4l106.5-111.8l-150.6-32.7L243.6,23.7z"/>
		<g>
			<path class="st1" d="M486.6,186.8c-1.6-4.9-5.8-8.4-10.9-9.2l-152-21.6L255.3,18.5c-2.3-4.6-7-7.5-12.1-7.5l0,0
				c-5.1,0-9.8,2.9-12.1,7.6l-67.5,137.9l-152,22.6c-5.1,0.8-9.3,4.3-10.9,9.2s-0.2,10.3,3.5,13.8L114.5,309L89,460.4
				c-0.9,5.1,1.2,10.2,5.4,13.2c2.3,1.7,5.1,2.6,7.9,2.6c2.2,0,4.3-0.5,6.3-1.6l135.7-71.9l136.1,71.1c2,1,4.1,1.5,6.2,1.5l0,0
				c7.4,0,13.5-6.1,13.5-13.5c0-1.1-0.1-2.1-0.4-3.1l-26.3-150.5L483,200.7C486.9,197.1,488.2,191.7,486.6,186.8z M349.6,293.9
				c-3.2,3.1-4.6,7.6-3.8,12l22.9,131.3l-118.2-61.7c-3.9-2.1-8.6-2-12.6,0l-117.8,62.4l22.1-131.5c0.7-4.4-0.7-8.8-3.9-11.9
				l-95.6-92.8l131.9-19.6c4.4-0.7,8.2-3.4,10.1-7.4L243.3,55l59.4,119.4c2,4,5.8,6.7,10.2,7.4l132,18.8L349.6,293.9z"/>
		</g>
	</g>
	<g>
		<path class="st0" d="M2429.4,23.7c-0.1,0-0.3,0-0.4,0c-4.8,0-9.3,2.7-11.4,7.2l-63.8,130.4l-143.8,21.4c-4.8,0.8-8.8,4.1-10.3,8.7
			s-0.2,9.7,3.3,13.1l104.3,101.1l-24.1,143.2c-0.9,4.8,1.1,9.6,5.1,12.5c2.2,1.6,4.8,2.5,7.5,2.5c2.1,0,4.1-0.5,6-1.5l127.7-67.7
			V23.7z"/>
		<g>
			<path class="st1" d="M2672.3,186.8c-1.6-4.9-5.8-8.4-10.9-9.2l-152-21.6L2441,18.5c-2.3-4.6-7-7.5-12.1-7.5l0,0
				c-5.1,0-9.8,2.9-12.1,7.6l-67.5,137.9l-152,22.6c-5.1,0.8-9.3,4.3-10.9,9.2c-1.6,4.9-0.2,10.3,3.5,13.8L2300.2,309l-25.5,151.4
				c-0.9,5.1,1.2,10.2,5.4,13.2c2.3,1.7,5.1,2.6,7.9,2.6c2.2,0,4.3-0.5,6.3-1.6l135.7-71.9l136.1,71.1c2,1,4.1,1.5,6.2,1.5l0,0
				c7.4,0,13.5-6.1,13.5-13.5c0-1.1-0.1-2.1-0.4-3.1l-26.3-150.5l109.6-107.5C2672.6,197.1,2673.9,191.7,2672.3,186.8z
				 M2535.3,293.9c-3.2,3.1-4.6,7.6-3.8,12l22.9,131.3l-118.2-61.7c-3.9-2.1-8.6-2-12.6,0l-117.8,62.4l22.1-131.5
				c0.7-4.4-0.7-8.8-3.9-11.9l-95.6-92.8l131.9-19.6c4.4-0.7,8.2-3.4,10.1-7.4L2429,55l59.4,119.4c2,4,5.8,6.7,10.2,7.4l132,18.8
				L2535.3,293.9z"/>
		</g>
	</g>
</g>
<g id="Isolation_Mode">
</g>
</svg>
