<?xml version="1.0" encoding="utf-8"?>
<!-- Generator: Adobe Illustrator 23.0.1, SVG Export Plug-In . SVG Version: 6.00 Build 0)  -->
<svg version="1.1" xmlns="http://www.w3.org/2000/svg" xmlns:xlink="http://www.w3.org/1999/xlink" x="0px" y="0px"
	 viewBox="0 0 100 100" style="enable-background:new 0 0 100 100;" xml:space="preserve">
<style type="text/css">
	.st0{fill:none;}
	.st1{fill:url(#SVGID_1_);}
	.st2{fill:url(#SVGID_2_);}
	.st3{fill:url(#SVGID_3_);}
</style>
<g id="Layer_1">
	<rect class="st0" width="100" height="100"/>
</g>
<g id="Capa_1">
	<g>
		<g>
			<g>
				<g>
					<linearGradient id="SVGID_1_" gradientUnits="userSpaceOnUse" x1="31.2047" y1="11.8075" x2="29.7253" y2="86.8865">
						<stop  offset="0" style="stop-color:#03A9F4"/>
						<stop  offset="1" style="stop-color:#0277BD"/>
					</linearGradient>
					<path class="st1" d="M14.564,75.503c-2.7434,2.7434-2.7434,7.1862,0,9.9296c1.3717,1.3717,3.1694,2.0552,4.9672,2.0552
						s3.5955-0.6835,4.9672-2.0552l23.0567-23.0615l-9.9344-9.925L14.564,75.503z"/>
					<linearGradient id="SVGID_2_" gradientUnits="userSpaceOnUse" x1="71.5685" y1="12.6029" x2="70.0891" y2="87.6818">
						<stop  offset="0" style="stop-color:#03A9F4"/>
						<stop  offset="1" style="stop-color:#0277BD"/>
					</linearGradient>
					<polygon class="st2" points="72.1896,32.7696 82.2316,27.5775 87.4889,17.4139 82.5873,12.5123 72.4283,17.7744 67.227,27.807 
						55.0128,40.0352 59.966,44.9978 					"/>
					<linearGradient id="SVGID_3_" gradientUnits="userSpaceOnUse" x1="50.7852" y1="12.1934" x2="49.3058" y2="87.2723">
						<stop  offset="0" style="stop-color:#03A9F4"/>
						<stop  offset="1" style="stop-color:#0277BD"/>
					</linearGradient>
					<path class="st3" d="M74.3898,59.4218l-0.9457-0.0936c-1.7134,0-3.338,0.3511-4.8548,0.9129L39.7648,31.4119
						c0.5618-1.5168,0.9129-3.1413,0.9129-4.8548l-0.0936-0.9457c-0.4962-7.308-6.5168-13.0991-13.951-13.0991
						c-2.163,0-4.1901,0.529-6.0206,1.4045l9.3304,9.3304c0.4916,0.4916,0.8287,1.072,1.0534,1.6854
						c0.6132,1.6572,0.2809,3.5955-1.0534,4.9344c-0.9129,0.9129-2.1114,1.3717-3.3098,1.3717
						c-0.5524,0-1.1002-0.1217-1.6246-0.3183c-0.6132-0.2341-1.1938-0.5618-1.6854-1.058l-9.3302-9.3257
						c-0.8755,1.8305-1.4045,3.8576-1.4045,6.0206c0,7.4343,5.7911,13.4548,13.0991,13.951l0.9457,0.0936
						c1.7134,0,3.338-0.3511,4.8548-0.9082l28.8198,28.8246c-0.5524,1.5168-0.9035,3.1413-0.9035,4.8548l0.0983,0.9457
						c0.4869,7.3126,6.5121,13.0991,13.9464,13.0991c2.163,0,4.1947-0.5196,6.0206-1.4045l-9.3304-9.3304
						c-0.487-0.4869-0.8287-1.072-1.0628-1.6806c-0.6132-1.6572-0.2809-3.6001,1.0628-4.939
						c0.9035-0.9129,2.1114-1.3717,3.3098-1.3717c0.5524,0,1.0954,0.117,1.6292,0.3183c0.6132,0.2295,1.1984,0.5572,1.6806,1.0534
						l9.3304,9.3304c0.8801-1.8352,1.4045-3.8576,1.4045-6.0206C87.4889,65.9385,81.6978,59.918,74.3898,59.4218z"/>
				</g>
			</g>
		</g>
	</g>
</g>
</svg>
