<?xml version="1.0" encoding="utf-8"?>
<!-- Generator: Adobe Illustrator 23.0.1, SVG Export Plug-In . SVG Version: 6.00 Build 0)  -->
<svg version="1.1" id="Layer_1" xmlns="http://www.w3.org/2000/svg" xmlns:xlink="http://www.w3.org/1999/xlink" x="0px" y="0px"
	 viewBox="0 0 100 100" style="enable-background:new 0 0 100 100;" xml:space="preserve">
<style type="text/css">
	.st0{fill:none;}
	.st1{fill:url(#SVGID_1_);}
</style>
<rect class="st0" width="100" height="100"/>
<linearGradient id="SVGID_1_" gradientUnits="userSpaceOnUse" x1="49.601" y1="1.7687" x2="50.3168" y2="96.7331">
	<stop  offset="0" style="stop-color:#03A9F4"/>
	<stop  offset="1" style="stop-color:#0277BD"/>
</linearGradient>
<path class="st1" d="M82.9,12.4H63.3C61.3,7,56.1,3,50,3S38.7,7,36.7,12.4H17.1c-5.2,0-9.4,4.2-9.4,9.4v65.8c0,5.2,4.2,9.4,9.4,9.4
	h65.8c5.2,0,9.4-4.2,9.4-9.4V21.8C92.3,16.6,88.1,12.4,82.9,12.4z M50,12.4c2.6,0,4.7,2.1,4.7,4.7s-2.1,4.7-4.7,4.7
	s-4.7-2.1-4.7-4.7S47.4,12.4,50,12.4z M40.6,78.2L21.8,59.4l6.6-6.6l12.2,12.1l31-31l6.6,6.7L40.6,78.2z"/>
</svg>
