<?xml version="1.0" encoding="utf-8"?>
<!-- Generator: Adobe Illustrator 23.0.1, SVG Export Plug-In . SVG Version: 6.00 Build 0)  -->
<svg version="1.1" xmlns="http://www.w3.org/2000/svg" xmlns:xlink="http://www.w3.org/1999/xlink" x="0px" y="0px"
	 viewBox="0 0 100 100" style="enable-background:new 0 0 100 100;" xml:space="preserve">
<style type="text/css">
	.st0{fill:none;}
	.st1{fill:url(#SVGID_1_);}
</style>
<g id="Layer_1">
	<g>
		<rect class="st0" width="100" height="100"/>
	</g>
	<g id="Isolation_Mode">
		<g>
			<linearGradient id="SVGID_1_" gradientUnits="userSpaceOnUse" x1="50.1929" y1="3.6674" x2="49.8955" y2="95.831">
				<stop  offset="0" style="stop-color:#03A9F4"/>
				<stop  offset="1" style="stop-color:#0277BD"/>
			</linearGradient>
			<path class="st1" d="M81.7,69.2c-5.3,0-9.8,3-12.1,7.4H32.9V56.1h20.2c2.2,4.4,6.8,7.4,12.1,7.4c7.5,0,13.5-6.1,13.5-13.5
				s-6.1-13.5-13.5-13.5c-5.3,0-9.8,3-12.1,7.4H32.9V23.4h36.7c2.2,4.4,6.8,7.4,12.1,7.4c7.5,0,13.5-6.1,13.5-13.5
				S89.1,3.8,81.7,3.8c-5.3,0-9.8,3-12.1,7.4H20.7v32.7H4.8v12.2h15.9v32.7h48.9c2.2,4.4,6.8,7.4,12.1,7.4c7.5,0,13.5-6.1,13.5-13.5
				C95.2,75.2,89.1,69.2,81.7,69.2z M65.2,44.7c2.9,0,5.3,2.4,5.3,5.3c0,2.9-2.4,5.3-5.3,5.3c-2.9,0-5.3-2.4-5.3-5.3
				S62.3,44.7,65.2,44.7z M81.7,12c2.9,0,5.3,2.4,5.3,5.3s-2.4,5.3-5.3,5.3c-2.9,0-5.3-2.4-5.3-5.3S78.8,12,81.7,12z M81.7,88
				c-2.9,0-5.3-2.4-5.3-5.3s2.4-5.3,5.3-5.3c2.9,0,5.3,2.4,5.3,5.3S84.6,88,81.7,88z"/>
		</g>
	</g>
</g>
<g id="Isolation_Mode_1_">
</g>
</svg>
